<svg xmlns="http://www.w3.org/2000/svg" xmlns:xlink="http://www.w3.org/1999/xlink" viewBox="0 0 66.71 67.23"><defs><style>.cls-1{fill:url(#linear-gradient);}</style><linearGradient id="linear-gradient" x1="40.17" y1="57.12" x2="11.69" y2="-24.46" gradientUnits="userSpaceOnUse"><stop offset="0" stop-color="#fff"/><stop offset="1" stop-color="#5194be"/></linearGradient></defs><title>marijuana-leaf</title><g id="Layer_2" data-name="Layer 2"><g id="DG"><path id="path2161" class="cls-1" d="M34.4,66.9a63.38,63.38,0,0,0-1.46-9.57,15.15,15.15,0,0,1-.38-2.49c0-1.27-.36-1.69-.73-.87-.17.37-.46.66-.64.66-.37,0-.84.49-1.58,1.64-.26.4-.64.72-.85.72s-.39.12-.39.26-.23.26-.51.26a.88.88,0,0,0-.68.28.45.45,0,0,1-.53.14.43.43,0,0,0-.51.11,3.22,3.22,0,0,1-1.26.54,4.81,4.81,0,0,0-2.22,1.49c-.62.66-1.2,1.12-1.29,1-.44-.44,1.49-4.74,2.33-5.19a.87.87,0,0,0,.47-.62c0-.2.24-.44.53-.53s.53-.32.53-.5.47-.47,1-.65a4.28,4.28,0,0,0,1.49-.76A16,16,0,0,1,29,51.77c.48-.37.6-.54.29-.43L27.49,52a8.3,8.3,0,0,0-1.62.77,1,1,0,0,1-.7.22,2,2,0,0,0-1,.26c-.95.47-1.3-.25-2.31.38-1.3.81-1-.17-2.73.54-2.69,1.12-1.15,0-3.19.86-2.57,1.06-.79-.63-3.5.62-1.11.51-4.05.68-4.5,1.13s-.66.2-.57-.18a21.77,21.77,0,0,1,3.66-3.18c.45-.2.08-.63,1.29-1,.71-.21.38-1.25,2.15-1.64s.56-1.05,2.56-1.35c1.07-.16,1.31-.94,3-1a7.85,7.85,0,0,0,2.49-.38c.3-.24-.75-.59-1.77-.59-.75,0-1.17-.13-1.28-.4s-.53-.39-1.4-.39a2.26,2.26,0,0,1-1.58-.39,1.23,1.23,0,0,0-.83-.39.72.72,0,0,1-.65-.38,1.93,1.93,0,0,0-1-.68c-.61-.2-.9-.46-.9-.8s-.18-.5-.64-.5c-.7,0-1.55-.69-1.32-1.07.08-.13-.22-.24-.68-.24s-.86-.14-1-.51a.9.9,0,0,0-.7-.59,1.17,1.17,0,0,1-.8-.63,2.72,2.72,0,0,0-1-1c-.42-.24-.7-.54-.62-.66s-.16-.36-.52-.53-.6-.41-.52-.54-.21-.36-.64-.51-.79-.45-.79-.66a9.21,9.21,0,0,0-2-2.2,18.47,18.47,0,0,1-2-2,8.53,8.53,0,0,1,2.17.62,18.45,18.45,0,0,0,3.61.9c2.42.22,2.58.24,2.78.44a1.4,1.4,0,0,0,.79.2,1,1,0,0,1,.76.26,1.25,1.25,0,0,0,.89.26,2.16,2.16,0,0,1,1.27.51,1.28,1.28,0,0,0,1.05.38.9.9,0,0,1,.85.28,1.21,1.21,0,0,0,.8.41,2.4,2.4,0,0,1,1.16.66,2.42,2.42,0,0,0,1.12.66,2.77,2.77,0,0,1,1.19.66,2.76,2.76,0,0,0,1.38.66,1.7,1.7,0,0,1,1.07.53,1.58,1.58,0,0,0,.94.53.82.82,0,0,1,.63.26.75.75,0,0,0,.61.25c.26,0,0-.22-.49-.51-1-.54-1.72-1.24-1.48-1.48.08-.08-.26-.51-.75-.94a2.81,2.81,0,0,1-.9-1.14c0-.19-.36-.63-.8-1a2.5,2.5,0,0,1-.87-1.06,2.2,2.2,0,0,0-.77-1,1.78,1.78,0,0,1-.71-1c0-.25-.35-.66-.79-.91-.76-.45-1.08-1.22-.51-1.22.16,0-.09-.31-.55-.7s-.79-.85-.69-1.22-.12-.76-.67-1.28-.75-.82-.47-1.15.21-.53-.41-1.18c-.41-.43-.67-.85-.57-.95s-.12-.52-.48-.94c-.75-.9-.81-1.21-.24-1.43.36-.14.34-.23-.1-.71a5.29,5.29,0,0,1-1-2.92c-.22-1.46-.35-2.36-.48-3.28a21.79,21.79,0,0,0-.84-4.26c-.72-2.24-.29-2.3.91-.12a22.14,22.14,0,0,0,2.42,3.48,7.6,7.6,0,0,1,1.3,1.71c0,.15.18.24.41.19s.6.27.85.71l.53.91c0,.07.19,0,.32-.26s.33-.16.64.59a5.79,5.79,0,0,1,.41,1.24.27.27,0,0,0,.26.27.29.29,0,0,0,.26-.31c0-.17.3,0,.66.31a2,2,0,0,1,.66,1.39c0,.65.06.72.38.46s.46-.14.85.76c.28.64.6,1,.8,1s.44.3.63,1.07.38,1.07.5.87c.24-.39.63.27.9,1.53.14.67.29.83.66.71s.79.45.79,1.64c0,.4.16.59.5.59s.53.26.67,1.15.29,1.14.6,1.12.52.31.71,1,.4,1,.74,1,.6.59.53,2.25c0,.2.17.28.45.19s.49.06.6,1.05a3.71,3.71,0,0,0,.6,1.71,2.46,2.46,0,0,1,.45,1.7c0,.91.1,1.25.48,1.45s.5.56.5,1.69a3,3,0,0,0,.29,1.6,4.12,4.12,0,0,1,.77,1.26c1,2.32.13-1.93-1-4.5-.43-1-.47-1.46-.1-1.24s.31-.11-.66-2.15c-.51-1.07-.92-2-.92-2.06s.23-.12.5-.12c.49,0,.49,0,0-1.25-.88-2.36-.89-2.43-.25-2.43s.55,0,.21-.46-1.43-2.37-.51-2.3c.33,0,.1-1.19,0-1.37-.91-1.26.38-1.16-.33-2.34-.43-.66-.31-1.29.19-1,.18.11.23,0,.13-.24a10.51,10.51,0,0,1-.34-1.36c-.16-.83-.12-.94.38-.94.65,0,.67-.16.16-1.05S28.52,20,29,20s.4-.49-.05-1.68a.42.42,0,0,1,.24-.57c.31-.12.35-.33.16-1-.32-1.12-.31-1.23.17-1.23s.38-.21.23-1.2-.12-1.21.34-1.33.5-.31.39-1.43,0-1.29.25-1.29.35-.25.27-.92,0-.92.32-.92.42-.25.42-.91a1.49,1.49,0,0,1,.36-1.12,4.75,4.75,0,0,0,.79-1.92C33.47,2.34,34.42,0,34.75,0c.13,0,.17.27.08.59a13.86,13.86,0,0,0-.15,5.48,4.79,4.79,0,0,0,.54,1.81c.11,0,.28.65.38,1.45a3.89,3.89,0,0,0,.42,1.6c.13.08.17.54.08,1-.13.67-.06.9.28,1s.41.37.28,1.07c-.1.52-.05,1,.1,1.06s.09,1.38-.32,1.91c-.19.24-.11.33.3.33a.49.49,0,0,1,.29.92c-.36.22-.33,1.18,0,1.18.16,0,.22.19.13.42-.47,1.22-.47,1.68,0,1.68s.42.16.27,1A3.84,3.84,0,0,1,37,23.85c-.21.26-.07.22.29.49a.79.79,0,0,1,.11.85c-.21.4-.41.34-.12.82a1.49,1.49,0,0,1,0,1.47c-.2.61-.54,1.11-.18,1.45.66.64.37,1.21-.14,1.91-.28.39-.22.84,0,.94.59.24.75.57.2,1s-.69,1.82-.31,1.95c.2.07.19.34,0,.93s-.2.83-.07.83.31-.33.39-.72c.27-1.25.35-1.38.83-1.38s.46-.2.42-1.15,0-1.19.59-1.44.42-.4.47-1.13.12-.82.4-.69c.46.22.43,0,.57-.68.18-.93.51-1.4.77-1.11.5.57.51.24.95-1,.3-.89.57-1.25.78-.72.13.35.3.14.62-.85s.54-1.3,1-1.26.65-.17.88-.73.4-.72.69-.48.42.36.87-.76c.19-.47.48-.85.66-.85a4.12,4.12,0,0,0,1.33-1c.56-.56,1.15-1,1.31-.91s.51-.13.77-.42.58-.47.71-.39.23,0,.23-.14a.26.26,0,0,1,.24-.28,28.19,28.19,0,0,0,4.22-2.82c1.94-1.46,2.15-1.06.41.77-1.31,1.38-2.38,3.25-2.28,4a1.23,1.23,0,0,1-.23.84.61.61,0,0,0-.16.6c.08.13-.15.51-.51.85s-.56.67-.33.81.12.36-.38.75-.64.71-.56.91-.21.62-.67,1-.72.66-.48.82.12.39-.46.87-.76.85-.71,1.12a1.6,1.6,0,0,1-.57,1.08c-.35.33-.59.76-.51,1s-.17.55-.55.79-.64.6-.54.91-.12.63-.8,1.05-.85.65-.62.79c.43.26-.12,1-1,1.32a.89.89,0,0,0-.6.74,2.63,2.63,0,0,1-1,1.32c-.54.44-.83.81-.66.81q.9,0-.85,1.17c-.86.58-1.09.86-.89,1.11.44.53.14.91-1.1,1.37-.8.3-1.17.58-1.17.92s-.41.69-1.11,1S37,45,37,45.21a2.41,2.41,0,0,1-.86,1.15A8.62,8.62,0,0,0,35,47.59c-.67.95,1.77-.5,3.68-2.19a11.36,11.36,0,0,1,2-1.54.87.87,0,0,0,.72-.53c.12-.37.65-.53.86-.53a1.58,1.58,0,0,0,1.27-.54,1,1,0,0,1,1.15-.38.69.69,0,0,0,.85-.24c.18-.35.84-.41,1.15-.41s.77-.1.89-.39.6-.39.94-.39a1.08,1.08,0,0,0,.78-.27c.25-.34.54-.25,1-.22a3,3,0,0,0,1.41-.25c.72-.42.77-.23,1-.14a.54.54,0,0,0,.63-.14c.33-.54,3.64-.63,6.62-.18a39.93,39.93,0,0,0,4.79.42c1.16,0,2,.11,2,.26s-.22.26-.49.26a11.84,11.84,0,0,0-2.59,1.05,16.83,16.83,0,0,1-2.36,1.05,1,1,0,0,0-.59.39,1.12,1.12,0,0,1-.73.39,1.07,1.07,0,0,0-.72.44A1.72,1.72,0,0,1,58,44c-.78,0-.93.1-.81.48s0,.46-.89.46-1,.09-1,.46-.14.44-.92.38-1,0-.92.39-.14.47-1.17.42-1,0-1.09.59-.36.4-1.19.33-.93-.27-1.15.14-.48.43-1.42.3-1.14-.1-1,.26-.05.42-1.05.42c-.69,0-1.21.12-1.21.28s-.48.22-1.44.1-1.44-.09-1.44.14-.37.29-1.16.23-1.1,0-1,.1a4.58,4.58,0,0,0,1.75.2c2.06,0,6,.54,6,.82-.14.62,1.46,1,2.11,1,.33,0,.78.21.69.5-.17.6.44.6.9.65,1.64.19,1.62.65,2.07,1.26a2.13,2.13,0,0,0,1,.73.81.81,0,0,1,.55.57c0,.27,1.23,1.5,3,3,1,.84,1.24,1.37.48,1a12.31,12.31,0,0,0-3.87-1,7.78,7.78,0,0,1-2.22-.52c-.48-.25-.82-.29-1-.12s-.51.16-1,0-.83-.2-1.09,0-.53.19-1.08-.18a2.05,2.05,0,0,0-1-.41,1.76,1.76,0,0,1-.92-.27,3.13,3.13,0,0,0-.86-.36,7.06,7.06,0,0,1-2.36-1.17c-.65-.54-1.44-.84-1.44-.53,0,.12.18.29.4.38a1.55,1.55,0,0,1,.65.82c.14.36.38.66.53.66a.26.26,0,0,1,.23.33,1.74,1.74,0,0,0,.09.72c.67,1.84,1,4.2.51,4.2-.12,0-.4-.4-.64-.88C42.07,60,40,58,39.47,58a1.59,1.59,0,0,1-.74-.53A1.57,1.57,0,0,0,38,57a1.81,1.81,0,0,1-.81-.62c-.29-.34-.63-.61-.76-.59s-.42-.33-.66-.78l-1.07-2c-.75-1.43-1.14-1.58-1-.37.07.47.25,1.92.4,3.22.52,4.45.81,6.57,1.2,8.67.51,2.75.51,2.76-.26,2.76C34.7,67.23,34.4,67.09,34.4,66.9Zm-9.33-18.3c.08-.13-.4-.24-1.08-.24-.83,0-1.11.08-.86.24C23.62,48.91,24.88,48.92,25.07,48.61Zm4.27-2.23c-1.74-1.78-2.26-2.14-1.76-1.2.16.29.39.47.52.39s.42.2.63.62A5.9,5.9,0,0,0,30,47.65C31.43,48.88,31.08,48.16,29.34,46.38ZM35,44a5.27,5.27,0,0,1,.51-1.56,2.79,2.79,0,0,0,.23-1.32,3.45,3.45,0,0,1,.41-1.65c.22-.32.31-.58.2-.58s-.47.4-.78.89-.49,1-.29,1.16.09.68-.38,1.67A11.09,11.09,0,0,0,34,45.17c-.1.65-.24,1.48-.31,1.84s.12.12.42-.53A13.44,13.44,0,0,0,35,44Z"/></g></g></svg>