<svg xmlns="http://www.w3.org/2000/svg" xmlns:xlink="http://www.w3.org/1999/xlink" viewBox="0 0 84.99 51.8"><defs><style>.cls-1,.cls-2{fill:none;stroke:#fff;stroke-miterlimit:10;}.cls-1{stroke-width:2px;}.cls-2{stroke-width:0.86px;}.cls-3{fill:url(#linear-gradient);}.cls-4{fill:url(#linear-gradient-2);}.cls-5{fill:url(#linear-gradient-3);}.cls-6{fill:url(#linear-gradient-4);}.cls-7{fill:url(#linear-gradient-5);}.cls-8{fill:url(#linear-gradient-6);}.cls-9{fill:url(#linear-gradient-7);}.cls-10{fill:url(#linear-gradient-8);}.cls-11{fill:url(#linear-gradient-9);}.cls-12{fill:url(#linear-gradient-10);}.cls-13{fill:url(#linear-gradient-11);}.cls-14{fill:url(#linear-gradient-12);}.cls-15{fill:url(#linear-gradient-13);}.cls-16{fill:url(#linear-gradient-14);}.cls-17{fill:url(#linear-gradient-15);}.cls-18{fill:#fff;}.cls-19{fill:url(#linear-gradient-16);}.cls-20{fill:url(#linear-gradient-17);}.cls-21{fill:url(#linear-gradient-18);}.cls-22{fill:url(#linear-gradient-19);}.cls-23{fill:url(#linear-gradient-20);}.cls-24{fill:url(#linear-gradient-21);}.cls-25{fill:url(#linear-gradient-22);}.cls-26{fill:url(#linear-gradient-23);}.cls-27{fill:url(#linear-gradient-24);}.cls-28{fill:url(#linear-gradient-25);}.cls-29{fill:url(#linear-gradient-26);}.cls-30{fill:url(#linear-gradient-27);}.cls-31{fill:url(#linear-gradient-28);}.cls-32{fill:url(#linear-gradient-29);}.cls-33{fill:url(#linear-gradient-30);}.cls-34{fill:url(#linear-gradient-31);}.cls-35{fill:url(#linear-gradient-32);}.cls-36{fill:url(#linear-gradient-33);}.cls-37{fill:url(#linear-gradient-34);}.cls-38{fill:url(#linear-gradient-35);}.cls-39{fill:url(#linear-gradient-36);}.cls-40{fill:url(#linear-gradient-37);}.cls-41{fill:url(#linear-gradient-38);}.cls-42{fill:url(#linear-gradient-39);}.cls-43{fill:url(#linear-gradient-40);}.cls-44{fill:url(#linear-gradient-41);}.cls-45{fill:url(#linear-gradient-42);}.cls-46{fill:url(#linear-gradient-43);}.cls-47{fill:url(#linear-gradient-44);}.cls-48{fill:url(#linear-gradient-45);}.cls-49{fill:url(#linear-gradient-46);}</style><linearGradient id="linear-gradient" x1="25.46" y1="19.52" x2="15.41" y2="52.91" gradientUnits="userSpaceOnUse"><stop offset="0" stop-color="#d9f0ff" stop-opacity="0.2"/><stop offset="1" stop-color="#007fcf"/></linearGradient><linearGradient id="linear-gradient-2" x1="23.2" y1="-0.83" x2="16.73" y2="20.68" xlink:href="#linear-gradient"/><linearGradient id="linear-gradient-3" x1="58.09" y1="43.1" x2="57.77" y2="44.07" gradientTransform="matrix(-1, 0, 0, 1, 139.25, 0)" gradientUnits="userSpaceOnUse"><stop offset="0" stop-color="#fff"/><stop offset="1" stop-color="#5194be"/></linearGradient><linearGradient id="linear-gradient-4" x1="56.56" y1="42.81" x2="56.26" y2="43.72" xlink:href="#linear-gradient-3"/><linearGradient id="linear-gradient-5" x1="55.48" y1="42.7" x2="55.06" y2="43.98" xlink:href="#linear-gradient-3"/><linearGradient id="linear-gradient-6" x1="60.45" y1="43.01" x2="60.19" y2="43.55" xlink:href="#linear-gradient-3"/><linearGradient id="linear-gradient-7" x1="61.34" y1="43.74" x2="61.12" y2="44.21" xlink:href="#linear-gradient-3"/><linearGradient id="linear-gradient-8" x1="59.76" y1="43.92" x2="59.51" y2="44.45" xlink:href="#linear-gradient-3"/><linearGradient id="linear-gradient-9" x1="63.03" y1="43.95" x2="62.88" y2="44.27" xlink:href="#linear-gradient-3"/><linearGradient id="linear-gradient-10" x1="70.82" y1="50.29" x2="55.57" y2="6.61" gradientTransform="matrix(1, 0, 0, 1, 0, 0)" xlink:href="#linear-gradient-3"/><linearGradient id="linear-gradient-11" x1="41.44" y1="41.23" x2="28.73" y2="67.76" gradientTransform="matrix(1, 0, 0, 1, 0, 0)" xlink:href="#linear-gradient-3"/><linearGradient id="linear-gradient-12" x1="47.54" y1="17.96" x2="44" y2="28.75" gradientTransform="matrix(1, 0, 0, 1, 0, 0)" xlink:href="#linear-gradient-3"/><linearGradient id="linear-gradient-13" x1="26.76" y1="39.22" x2="24.53" y2="67.17" gradientTransform="matrix(1, 0, 0, 1, 0, 0)" xlink:href="#linear-gradient-3"/><linearGradient id="linear-gradient-14" x1="44.68" y1="23.47" x2="40.24" y2="42.37" gradientTransform="matrix(1, 0, 0, 1, 0, 0)" xlink:href="#linear-gradient-3"/><linearGradient id="linear-gradient-15" x1="50.65" y1="31.12" x2="47.79" y2="22.94" gradientTransform="matrix(1, 0, 0, 1, 0, 0)" xlink:href="#linear-gradient-3"/><linearGradient id="linear-gradient-16" x1="54.32" y1="35.16" x2="45.42" y2="60.1" gradientTransform="matrix(1, 0, 0, 1, 0, 0)" xlink:href="#linear-gradient-3"/><linearGradient id="linear-gradient-17" x1="47.89" y1="40.76" x2="44.24" y2="65.38" gradientTransform="matrix(1, 0, 0, 1, 0, 0)" xlink:href="#linear-gradient-3"/><linearGradient id="linear-gradient-18" x1="29.95" y1="26.73" x2="29" y2="55" gradientTransform="matrix(1, 0, 0, 1, 0, 0)" xlink:href="#linear-gradient-3"/><linearGradient id="linear-gradient-19" x1="14.61" y1="45.22" x2="14.13" y2="46.68" gradientTransform="matrix(1, 0, 0, 1, 0, 0)" xlink:href="#linear-gradient-3"/><linearGradient id="linear-gradient-20" x1="13.27" y1="45.45" x2="13.01" y2="46.22" gradientTransform="matrix(1, 0, 0, 1, 0, 0)" xlink:href="#linear-gradient-3"/><linearGradient id="linear-gradient-21" x1="17.94" y1="45.9" x2="17.28" y2="47.93" gradientTransform="matrix(1, 0, 0, 1, 0, 0)" xlink:href="#linear-gradient-3"/><linearGradient id="linear-gradient-22" x1="23.42" y1="47.62" x2="22.29" y2="51.07" gradientTransform="matrix(1, 0, 0, 1, 0, 0)" xlink:href="#linear-gradient-3"/><linearGradient id="linear-gradient-23" x1="15.33" y1="47.73" x2="15.33" y2="47.73" gradientTransform="matrix(1, 0, 0, 1, 0, 0)" xlink:href="#linear-gradient-3"/><linearGradient id="linear-gradient-24" x1="11.06" y1="45.29" x2="10.48" y2="46.5" gradientTransform="matrix(1, 0, 0, 1, 0, 0)" xlink:href="#linear-gradient-3"/><linearGradient id="linear-gradient-25" x1="12.8" y1="44.49" x2="12.48" y2="45.16" gradientTransform="matrix(1, 0, 0, 1, 0, 0)" xlink:href="#linear-gradient-3"/><linearGradient id="linear-gradient-26" x1="27.83" y1="49.94" x2="27.51" y2="50.91" gradientTransform="matrix(1, 0, 0, 1, 0, 0)" xlink:href="#linear-gradient-3"/><linearGradient id="linear-gradient-27" x1="26.3" y1="49.65" x2="26" y2="50.56" gradientTransform="matrix(1, 0, 0, 1, 0, 0)" xlink:href="#linear-gradient-3"/><linearGradient id="linear-gradient-28" x1="25.22" y1="49.53" x2="24.8" y2="50.82" gradientTransform="matrix(1, 0, 0, 1, 0, 0)" xlink:href="#linear-gradient-3"/><linearGradient id="linear-gradient-29" x1="30.19" y1="49.85" x2="29.93" y2="50.39" gradientTransform="matrix(1, 0, 0, 1, 0, 0)" xlink:href="#linear-gradient-3"/><linearGradient id="linear-gradient-30" x1="31.08" y1="50.58" x2="30.86" y2="51.04" gradientTransform="matrix(1, 0, 0, 1, 0, 0)" xlink:href="#linear-gradient-3"/><linearGradient id="linear-gradient-31" x1="29.51" y1="50.75" x2="29.25" y2="51.29" gradientTransform="matrix(1, 0, 0, 1, 0, 0)" xlink:href="#linear-gradient-3"/><linearGradient id="linear-gradient-32" x1="32.77" y1="50.79" x2="32.62" y2="51.1" gradientTransform="matrix(1, 0, 0, 1, 0, 0)" xlink:href="#linear-gradient-3"/><linearGradient id="linear-gradient-33" x1="68.95" y1="49.94" x2="68.63" y2="50.91" xlink:href="#linear-gradient-3"/><linearGradient id="linear-gradient-34" x1="67.43" y1="49.65" x2="67.13" y2="50.56" xlink:href="#linear-gradient-3"/><linearGradient id="linear-gradient-35" x1="66.35" y1="49.53" x2="65.92" y2="50.82" xlink:href="#linear-gradient-3"/><linearGradient id="linear-gradient-36" x1="71.31" y1="49.85" x2="71.05" y2="50.39" xlink:href="#linear-gradient-3"/><linearGradient id="linear-gradient-37" x1="72.21" y1="50.58" x2="71.98" y2="51.04" xlink:href="#linear-gradient-3"/><linearGradient id="linear-gradient-38" x1="70.63" y1="50.75" x2="70.37" y2="51.29" xlink:href="#linear-gradient-3"/><linearGradient id="linear-gradient-39" x1="73.9" y1="50.79" x2="73.75" y2="51.1" xlink:href="#linear-gradient-3"/><linearGradient id="linear-gradient-40" x1="64.8" y1="49.2" x2="64.48" y2="50.17" xlink:href="#linear-gradient-3"/><linearGradient id="linear-gradient-41" x1="63.27" y1="48.91" x2="62.97" y2="49.82" xlink:href="#linear-gradient-3"/><linearGradient id="linear-gradient-42" x1="62.19" y1="48.8" x2="61.77" y2="50.08" xlink:href="#linear-gradient-3"/><linearGradient id="linear-gradient-43" x1="67.16" y1="49.11" x2="66.9" y2="49.65" xlink:href="#linear-gradient-3"/><linearGradient id="linear-gradient-44" x1="68.05" y1="49.84" x2="67.83" y2="50.31" xlink:href="#linear-gradient-3"/><linearGradient id="linear-gradient-45" x1="66.47" y1="50.02" x2="66.22" y2="50.55" xlink:href="#linear-gradient-3"/><linearGradient id="linear-gradient-46" x1="69.74" y1="50.05" x2="69.59" y2="50.36" xlink:href="#linear-gradient-3"/></defs><title>cocaine-powder</title><g id="Layer_2" data-name="Layer 2"><g id="DG"><rect class="cls-1" x="1" y="1" width="40.89" height="40.89"/><line class="cls-2" x1="1" y1="11.51" x2="41.89" y2="11.51"/><polygon class="cls-3" points="3.06 26.32 8.12 24.72 9.98 26.32 13.45 26.32 20.11 28.18 28.63 21.84 31.03 25.01 33.44 22.6 35.84 25 39.84 21 39.84 39.37 3.06 39.37 3.06 26.32"/><rect class="cls-4" x="2.35" y="2.34" width="37.48" height="7.68"/><path class="cls-5" d="M80.67,43.31H81.8s-.05.25-.18.25a5,5,0,0,1-.78,0C80.68,43.52,80.67,43.31,80.67,43.31Z"/><ellipse class="cls-6" cx="82.78" cy="43.09" rx="0.45" ry="0.22"/><ellipse class="cls-7" cx="83.9" cy="43.09" rx="1.09" ry="0.11"/><path class="cls-8" d="M78.41,42.67s.43.28.54.2.44.22.44.22a4.24,4.24,0,0,1-.49.22,2.84,2.84,0,0,1-.49,0v-.64Z"/><polygon class="cls-9" points="77.57 43.45 78.16 43.58 78.41 43.58 77.99 44.01 77.57 44.01 77.32 43.73 77.57 43.45"/><path class="cls-10" d="M79.38,43.45l.36.28L80,44s-.46.13-.65,0a4.72,4.72,0,0,0-.49-.28Z"/><polygon class="cls-11" points="75.99 43.76 76.53 44.01 75.99 44.07 75.99 43.76"/><g id="_Group_" data-name="&lt;Group&gt;"><path class="cls-12" d="M81,42.72l-.54.65-1.08.07.43.47-.78.18-.47.3H77.38l-.47.36H75.59l-.61.53v.54l-.53.84-1.62.3-1,.42-.18.36H71l-1.79,1.13-.12.36H68l-1.32.66-.6.47-2.85.48-.74-2.46-1.31-2.33L59.4,42.72l-1.38-1V40l-.42-2-1.31-3-.89.6-2,1.43.24-1.38,1.07-3.29L56,30.53l1.61-1.74V27.36l-1.19-.77h-1.2L53.66,25.2l-1.32-1.43-1.76-1.43.21-1.19-.42-1.55,1.25.39.48,1.41V22l2.27.6,1.07,1.26.89.89v1.08h1.08l.54.47,1.61,2.45.89.61v.77L61.6,31.3v1l2.21-.3v1l.66.83.47,1.14,1.2-.42,1.19.78,1.73.89H70.5L71,37l1.2.35,1.14.72,1.37.42a4.37,4.37,0,0,0,.72.84,8.39,8.39,0,0,1,1.08,1l.47.84,2,.53Z"/><path class="cls-13" d="M63.23,50.85l-1.39.23H57.42l-2.87.72-2.64-.47-3.1.06-1.5.06L43,51.8l-1.73-.3s-1.67-.24-1.85-.3-1.85-.12-2-.12L35.91,51,34,50.66l-2.57-.84-1.84-.24-1.68.24-1.19-.42-1.62-1.07a11.64,11.64,0,0,1-1.61.18c-.18-.06-1.55-.6-1.55-.6l-1.73.18L20,47.55l-1.31.12L18,47l1.08-.19L20,46.6l-1.49-.42-1.61-.12H15.23l-1.55-.42-.3-.47v-.48l.3-.3L14.82,44A8.68,8.68,0,0,1,16,43.61c.19,0,.84-.54.84-.54V41.94l1.73-.65V39.61l1.92-.89L22,37.22l1.68-.54,1.85-2.33,1.79-.42L28.62,33l1.43-1.68.72-.66,1.43-.6,1.37-1.91,2-.84,1.8-1.19.53-1.32L39,24.13l.9-.47.53-2.09L41.7,21l.89-.72.54-.78h1.14l.47-.83,1.2-.42h.84l.42.89.89-.18.65.72,1,.83.66-.89.42,1.55-.21,1.19,1.76,1.43,1.32,1.43,1.55,1.38h1.2l1.19.77v1.43L56,30.53l-1.26,1.84-1.07,3.29L53.42,37l2-1.43.89-.6,1.31,3L58,40v1.67l1.38,1,1.79,3.34,1.31,2.33Z"/></g><polyline class="cls-14" points="46.79 18.22 46.28 19 46.73 20.97 45.65 19.98 45.53 20.79 44.99 20.25 44.99 20.97 44.99 23.21 45.59 24.13 46.37 23 47.56 22.28 48.1 21.74 47.86 20.25 48.1 18.94"/><polygon class="cls-15" points="26.83 44.92 27.79 43.85 28.32 42.72 27.58 42.36 26.83 43.64 25.99 43.13 25.04 43.91 24.5 44.45 24.5 45.16 26.41 45.16 26.83 44.92"/><polygon class="cls-16" points="43.62 34.59 42.87 33.57 40.99 34.47 40.33 35.37 43.62 34.59"/><polygon class="cls-17" points="47.17 31.54 48.94 29.68 48.64 27.84 49.59 28.38 50.73 27.84 50.73 26.58 48.95 26.11 50.37 25.15 50.37 24.13 51.56 25.57 52.34 27.06 53.48 28.85 52.4 29.68 51.27 30.59 49.83 30.59 48.58 31.54 47.17 31.54"/><polygon class="cls-18" points="45.41 44.39 47.68 42.89 47.44 42.36 45.95 42.59 45.41 43.76 45.41 44.39"/><polygon class="cls-19" points="48.94 42.89 50.07 43.37 51.38 43.76 52.16 44.39 53.12 46 52.82 46.78 51.03 45.58 49.29 45.64 47.68 46.3 48.82 44.84 48.94 42.89"/><polygon class="cls-20" points="47.17 49.7 44.99 48.87 45.77 48.09 46.55 47.73 47.68 48.51 48.34 49.17 47.17 49.7"/><polygon class="cls-21" points="29.1 38.29 30.77 37.7 31.55 36.86 32.03 35.69 31.07 34.47 30.06 33.57 29.52 34.47 30.11 36.2 29.1 37.46 27.91 37.7 27.19 38.29 29.1 38.29"/><path class="cls-22" d="M15,45.43h-.87l-.37.44a2.56,2.56,0,0,0,1.25,0Z"/><path class="cls-23" d="M13.56,45.94l-.81-.18-.25-.26c.25.26.81,0,.81,0l.63.44Z"/><path class="cls-24" d="M18.77,46.27l-1.06-.14-.62.4-.37.25,1-.18C18.46,46.18,18.77,46.27,18.77,46.27Z"/><path class="cls-25" d="M24.5,48.42l-.72.09a2.89,2.89,0,0,1-.69.21H21.15l.3.43a5,5,0,0,1,1.38,0c.2.13.39-.12.76,0a2.31,2.31,0,0,0,.91,0c.46-.16.59-.86.59-.86Z"/><path class="cls-26" d="M15.33,47.73"/><path class="cls-27" d="M13.19,45.16l-.6-.33s-.37.24-.5.16a5.07,5.07,0,0,0-.87-.16L11,45l-1.54-.16L9.13,45s.5.56.71.43.5,0,.63,0,.56.09.7,0a5.34,5.34,0,0,1,.72-.26l1,.26Z"/><polygon class="cls-28" points="13.94 44.39 13.19 44.39 12.75 44.39 11.75 44.39 12.59 44.84 13.19 44.61 13.94 44.39"/><path class="cls-29" d="M28.32,50.15H27.19s.05.25.18.25a5,5,0,0,0,.78,0C28.31,50.35,28.32,50.15,28.32,50.15Z"/><ellipse class="cls-30" cx="26.21" cy="49.93" rx="0.45" ry="0.22"/><ellipse class="cls-31" cx="25.09" cy="49.93" rx="1.09" ry="0.11"/><path class="cls-32" d="M30.58,49.51s-.43.28-.54.2-.44.22-.44.22a4.24,4.24,0,0,0,.49.22,2.84,2.84,0,0,0,.49,0v-.64Z"/><polygon class="cls-33" points="31.42 50.28 30.84 50.41 30.59 50.41 31 50.85 31.42 50.85 31.67 50.56 31.42 50.28"/><path class="cls-34" d="M29.61,50.28l-.36.28-.29.28s.46.13.65,0a4.72,4.72,0,0,1,.49-.28Z"/><polygon class="cls-35" points="33 50.59 32.46 50.85 33 50.91 33 50.59"/><path class="cls-36" d="M69.8,50.15h1.14s-.05.25-.18.25a5,5,0,0,1-.78,0C69.81,50.35,69.8,50.15,69.8,50.15Z"/><ellipse class="cls-37" cx="71.91" cy="49.93" rx="0.45" ry="0.22"/><ellipse class="cls-38" cx="73.03" cy="49.93" rx="1.09" ry="0.11"/><path class="cls-39" d="M67.54,49.51s.43.28.54.2.44.22.44.22a4.24,4.24,0,0,1-.49.22,2.84,2.84,0,0,1-.49,0v-.64Z"/><polygon class="cls-40" points="66.71 50.28 67.29 50.41 67.54 50.41 67.13 50.85 66.71 50.85 66.46 50.56 66.71 50.28"/><path class="cls-41" d="M68.52,50.28l.36.28.29.28s-.46.13-.65,0a4.72,4.72,0,0,0-.49-.28Z"/><polygon class="cls-42" points="65.13 50.59 65.67 50.85 65.13 50.91 65.13 50.59"/><path class="cls-43" d="M74,49.41h1.14s-.05.25-.18.25a5,5,0,0,1-.78,0C74,49.62,74,49.41,74,49.41Z"/><ellipse class="cls-44" cx="76.07" cy="49.19" rx="0.45" ry="0.22"/><ellipse class="cls-45" cx="77.19" cy="49.19" rx="1.09" ry="0.11"/><path class="cls-46" d="M71.7,48.77s.43.28.54.2.44.22.44.22a4.24,4.24,0,0,1-.49.22,2.84,2.84,0,0,1-.49,0v-.64Z"/><polygon class="cls-47" points="70.86 49.54 71.44 49.68 71.69 49.68 71.28 50.11 70.86 50.11 70.61 49.83 70.86 49.54"/><path class="cls-48" d="M72.67,49.54l.36.28.29.28s-.46.13-.65,0a4.72,4.72,0,0,0-.49-.28Z"/><polygon class="cls-49" points="69.28 49.86 69.82 50.11 69.28 50.17 69.28 49.86"/></g></g></svg>