<svg xmlns="http://www.w3.org/2000/svg" xmlns:xlink="http://www.w3.org/1999/xlink" viewBox="0 0 71.37 69.51"><defs><style>.cls-1{fill:url(#linear-gradient);}.cls-2,.cls-6,.cls-8,.cls-9{fill:none;stroke:#fff;stroke-miterlimit:10;}.cls-2{stroke-width:0.82px;}.cls-3{fill:url(#linear-gradient-2);}.cls-4{fill:#fff;}.cls-5{fill:url(#linear-gradient-3);}.cls-6{stroke-width:0.91px;}.cls-7{fill:#328dc7;}.cls-8{stroke-width:1.12px;}.cls-9{stroke-width:0.99px;}</style><linearGradient id="linear-gradient" x1="10.39" y1="62.48" x2="38.65" y2="62.48" gradientUnits="userSpaceOnUse"><stop offset="0" stop-color="#d9f0ff" stop-opacity="0.2"/><stop offset="1" stop-color="#007fcf"/></linearGradient><linearGradient id="linear-gradient-2" x1="140.24" y1="-17.89" x2="131.94" y2="9.66" gradientTransform="translate(-106.21 40.64)" xlink:href="#linear-gradient"/><linearGradient id="linear-gradient-3" x1="52.54" y1="32.82" x2="38.12" y2="80.7" xlink:href="#linear-gradient"/></defs><title>heroin-needle</title><g id="Layer_2" data-name="Layer 2"><g id="DG"><rect class="cls-1" x="1.91" y="61.87" width="31.36" height="1.21"/><rect class="cls-2" x="7.36" y="25.39" width="47.94" height="12.68" transform="translate(-13.26 31.44) rotate(-45)"/><rect class="cls-2" x="9.49" y="44.36" width="5.72" height="12.68" transform="translate(56.94 77.82) rotate(135)"/><rect class="cls-2" x="-0.64" y="56.33" width="12.85" height="1.88" transform="translate(-38.8 20.86) rotate(-45)"/><rect class="cls-3" x="7.87" y="26.64" width="46.91" height="10.18" transform="translate(-13.26 31.44) rotate(-45)"/><rect class="cls-4" x="16.66" y="38.35" width="1.16" height="7.28" transform="translate(-24.64 24.49) rotate(-45)"/><rect class="cls-4" x="24.65" y="30.36" width="1.16" height="7.28" transform="translate(-16.65 27.8) rotate(-45)"/><rect class="cls-4" x="32.64" y="22.37" width="1.16" height="7.28" transform="translate(-8.66 31.11) rotate(-45)"/><rect class="cls-4" x="40.64" y="14.38" width="1.16" height="7.28" transform="translate(-0.67 34.42) rotate(-45)"/><rect class="cls-4" x="47.82" y="5.18" width="3.06" height="17.04" transform="translate(4.77 38.91) rotate(-45)"/><rect class="cls-4" x="48.61" y="6.28" width="12.45" height="3.88" transform="translate(10.25 41.18) rotate(-45)"/><rect class="cls-4" x="58.02" y="-1.5" width="1.43" height="11.64" rx="0.71" ry="0.71" transform="translate(14.14 42.8) rotate(-45)"/><rect class="cls-5" x="46.21" y="27.8" width="3.25" height="41.25"/><rect class="cls-6" x="43.93" y="26.87" width="25.06" height="42.18"/><rect class="cls-4" x="41.55" y="22.77" width="29.82" height="6.34"/><line class="cls-6" x1="43.93" y1="66.15" x2="68.99" y2="66.15"/><path class="cls-4" d="M60.47,55.57a3.17,3.17,0,0,1,1.06,6.25L56,62.76l-1.06-6.25Z"/><path class="cls-7" d="M54.95,56.51,56,62.76l-5.53.94a3.17,3.17,0,0,1-1.06-6.25Z"/><path class="cls-8" d="M54.95,56.51l5.52-.94a3.17,3.17,0,0,1,1.06,6.25L56,62.76l-5.53.94a3.17,3.17,0,0,1-1.06-6.25Z"/><line class="cls-8" x1="56.01" y1="62.76" x2="54.95" y2="56.51"/><path class="cls-4" d="M58.42,43a3.17,3.17,0,0,1,2.28,5.91l-5.22,2L53.2,45Z"/><path class="cls-8" d="M53.2,45l5.22-2a3.17,3.17,0,0,1,2.28,5.91l-5.22,2-5.23,2A3.17,3.17,0,0,1,48,47Z"/><line class="cls-8" x1="55.48" y1="50.92" x2="53.2" y2="45"/><path class="cls-4" d="M63,39a2.81,2.81,0,0,1-2.62,5L56,41.67l2.62-5Z"/><path class="cls-4" d="M58.66,36.7l-2.62,5-4.4-2.32a2.81,2.81,0,0,1,2.62-5Z"/><path class="cls-9" d="M58.66,36.7,63,39a2.81,2.81,0,0,1-2.62,5L56,41.67l-4.4-2.32a2.81,2.81,0,0,1,2.62-5Z"/><line class="cls-9" x1="56.04" y1="41.67" x2="58.66" y2="36.7"/><path class="cls-4" d="M65.68,54.16A2.81,2.81,0,0,1,62.8,59l-4.26-2.54,2.88-4.83Z"/><path class="cls-4" d="M61.41,51.62l-2.88,4.83L54.27,53.9a2.81,2.81,0,0,1,2.88-4.83Z"/><path class="cls-9" d="M61.41,51.62l4.26,2.54A2.81,2.81,0,0,1,62.8,59l-4.26-2.54L54.27,53.9a2.81,2.81,0,0,1,2.88-4.83Z"/><line class="cls-9" x1="58.54" y1="56.44" x2="61.41" y2="51.62"/></g></g></svg>