<svg xmlns="http://www.w3.org/2000/svg" xmlns:xlink="http://www.w3.org/1999/xlink" viewBox="0 0 355.91 1037.02"><defs><style>.cls-1,.cls-42,.cls-64,.cls-8{fill:none;}.cls-2{isolation:isolate;}.cls-3{clip-path:url(#clip-path);}.cls-4{opacity:0.69;}.cls-5{fill:#fff;}.cls-6{fill:url(#linear-gradient);}.cls-7{fill:url(#linear-gradient-2);}.cls-8{stroke:#328dc7;stroke-width:1.23px;}.cls-42,.cls-64,.cls-8{stroke-miterlimit:10;}.cls-9{fill:#328dc7;}.cls-10{fill:url(#linear-gradient-3);}.cls-11{fill:url(#linear-gradient-4);}.cls-12{fill:url(#linear-gradient-5);}.cls-13{opacity:0.34;}.cls-105,.cls-13,.cls-14{mix-blend-mode:multiply;}.cls-14{fill:url(#linear-gradient-6);}.cls-15{fill:url(#linear-gradient-7);}.cls-16{fill:url(#linear-gradient-8);}.cls-17{fill:url(#linear-gradient-9);}.cls-18{fill:url(#linear-gradient-10);}.cls-19{fill:url(#linear-gradient-11);}.cls-20{fill:url(#linear-gradient-12);}.cls-21{fill:url(#linear-gradient-13);}.cls-22{fill:url(#linear-gradient-14);}.cls-23{fill:url(#linear-gradient-15);}.cls-24{fill:url(#linear-gradient-16);}.cls-25{fill:url(#linear-gradient-17);}.cls-26{fill:url(#linear-gradient-18);}.cls-27{fill:url(#linear-gradient-19);}.cls-28{fill:url(#linear-gradient-20);}.cls-29{fill:url(#linear-gradient-21);}.cls-30{fill:#28709e;}.cls-31{fill:url(#linear-gradient-22);}.cls-32{fill:url(#linear-gradient-23);}.cls-33{fill:url(#linear-gradient-24);}.cls-34{fill:url(#linear-gradient-25);}.cls-35{fill:url(#linear-gradient-26);}.cls-36{fill:url(#linear-gradient-27);}.cls-37{fill:url(#linear-gradient-28);}.cls-38{fill:#226087;}.cls-39{fill:#2b88c4;}.cls-40{fill:url(#linear-gradient-29);}.cls-41{fill:url(#linear-gradient-30);}.cls-42{stroke:#2b79ab;stroke-width:1.01px;}.cls-43{fill:url(#linear-gradient-31);}.cls-44{fill:url(#linear-gradient-32);}.cls-45{fill:url(#linear-gradient-33);}.cls-46{fill:url(#linear-gradient-34);}.cls-47{fill:url(#linear-gradient-35);}.cls-48{fill:url(#linear-gradient-36);}.cls-49{fill:url(#linear-gradient-37);}.cls-50{fill:url(#linear-gradient-38);}.cls-51{fill:url(#linear-gradient-39);}.cls-52{fill:url(#linear-gradient-40);}.cls-53{fill:url(#linear-gradient-41);}.cls-54{fill:url(#linear-gradient-42);}.cls-55{fill:url(#linear-gradient-43);}.cls-56{fill:url(#linear-gradient-44);}.cls-57{opacity:0.65;}.cls-58{fill:url(#linear-gradient-45);}.cls-59{fill:url(#linear-gradient-46);}.cls-60{fill:url(#linear-gradient-47);}.cls-61{fill:url(#linear-gradient-48);}.cls-62{fill:url(#linear-gradient-49);}.cls-63{fill:url(#linear-gradient-50);}.cls-64{stroke:#f5f255;}.cls-65,.cls-70{opacity:0.4;mix-blend-mode:color;}.cls-65{fill:url(#linear-gradient-51);}.cls-66{fill:url(#linear-gradient-52);}.cls-67{fill:url(#linear-gradient-53);}.cls-68{fill:url(#linear-gradient-54);}.cls-69{fill:url(#linear-gradient-55);}.cls-70{fill:url(#linear-gradient-56);}.cls-71,.cls-72,.cls-73,.cls-76,.cls-77,.cls-80,.cls-81,.cls-84,.cls-85,.cls-88,.cls-89,.cls-92,.cls-93,.cls-96,.cls-97{mix-blend-mode:hard-light;}.cls-71{fill:url(#radial-gradient);}.cls-72{fill:url(#radial-gradient-2);}.cls-73{fill:url(#radial-gradient-3);}.cls-74{fill:url(#linear-gradient-57);}.cls-75{fill:url(#linear-gradient-58);}.cls-76{fill:url(#radial-gradient-4);}.cls-77{fill:url(#radial-gradient-5);}.cls-78{fill:url(#linear-gradient-59);}.cls-79{fill:url(#linear-gradient-60);}.cls-80{fill:url(#radial-gradient-6);}.cls-81{fill:url(#radial-gradient-7);}.cls-82{fill:url(#linear-gradient-61);}.cls-83{fill:url(#linear-gradient-62);}.cls-84{fill:url(#radial-gradient-8);}.cls-85{fill:url(#radial-gradient-9);}.cls-86{fill:url(#linear-gradient-63);}.cls-87{fill:url(#linear-gradient-64);}.cls-88{fill:url(#radial-gradient-10);}.cls-89{fill:url(#radial-gradient-11);}.cls-90{fill:url(#linear-gradient-65);}.cls-91{fill:url(#linear-gradient-66);}.cls-92{fill:url(#radial-gradient-12);}.cls-93{fill:url(#radial-gradient-13);}.cls-94{fill:url(#linear-gradient-67);}.cls-95{fill:url(#linear-gradient-68);}.cls-96{fill:url(#radial-gradient-14);}.cls-97{fill:url(#radial-gradient-15);}.cls-98{fill:url(#linear-gradient-69);}.cls-99{fill:url(#linear-gradient-70);}.cls-100{fill:#ff7681;}.cls-101{fill:url(#radial-gradient-16);}.cls-102{fill:url(#radial-gradient-17);}.cls-103{fill:url(#radial-gradient-18);}.cls-104{fill:url(#radial-gradient-19);}.cls-105{opacity:0.6;}.cls-106{fill:#222a35;}.cls-107{fill:#c33;}.cls-108{fill:#fafafa;}.cls-109{fill:#e6ff5b;}.cls-110{fill:#45471e;}</style><clipPath id="clip-path" transform="translate(-20.62 -14.28)"><polygon class="cls-1" points="406.27 641.51 1.55 641.51 0 0 406.22 0 406.27 641.51"/></clipPath><linearGradient id="linear-gradient" x1="197.85" y1="238.73" x2="197.85" y2="113.32" gradientUnits="userSpaceOnUse"><stop offset="0.34" stop-color="#fff"/><stop offset="0.79" stop-color="#328dc7"/></linearGradient><linearGradient id="linear-gradient-2" x1="110.58" y1="593.02" x2="152.81" y2="773.3" gradientUnits="userSpaceOnUse"><stop offset="0.34" stop-color="#fff"/><stop offset="0.91" stop-color="#328dc7"/></linearGradient><linearGradient id="linear-gradient-3" x1="211.19" y1="602.43" x2="252.19" y2="777.43" xlink:href="#linear-gradient-2"/><linearGradient id="linear-gradient-4" x1="151.13" y1="69.9" x2="151.13" y2="77.89" gradientUnits="userSpaceOnUse"><stop offset="0.3" stop-color="#fff" stop-opacity="0"/><stop offset="0.32" stop-color="#f4f9fc" stop-opacity="0.06"/><stop offset="0.41" stop-color="#c1dcee" stop-opacity="0.3"/><stop offset="0.51" stop-color="#95c4e2" stop-opacity="0.52"/><stop offset="0.6" stop-color="#71b0d8" stop-opacity="0.69"/><stop offset="0.7" stop-color="#55a1d1" stop-opacity="0.83"/><stop offset="0.79" stop-color="#4296cb" stop-opacity="0.92"/><stop offset="0.89" stop-color="#368fc8" stop-opacity="0.98"/><stop offset="1" stop-color="#328dc7"/></linearGradient><linearGradient id="linear-gradient-5" x1="244.93" y1="67.81" x2="244.93" y2="74.3" xlink:href="#linear-gradient-4"/><linearGradient id="linear-gradient-6" x1="197.68" y1="93.5" x2="197.68" y2="187" gradientUnits="userSpaceOnUse"><stop offset="0.3" stop-color="#fff" stop-opacity="0"/><stop offset="0.4" stop-color="#c4d4de" stop-opacity="0.27"/><stop offset="0.51" stop-color="#8aa9bd" stop-opacity="0.53"/><stop offset="0.63" stop-color="#5c87a3" stop-opacity="0.74"/><stop offset="0.75" stop-color="#3b6f91" stop-opacity="0.88"/><stop offset="0.87" stop-color="#276186" stop-opacity="0.97"/><stop offset="1" stop-color="#215c82"/></linearGradient><linearGradient id="linear-gradient-7" x1="151.66" y1="51.13" x2="145.29" y2="130.07" gradientUnits="userSpaceOnUse"><stop offset="0" stop-color="#fff"/><stop offset="1" stop-color="#328dc7"/></linearGradient><linearGradient id="linear-gradient-8" x1="151.48" y1="104.4" x2="151.48" y2="86.2" gradientUnits="userSpaceOnUse"><stop offset="0" stop-color="#92c3e1" stop-opacity="0"/><stop offset="1" stop-color="#328dc7"/></linearGradient><linearGradient id="linear-gradient-9" x1="146.58" y1="90.15" x2="146.58" y2="81.49" xlink:href="#linear-gradient-8"/><linearGradient id="linear-gradient-10" x1="148.44" y1="107.68" x2="148.44" y2="99.99" xlink:href="#linear-gradient-8"/><linearGradient id="linear-gradient-11" x1="-2032" y1="51.13" x2="-2038.36" y2="130.07" gradientTransform="matrix(-1, 0, 0, 1, -1789.92, 0)" xlink:href="#linear-gradient-7"/><linearGradient id="linear-gradient-12" x1="-2032.17" y1="104.4" x2="-2032.17" y2="86.2" gradientTransform="matrix(-1, 0, 0, 1, -1789.92, 0)" xlink:href="#linear-gradient-8"/><linearGradient id="linear-gradient-13" x1="-2037.08" y1="90.15" x2="-2037.08" y2="81.49" gradientTransform="matrix(-1, 0, 0, 1, -1789.92, 0)" xlink:href="#linear-gradient-8"/><linearGradient id="linear-gradient-14" x1="-2035.21" y1="107.68" x2="-2035.21" y2="99.99" gradientTransform="matrix(-1, 0, 0, 1, -1789.92, 0)" xlink:href="#linear-gradient-8"/><linearGradient id="linear-gradient-15" x1="227.06" y1="210.66" x2="232.76" y2="122.3" gradientUnits="userSpaceOnUse"><stop offset="0" stop-color="#fff"/><stop offset="0.12" stop-color="#eef6fa"/><stop offset="0.35" stop-color="#c3deef"/><stop offset="0.54" stop-color="#9cc8e4"/><stop offset="0.84" stop-color="#57a2d1"/><stop offset="1" stop-color="#328dc7"/></linearGradient><linearGradient id="linear-gradient-16" x1="150.86" y1="153.44" x2="173.69" y2="107.78" xlink:href="#linear-gradient-15"/><linearGradient id="linear-gradient-17" x1="197.97" y1="133.34" x2="197.97" y2="6" gradientUnits="userSpaceOnUse"><stop offset="0" stop-color="#fff"/><stop offset="0.01" stop-color="#fbfdfe"/><stop offset="0.11" stop-color="#d9eaf5"/><stop offset="0.21" stop-color="#bedbed"/><stop offset="0.32" stop-color="#abd0e8"/><stop offset="0.42" stop-color="#a0cae5"/><stop offset="0.54" stop-color="#9cc8e4"/><stop offset="0.84" stop-color="#57a2d1"/><stop offset="1" stop-color="#328dc7"/></linearGradient><linearGradient id="linear-gradient-18" x1="197.44" y1="105.79" x2="197.44" y2="119.51" xlink:href="#linear-gradient-8"/><linearGradient id="linear-gradient-19" x1="189.96" y1="82.45" x2="189.96" y2="121.9" xlink:href="#linear-gradient-8"/><linearGradient id="linear-gradient-20" x1="205.51" y1="82.24" x2="205.51" y2="121.96" xlink:href="#linear-gradient-8"/><linearGradient id="linear-gradient-21" x1="202.92" y1="46.87" x2="197.53" y2="106.92" gradientUnits="userSpaceOnUse"><stop offset="0.35" stop-color="#fff" stop-opacity="0"/><stop offset="0.38" stop-color="#f1f7fb" stop-opacity="0.07"/><stop offset="0.47" stop-color="#c9e1f0" stop-opacity="0.26"/><stop offset="0.57" stop-color="#a8cee7" stop-opacity="0.42"/><stop offset="0.67" stop-color="#8fc0e0" stop-opacity="0.55"/><stop offset="0.77" stop-color="#7cb6db" stop-opacity="0.64"/><stop offset="0.87" stop-color="#72b0d8" stop-opacity="0.69"/><stop offset="0.98" stop-color="#6eaed7" stop-opacity="0.71"/></linearGradient><linearGradient id="linear-gradient-22" x1="164.49" y1="54.94" x2="181.71" y2="92.91" xlink:href="#linear-gradient-4"/><linearGradient id="linear-gradient-23" x1="174.97" y1="59.43" x2="185.54" y2="82.74" xlink:href="#linear-gradient-4"/><linearGradient id="linear-gradient-24" x1="-3410.41" y1="54.94" x2="-3393.18" y2="92.91" gradientTransform="matrix(-1, 0, 0, 1, -3180.38, 0)" xlink:href="#linear-gradient-4"/><linearGradient id="linear-gradient-25" x1="-3399.92" y1="59.43" x2="-3389.36" y2="82.74" gradientTransform="matrix(-1, 0, 0, 1, -3180.38, 0)" xlink:href="#linear-gradient-4"/><linearGradient id="linear-gradient-26" x1="173.87" y1="107.17" x2="173.87" y2="68.27" xlink:href="#linear-gradient-8"/><linearGradient id="linear-gradient-27" x1="174.39" y1="95.95" x2="174.39" y2="87.25" xlink:href="#linear-gradient-8"/><linearGradient id="linear-gradient-28" x1="175.9" y1="88.21" x2="175.9" y2="80.34" gradientUnits="userSpaceOnUse"><stop offset="0" stop-color="#bdd3e1" stop-opacity="0.5"/><stop offset="1" stop-color="#328dc7"/></linearGradient><linearGradient id="linear-gradient-29" x1="196.76" y1="124.68" x2="196.76" y2="164.91" xlink:href="#linear-gradient-7"/><linearGradient id="linear-gradient-30" x1="198.98" y1="158.74" x2="198.08" y2="145.11" gradientUnits="userSpaceOnUse"><stop offset="0" stop-color="#fff"/><stop offset="0.32" stop-color="#bddaed"/><stop offset="0.89" stop-color="#499acd"/><stop offset="1" stop-color="#328dc7"/></linearGradient><linearGradient id="linear-gradient-31" x1="-2027.96" y1="107.17" x2="-2027.96" y2="68.27" gradientTransform="matrix(-1, 0, 0, 1, -1807.79, 0)" xlink:href="#linear-gradient-8"/><linearGradient id="linear-gradient-32" x1="-2027.44" y1="95.95" x2="-2027.44" y2="87.25" gradientTransform="matrix(-1, 0, 0, 1, -1807.79, 0)" xlink:href="#linear-gradient-8"/><linearGradient id="linear-gradient-33" x1="-2025.93" y1="88.21" x2="-2025.93" y2="80.34" gradientTransform="matrix(-1, 0, 0, 1, -1807.79, 0)" xlink:href="#linear-gradient-28"/><linearGradient id="linear-gradient-34" x1="197.97" y1="113.86" x2="197.97" y2="185.63" xlink:href="#linear-gradient-4"/><linearGradient id="linear-gradient-35" x1="142.12" y1="210.79" x2="70.75" y2="338.76" gradientUnits="userSpaceOnUse"><stop offset="0.34" stop-color="#fff"/><stop offset="1" stop-color="#b5d6eb"/></linearGradient><linearGradient id="linear-gradient-36" x1="382.66" y1="148.05" x2="270.06" y2="349.94" xlink:href="#linear-gradient-35"/><linearGradient id="linear-gradient-37" x1="-3628.55" y1="462.61" x2="-3648.23" y2="486.8" gradientTransform="matrix(-1, -0.07, -0.07, 1, -3535.37, -119.75)" gradientUnits="userSpaceOnUse"><stop offset="0" stop-color="#e3f0f7"/><stop offset="1" stop-color="#328dc7"/></linearGradient><linearGradient id="linear-gradient-38" x1="-3619.45" y1="454.79" x2="-3663.33" y2="485.96" xlink:href="#linear-gradient-37"/><linearGradient id="linear-gradient-39" x1="69.16" y1="436.3" x2="-160.17" y2="692.3" xlink:href="#linear-gradient"/><linearGradient id="linear-gradient-40" x1="317.37" y1="421.39" x2="122.64" y2="638.77" xlink:href="#linear-gradient"/><linearGradient id="linear-gradient-41" x1="321.73" y1="591.99" x2="321.73" y2="591.99" xlink:href="#linear-gradient"/><linearGradient id="linear-gradient-42" x1="197.84" y1="551.17" x2="197.84" y2="551.16" xlink:href="#linear-gradient-2"/><linearGradient id="linear-gradient-43" x1="152.44" y1="208.03" x2="122.44" y2="156.03" xlink:href="#linear-gradient-35"/><linearGradient id="linear-gradient-44" x1="195.43" y1="186.28" x2="254.76" y2="184.95" xlink:href="#linear-gradient-35"/><linearGradient id="linear-gradient-45" x1="198.48" y1="203.72" x2="198.48" y2="331.93" gradientUnits="userSpaceOnUse"><stop offset="0.21" stop-color="#1b6bd1"/><stop offset="0.35" stop-color="#1e70d0" stop-opacity="0.85"/><stop offset="0.64" stop-color="#277dcc" stop-opacity="0.48"/><stop offset="1" stop-color="#328dc7" stop-opacity="0"/></linearGradient><linearGradient id="linear-gradient-46" x1="213.56" y1="318.63" x2="213.56" y2="410.36" xlink:href="#linear-gradient-45"/><linearGradient id="linear-gradient-47" x1="205.26" y1="245.05" x2="205.26" y2="299.7" xlink:href="#linear-gradient-45"/><linearGradient id="linear-gradient-48" x1="198.48" y1="35" x2="198.48" y2="114.25" xlink:href="#linear-gradient-45"/><linearGradient id="linear-gradient-49" x1="195.96" y1="505" x2="195.96" y2="241.42" xlink:href="#linear-gradient-45"/><linearGradient id="linear-gradient-50" x1="164.98" y1="318.28" x2="164.98" y2="382.46" xlink:href="#linear-gradient-45"/><linearGradient id="linear-gradient-51" x1="20.62" y1="532.79" x2="376.52" y2="532.79" gradientUnits="userSpaceOnUse"><stop offset="0.5" stop-color="#cc4949"/><stop offset="0.5" stop-color="#e6ff5b"/></linearGradient><linearGradient id="linear-gradient-52" x1="99.66" y1="747.9" x2="76.49" y2="776.37" gradientTransform="matrix(1, -0.07, 0.07, 1, 196.17, -137.33)" xlink:href="#linear-gradient-37"/><linearGradient id="linear-gradient-53" x1="110.37" y1="738.7" x2="58.72" y2="775.38" gradientTransform="matrix(1, -0.07, 0.07, 1, 196.17, -137.33)" xlink:href="#linear-gradient-37"/><linearGradient id="linear-gradient-54" x1="81.75" y1="751.14" x2="36.14" y2="832.58" gradientTransform="matrix(1, -0.07, 0.07, 1, 196.17, -137.33)" xlink:href="#linear-gradient-37"/><linearGradient id="linear-gradient-55" x1="81.2" y1="778.68" x2="119.35" y2="626.09" gradientTransform="matrix(1, -0.07, 0.07, 1, 196.17, -137.33)" xlink:href="#linear-gradient-37"/><linearGradient id="linear-gradient-56" x1="344.35" y1="612.24" x2="291.01" y2="527.58" gradientUnits="userSpaceOnUse"><stop offset="0.33" stop-color="#cc4949"/><stop offset="0.55" stop-color="#e6ff5b"/></linearGradient><radialGradient id="radial-gradient" cx="230.69" cy="116.67" r="39.67" gradientTransform="translate(461.38 298.04) rotate(180) scale(1 1.55)" gradientUnits="userSpaceOnUse"><stop offset="0" stop-color="#cc4949"/><stop offset="1" stop-color="#c2b3c4" stop-opacity="0"/></radialGradient><radialGradient id="radial-gradient-2" cx="359.96" cy="399.97" r="10.14" gradientTransform="translate(99.23 -70.65) rotate(12.99)" gradientUnits="userSpaceOnUse"><stop offset="0" stop-color="#cc4949"/><stop offset="0.57" stop-color="#c68690" stop-opacity="0.43"/><stop offset="1" stop-color="#c2b3c4" stop-opacity="0"/></radialGradient><radialGradient id="radial-gradient-3" cx="303.6" cy="410.43" fx="316.4042328274894" r="13.18" gradientTransform="matrix(-0.85, 0.52, 0.52, 0.85, 401.87, -116.25)" xlink:href="#radial-gradient-2"/><linearGradient id="linear-gradient-57" x1="354.86" y1="400.17" x2="364.78" y2="400.1" gradientUnits="userSpaceOnUse"><stop offset="0" stop-color="#cc4949"/><stop offset="0.73" stop-color="#e6ff5b"/><stop offset="1" stop-color="#c2b3c4" stop-opacity="0"/></linearGradient><linearGradient id="linear-gradient-58" x1="354.78" y1="402.51" x2="367.12" y2="397.13" xlink:href="#linear-gradient-57"/><radialGradient id="radial-gradient-4" cx="353.68" cy="393.06" r="7.78" gradientTransform="translate(97.49 -69.42) rotate(12.99)" xlink:href="#radial-gradient-2"/><radialGradient id="radial-gradient-5" cx="303.78" cy="402.83" fx="313.6131691406514" r="10.12" gradientTransform="matrix(-0.85, 0.52, 0.52, 0.85, 400.13, -115.02)" xlink:href="#radial-gradient-2"/><linearGradient id="linear-gradient-59" x1="349.76" y1="393.22" x2="357.38" y2="393.16" xlink:href="#linear-gradient-57"/><linearGradient id="linear-gradient-60" x1="349.7" y1="395.01" x2="359.18" y2="390.88" xlink:href="#linear-gradient-57"/><radialGradient id="radial-gradient-6" cx="351.4" cy="373.57" r="7.78" gradientTransform="translate(93.06 -69.41) rotate(12.99)" xlink:href="#radial-gradient-2"/><radialGradient id="radial-gradient-7" cx="291.73" cy="387.35" fx="301.55876969948906" r="10.12" gradientTransform="matrix(-0.85, 0.52, 0.52, 0.85, 395.69, -115.01)" xlink:href="#radial-gradient-2"/><linearGradient id="linear-gradient-61" x1="347.49" y1="373.73" x2="355.11" y2="373.68" xlink:href="#linear-gradient-57"/><linearGradient id="linear-gradient-62" x1="347.43" y1="375.52" x2="356.9" y2="371.39" xlink:href="#linear-gradient-57"/><radialGradient id="radial-gradient-8" cx="357.94" cy="369.71" r="3.76" gradientTransform="translate(92.32 -70.99) rotate(12.99)" xlink:href="#radial-gradient-2"/><radialGradient id="radial-gradient-9" cx="285.32" cy="392.14" r="4.88" gradientTransform="matrix(-0.85, 0.52, 0.52, 0.85, 394.96, -116.59)" xlink:href="#radial-gradient-2"/><linearGradient id="linear-gradient-63" x1="356.05" y1="369.78" x2="359.73" y2="369.76" xlink:href="#linear-gradient-57"/><linearGradient id="linear-gradient-64" x1="356.02" y1="370.65" x2="360.59" y2="368.65" xlink:href="#linear-gradient-57"/><radialGradient id="radial-gradient-10" cx="348.01" cy="391.68" r="3.76" gradientTransform="translate(97.01 -68.2) rotate(12.99)" xlink:href="#radial-gradient-2"/><radialGradient id="radial-gradient-11" cx="307.82" cy="400.83" r="4.88" gradientTransform="matrix(-0.85, 0.52, 0.52, 0.85, 399.64, -113.8)" xlink:href="#radial-gradient-2"/><linearGradient id="linear-gradient-65" x1="346.12" y1="391.76" x2="349.8" y2="391.73" xlink:href="#linear-gradient-57"/><linearGradient id="linear-gradient-66" x1="346.09" y1="392.63" x2="350.67" y2="390.63" xlink:href="#linear-gradient-57"/><radialGradient id="radial-gradient-12" cx="361.17" cy="389.11" r="5.74" gradientTransform="translate(96.78 -71.22) rotate(12.99)" xlink:href="#radial-gradient-2"/><radialGradient id="radial-gradient-13" cx="296.16" cy="406.78" fx="303.4143854006363" r="7.46" gradientTransform="matrix(-0.85, 0.52, 0.52, 0.85, 399.42, -116.82)" xlink:href="#radial-gradient-2"/><linearGradient id="linear-gradient-67" x1="358.29" y1="389.23" x2="363.91" y2="389.19" xlink:href="#linear-gradient-57"/><linearGradient id="linear-gradient-68" x1="358.24" y1="390.55" x2="365.23" y2="387.5" xlink:href="#linear-gradient-57"/><radialGradient id="radial-gradient-14" cx="348.83" cy="382.89" r="5.74" gradientTransform="translate(95.07 -68.6) rotate(12.99)" xlink:href="#radial-gradient-2"/><radialGradient id="radial-gradient-15" cx="300.59" cy="393.68" fx="307.83972777307633" r="7.46" gradientTransform="matrix(-0.85, 0.52, 0.52, 0.85, 397.71, -114.2)" xlink:href="#radial-gradient-2"/><linearGradient id="linear-gradient-69" x1="345.94" y1="383" x2="351.56" y2="382.96" xlink:href="#linear-gradient-57"/><linearGradient id="linear-gradient-70" x1="345.89" y1="384.33" x2="352.88" y2="381.28" xlink:href="#linear-gradient-57"/><radialGradient id="radial-gradient-16" cx="300.22" cy="207.91" fx="307.5624673492719" r="7.56" gradientTransform="matrix(0.36, -0.93, -0.93, -0.36, 388.35, 567.68)" xlink:href="#radial-gradient-2"/><radialGradient id="radial-gradient-17" cx="302" cy="211.74" r="3.25" gradientTransform="matrix(0.36, -0.93, -0.93, -0.36, 388.35, 567.68)" gradientUnits="userSpaceOnUse"><stop offset="0" stop-color="#cc4949"/><stop offset="1" stop-color="#c68690"/></radialGradient><radialGradient id="radial-gradient-18" cx="298.33" cy="199.35" fx="306.7140778923509" r="8.62" gradientTransform="matrix(0.36, -0.93, -0.93, -0.36, 388.35, 567.68)" xlink:href="#radial-gradient-2"/><radialGradient id="radial-gradient-19" cx="299.99" cy="204.27" r="3.23" xlink:href="#radial-gradient-17"/></defs><title>alchohol-anatomy</title><g class="cls-2"><g id="Layer_2" data-name="Layer 2"><g id="ILU"><g class="cls-3"><g class="cls-3"><g class="cls-4"><polygon class="cls-5" points="161.66 618.9 177.59 603.97 195.44 612.69 195.44 515.17 153.39 515.17 161.66 618.9"/><path class="cls-6" d="M198.44,551.16c-14.76,1.23-27.68-17-33.83-26.86s-21.86-53.91-25.43-59.05C136,460.7,119.49,454,117.44,448.83s-.62-23.56-.62-23.56c1.64-9,.62-17.43,2.46-26.25s-1.85-24.2-1.85-27.89-1.44-11.48-4.2-13.84c-2.46-4.31-9.23-21.84-11.38-28S99.4,310.24,76,293s-21.84-27.07-21.84-27.07c-1.38-19.84.46-37.83,13.53-54.9s38.45-20.45,42.75-22.14,18.92-4.77,22.61-6,17.69-8.61,21.82-10.61,7.25-3.23,8.17-8.92-1.24-33-1.24-33,13.85,19.36,35.79,21.41,36.25-21.41,36.25-21.41-2.16,27.36-1.24,33,4,6.92,8.17,8.92,18.13,9.38,21.82,10.61,18.3,4.31,22.61,6S314.9,194,328,211s14.92,35.06,13.53,54.9c0,0,1.54,9.84-21.84,27.07S296,323.15,293.83,329.31s-8.92,23.68-11.38,28c-2.77,2.36-4.2,10.15-4.2,13.84s.17,17.18.17,27.62c0,12.41.47,20.89,0,33.46,0,0,1.88,12-.17,17.09s-18.45,10.61-21.73,15.94-19.27,49.21-25.43,59.05S212,552.39,197.26,551.16Z" transform="translate(-20.62 -14.28)"/><path class="cls-7" d="M147.58,1013.13s-.82-2.87-1.44-5.74-.82-15.38-.82-21.12-.6-17.35-4.57-36.41a9.27,9.27,0,0,1-.18-1.39c-1.24-22.76-13.31-66.77-14.93-86.66-1.64-20.09-2.26-55.16.21-65.61s-1.23-29.32-1.23-33.83-2.05-20.09-3.08-24.4-2.46-13.53-3.19-17.84c-13.44-27.68-19.78-76.28-20.6-94.32s3.49-81.61,5.13-90.56,5.95-56,8.41-64.45,4.1-19.68,7.07-23.5c0,0,19,11.61,22.25,19.4s30.35,66.43,35.27,70.54,13.59,12.41,13.59,12.41c4.26,15.52,7.06,51.35,7.14,64.71.11,19.91-4.71,53.9-5.49,62.54s-1,44.27-.68,50.11c.23,4.06-3,15-3.25,18.71-.29,5.13-.75,23.28-1.52,27.28s-3.38,13.38-3.69,15.53,5.69,34.29,6.61,40.91,3.54,29.22,2.92,36.75-4.31,22.91-5.38,27.53-3.54,47.06-4.92,53.21-1.54,28.76,2.15,35.52,5.54,13.61,3.08,26.84c0,0-.15,11.84-.46,13.84s1.15,16.07-2,21.91-7.61,5.31-13.38,6.15-13.61-2.38-16.92-2.92-5.31.92-8.61,1.46a34.91,34.91,0,0,1-9.92,0,17.21,17.21,0,0,1-3.61-.69,8.29,8.29,0,0,1-4.77-6.84c-.15-1.92-.15-5.61,1.38-7.61,2-2.77,6.61-5.54,10.46-7.69s5.54-7.23,7.54-9.84,2.92-9.84,7.54-14.46" transform="translate(-20.62 -14.28)"/><path class="cls-8" d="M163.68,1027.25s.08,4.08-1,5.23-1.31,2.92-2.54,4.54-1.61,5.84-.46,8.23,3.54,4.38,8.69,4.38,8.53-2.23,10.53-5.92.54-8.38.54-8.38" transform="translate(-20.62 -14.28)"/><path class="cls-9" d="M160.53,1037.63a6.3,6.3,0,0,1,5.77-2.46c3.77.46,5.84,2.15,6.23,2,1.08-1.15-.08-3.31-2.54-3.69S162.68,1032.48,160.53,1037.63Z" transform="translate(-20.62 -14.28)"/><path class="cls-8" d="M153.38,1028.1s-.38,2.69-1.38,3.69-1.23,6.15-2.08,7.38-1.77,3.92-.69,5.77,4.23,3.54,6.84,2.54,3-4.19,3-4.19" transform="translate(-20.62 -14.28)"/><path class="cls-9" d="M155.48,1042.45l-4.79-.31s-.18-2.67,1.51-3.13c3.13-.85,3.69,1.69,3.79,1.72A10.16,10.16,0,0,1,155.48,1042.45Z" transform="translate(-20.62 -14.28)"/><path class="cls-8" d="M146,1029.23a37.53,37.53,0,0,0-2.41,3.38,66.65,66.65,0,0,0-2.2,6.61,10.4,10.4,0,0,0-.62,3.95c.18,1.27.77,3.95,4.72,4s4.45-1.38,4.45-1.38" transform="translate(-20.62 -14.28)"/><path class="cls-9" d="M147,1041.73a18.74,18.74,0,0,0-4.56,0c.26-1,.77-2.91,2.61-2.89S147.28,1040.45,147,1041.73Z" transform="translate(-20.62 -14.28)"/><path class="cls-8" d="M138.25,1030.76s-1,1.61-1.64,2.47a11.18,11.18,0,0,0-1.79,3.27c-.26,1.08-.67,4.46-.21,5.95s.51,3.75,2.82,4.77,4,.56,5-.52" transform="translate(-20.62 -14.28)"/><path class="cls-9" d="M140.72,1042.45l-4.21.31a2.6,2.6,0,0,1,1-2.92c1.59-1,3.6.45,3.6.45Z" transform="translate(-20.62 -14.28)"/><path class="cls-8" d="M136.69,1046.8a5.09,5.09,0,0,1-5.74,1.94" transform="translate(-20.62 -14.28)"/><path class="cls-9" d="M133.08,1041.73s-2.51,1.18-3.28,1.69c-.87.05-.56-1.74.67-2.51A1.79,1.79,0,0,1,133.08,1041.73Z" transform="translate(-20.62 -14.28)"/><path class="cls-10" d="M247.85,1013.13s.82-2.87,1.44-5.74.82-15.38.82-21.12.6-17.35,4.57-36.41a9.27,9.27,0,0,0,.18-1.39c1.24-22.76,13.31-66.77,14.93-86.66,1.64-20.09,2.26-55.16-.21-65.61s1.23-29.32,1.23-33.83,2.05-20.09,3.08-24.4,2.46-13.53,3.19-17.84c13.44-27.68,19.78-76.28,20.6-94.32s-3.49-81.61-5.13-90.56-5.95-56-8.41-64.45-4.1-19.68-7.07-23.5c0,0-19,11.61-22.25,19.4s-30.35,66.43-35.27,70.54S206,549.63,206,549.63c-4.26,15.52-7.06,51.35-7.14,64.71-.11,19.91,4.71,53.9,5.49,62.54s1,44.27.68,50.11c-.23,4.06,3,15,3.25,18.71.29,5.13.75,23.28,1.52,27.28s3.38,13.38,3.69,15.53-5.69,34.29-6.61,40.91-3.54,29.22-2.92,36.75,4.31,22.91,5.38,27.53,3.54,47.06,4.92,53.21,1.54,28.76-2.15,35.52S206.53,996,209,1009.26c0,0,.15,11.84.46,13.84s-1.15,16.07,2,21.91,7.61,5.31,13.38,6.15,13.61-2.38,16.92-2.92,5.31.92,8.61,1.46a34.91,34.91,0,0,0,9.92,0,17.21,17.21,0,0,0,3.61-.69,8.29,8.29,0,0,0,4.77-6.84c.15-1.92.15-5.61-1.38-7.61-2-2.77-6.61-5.54-10.46-7.69s-5.54-7.23-7.54-9.84-2.92-9.84-7.54-14.46" transform="translate(-20.62 -14.28)"/><path class="cls-8" d="M231.76,1027.25s-.08,4.08,1,5.23,1.31,2.92,2.54,4.54,1.61,5.84.46,8.23-3.54,4.38-8.69,4.38-8.53-2.23-10.53-5.92-.54-8.38-.54-8.38" transform="translate(-20.62 -14.28)"/><path class="cls-9" d="M234.91,1037.63a6.3,6.3,0,0,0-5.77-2.46c-3.77.46-5.84,2.15-6.23,2-1.08-1.15.08-3.31,2.54-3.69S232.75,1032.48,234.91,1037.63Z" transform="translate(-20.62 -14.28)"/><path class="cls-8" d="M242.06,1028.1s.38,2.69,1.38,3.69,1.23,6.15,2.08,7.38,1.77,3.92.69,5.77-4.23,3.54-6.84,2.54-3-4.19-3-4.19" transform="translate(-20.62 -14.28)"/><path class="cls-9" d="M240,1042.45l4.79-.31s.18-2.67-1.51-3.13c-3.13-.85-3.69,1.69-3.79,1.72A10.16,10.16,0,0,0,240,1042.45Z" transform="translate(-20.62 -14.28)"/><path class="cls-8" d="M249.44,1029.23a37.53,37.53,0,0,1,2.41,3.38,66.65,66.65,0,0,1,2.2,6.61,10.4,10.4,0,0,1,.62,3.95c-.18,1.27-.77,3.95-4.72,4s-4.45-1.38-4.45-1.38" transform="translate(-20.62 -14.28)"/><path class="cls-9" d="M248.47,1041.73a18.74,18.74,0,0,1,4.56,0c-.26-1-.77-2.91-2.61-2.89S248.16,1040.45,248.47,1041.73Z" transform="translate(-20.62 -14.28)"/><path class="cls-8" d="M257.18,1030.76s1,1.61,1.64,2.47a11.18,11.18,0,0,1,1.79,3.27c.26,1.08.67,4.46.21,5.95s-.51,3.75-2.82,4.77-4,.56-5-.52" transform="translate(-20.62 -14.28)"/><path class="cls-9" d="M254.71,1042.45l4.21.31a2.6,2.6,0,0,0-1-2.92c-1.59-1-3.6.45-3.6.45Z" transform="translate(-20.62 -14.28)"/><path class="cls-8" d="M258.74,1046.8a5.09,5.09,0,0,0,5.74,1.94" transform="translate(-20.62 -14.28)"/><path class="cls-9" d="M262.36,1041.73s2.51,1.18,3.28,1.69c.87.05.56-1.74-.67-2.51A1.79,1.79,0,0,0,262.36,1041.73Z" transform="translate(-20.62 -14.28)"/><path class="cls-11" d="M151.35,75.16c-.43-6.37-.81-12.34-.81-13.94,0-.4,0-1.23.08-2.4.18,3.71.65,10.64,1.09,16.9Z" transform="translate(-20.62 -14.28)"/><path class="cls-12" d="M244.79,72.19c-.12.11-.23.23-.34.35.37-5.32.72-10.65.87-13.74.07,1.18.08,2,.08,2.42C245.4,62.57,245.13,67,244.79,72.19Z" transform="translate(-20.62 -14.28)"/><g class="cls-13"><path class="cls-14" d="M232.93,139.32V144c-3,4.15-6.81,9.15-10.2,13.48-3.84,4.89-7.14,8.93-8.17,10-7.22,7.21-27.68,5.51-33.19,0-1.1-1.11-4.83-5.67-9-11-3.39-4.35-7.08-9.23-9.93-13.2v-4.66Z" transform="translate(-20.62 -14.28)"/></g><g id="_Group_" data-name="&lt;Group&gt;"><path class="cls-15" d="M151.71,82.38s-3.17-5.23-7.1-6.6-3.84,6.79-3.15,10.43,3.15,9,3.25,11.41,1.38,10.43,3.64,11.91,6.69.79,6.69.79Z" transform="translate(-20.62 -14.28)"/><path class="cls-16" d="M151.71,82.38s0,4.58-1.56,6.68-2.23,7.35.26,10.1,3.8,4.33,3.8,4.33Z" transform="translate(-20.62 -14.28)"/><path class="cls-17" d="M150.54,86.83s-3.28-6.56-5.51-7.08-2.76,2.1-2.23,3.8,2.49,6.17,2.49,6.17.13-5,2-5.12S150.54,86.83,150.54,86.83Z" transform="translate(-20.62 -14.28)"/><path class="cls-18" d="M145.69,98.38a23,23,0,0,1,3,3.94l2.49,5s-3.67-3-4.33-4.59A28.3,28.3,0,0,1,145.69,98.38Z" transform="translate(-20.62 -14.28)"/><path class="cls-19" d="M242,82.38s3.17-5.23,7.1-6.6,3.84,6.79,3.15,10.43-3.15,9-3.25,11.41-1.38,10.43-3.64,11.91-6.69.79-6.69.79Z" transform="translate(-20.62 -14.28)"/><path class="cls-20" d="M242,82.38s0,4.58,1.56,6.68,2.23,7.35-.26,10.1-3.8,4.33-3.8,4.33Z" transform="translate(-20.62 -14.28)"/><path class="cls-21" d="M243.19,86.83s3.28-6.56,5.51-7.08,2.76,2.1,2.23,3.8-2.49,6.17-2.49,6.17-.13-5-2-5.12S243.19,86.83,243.19,86.83Z" transform="translate(-20.62 -14.28)"/><path class="cls-22" d="M248,98.38a23,23,0,0,0-3,3.94l-2.49,5s3.67-3,4.33-4.59A28.3,28.3,0,0,0,248,98.38Z" transform="translate(-20.62 -14.28)"/><path class="cls-23" d="M242,105.35c-1.22,9.26-3,22-3.7,24.24s-9,13.33-15.59,21.79c1.66-9.86,5.79-24.23,8.56-27.5C233.44,121.37,238.61,111.83,242,105.35Z" transform="translate(-20.62 -14.28)"/><path class="cls-24" d="M164,123.89c2.68,3.15,6.61,16.62,8.38,26.42-6.45-8.29-14-18.47-14.74-20.71s-2.28-13.53-3.49-22.59C157.5,113.35,162,121.57,164,123.89Z" transform="translate(-20.62 -14.28)"/><path class="cls-25" d="M245.4,63.22c0,3.8-2.1,32.14-2.1,32.14s-.54,4.37-1.28,10c-3.41,6.48-8.57,16-10.72,18.54-2.78,3.27-6.9,17.63-8.56,27.5-3.83,4.9-7.14,8.93-8.16,10-7.22,7.22-27.68,5.51-33.19,0-1.1-1.1-4.83-5.67-9-11-1.76-9.8-5.7-23.27-8.38-26.42-2-2.32-6.49-10.54-9.85-16.88-.85-6.41-1.5-11.65-1.5-11.65S150.55,67,150.55,63.22s1-45.4,37.78-48.54l8.39-.39,10.89.39C244.34,17.82,245.4,59.41,245.4,63.22Z" transform="translate(-20.62 -14.28)"/></g><g id="_Group_2" data-name="&lt;Group&gt;"><path class="cls-26" d="M204.12,117.68c2.1-.49,5.33,1,5.33,1l.09,0c-1.39,3.81-5.12,4.88-8.26,5.57l-1.18.79h-5.31l-1.18-.79c-3.15-.68-6.9-1.77-8.27-5.61,0,0,3.64-1.67,5.7-.88l.39.17c2,.92,4.23,3.08,5.61,3.08h.68c1.48,0,3.94-2.46,6-3.24A1.91,1.91,0,0,1,204.12,117.68Z" transform="translate(-20.62 -14.28)"/><path class="cls-27" d="M191.9,85.46c1.9,5.75,3.35,24.06,2.89,27a10.68,10.68,0,0,1-2.86,5.41l-.5.07-.39-.17c-2.06-.79-5.7.88-5.7.88-1.39-3.83,2.36-7.38,3.94-10.52S190.75,89,190.75,89A5.93,5.93,0,0,1,191.9,85.46Z" transform="translate(-20.62 -14.28)"/><path class="cls-28" d="M209.54,118.68v0l-.09,0s-3.23-1.49-5.33-1a10.64,10.64,0,0,1-2.65-5.2c-.46-3-.57-21.68,1.2-27.2A4.28,4.28,0,0,1,204.14,89s-.1,16,1.47,19.19S210.92,114.84,209.54,118.68Z" transform="translate(-20.62 -14.28)"/><path class="cls-29" d="M204.12,117.68a1.91,1.91,0,0,0-.38.11c-2.06.79-4.53,3.24-6,3.24h-.68c-1.38,0-3.63-2.16-5.61-3.08l.5-.07a10.68,10.68,0,0,0,2.86-5.41c.46-3-1-21.28-2.89-27a5.38,5.38,0,0,1,4.56-1.9c3.24,0,5.12.77,6.21,1.72-1.78,5.53-1.67,24.21-1.2,27.2A10.64,10.64,0,0,0,204.12,117.68Z" transform="translate(-20.62 -14.28)"/></g><path class="cls-30" d="M194.1,122.06s-2.23-2.43-3.61-2.36-1.25,1.64.13,2.16a11.06,11.06,0,0,0,3,.59Z" transform="translate(-20.62 -14.28)"/><path class="cls-30" d="M200.05,122.06s2.23-2.43,3.61-2.36,1.25,1.64-.13,2.16a11.06,11.06,0,0,1-3,.59Z" transform="translate(-20.62 -14.28)"/><path class="cls-31" d="M186,72.9l3.54,7.57-.78,9.61A12.05,12.05,0,0,0,182,84.15c-5-1.83-18.71-2.34-18.71-2.34L178,80.63,184,77l-1.07-5.07Z" transform="translate(-20.62 -14.28)"/><path class="cls-32" d="M185.35,75.13l3.37,5.7L187.22,87a8.64,8.64,0,0,0-7.36-7.89h4Z" transform="translate(-20.62 -14.28)"/><path class="cls-33" d="M208.55,72.9,205,80.46l.78,9.61a12.05,12.05,0,0,1,6.77-5.93c5-1.83,18.71-2.34,18.71-2.34l-14.73-1.18-6-3.64,1.07-5.07Z" transform="translate(-20.62 -14.28)"/><path class="cls-34" d="M209.17,75.13l-3.37,5.7,1.5,6.19a8.64,8.64,0,0,1,7.36-7.89h-4Z" transform="translate(-20.62 -14.28)"/><path class="cls-35" d="M187.21,92.41s-6.49,6.4-14.76,6.79-12-7.87-12.4-8.27c-1.48-4.82,4.72-8.86,8.36-9.64s13.78,2.16,17.42,5S187.21,92.41,187.21,92.41Z" transform="translate(-20.62 -14.28)"/><path class="cls-36" d="M188.28,90.67l-4.93-3.41L170.29,86a15,15,0,0,0-10.23,4.92,35,35,0,0,0,18,3.05c3.48-.35,7.35-1.09,9.81-1.47A1,1,0,0,0,188.28,90.67Z" transform="translate(-20.62 -14.28)"/><path class="cls-37" d="M186.23,91.82l-4.92-4.66c-2.56-.79-11.32-.39-11.32-.39l-4.43,3.18A18.9,18.9,0,0,0,171,92.41c2.26.39,12.69-.39,12.69-.39Z" transform="translate(-20.62 -14.28)"/><path class="cls-38" d="M167.8,88.47a5.47,5.47,0,0,0,3.94,3.87s-4.26-.52-6.36-2.62Z" transform="translate(-20.62 -14.28)"/><path class="cls-38" d="M179.34,88.93c0,1.78-1.75,3.21-3.9,3.21s-3.9-1.44-3.9-3.21,1.75-2.56,3.9-2.56S179.34,87.15,179.34,88.93Z" transform="translate(-20.62 -14.28)"/><polygon class="cls-38" points="145.21 76.16 149.74 73.47 159.38 73.21 165.81 77.47 161.02 72.48 149.15 71.83 144.16 74.91 143.44 75.57 145.21 76.16"/><polygon class="cls-39" points="162.66 75.31 163.19 76.75 160.5 77.93 166.01 77.53 162.66 75.31"/><path class="cls-38" d="M184.6,77.62,170,77.73l-4.84.13L163.39,79l-5.61,5,.5,3,7.38-5s18.29-1.67,18.45-1.73A16.61,16.61,0,0,0,184.6,77.62Z" transform="translate(-20.62 -14.28)"/><polygon class="cls-38" points="163.99 63.34 162.82 62.11 162.98 62.89 161.23 62.38 161.91 63.03 158.5 62.61 159.97 63.3 156.59 63.29 159.24 64.85 163.99 63.34"/><polyline class="cls-38" points="142.62 65.24 139.39 66.51 139.92 66.79 137.61 68.26 138.44 68.22 136.58 69.58 137.38 69.48 136.5 73.35 137.38 72.16 137.15 73.73 140.14 70.58 142.43 65.46"/><polygon class="cls-38" points="143.41 68.88 147.4 68.09 146.03 67.99 149.87 67.9 149.08 67.5 154.17 66.84 148.84 66.18 144.83 66.91 143.41 68.88"/><path class="cls-40" d="M209.54,137.18l1.58,0v.13l-3.64,5a19.6,19.6,0,0,1-5.51,2.16H191.54a19.7,19.7,0,0,1-5.51-2.17l-3.64-5v-.16l2.66.06,4.23-1.47h2.65s2.86,1.68,4.43,1.77h1.87c1.57-.1,4.43-1.77,4.43-1.77h2.65Z" transform="translate(-20.62 -14.28)"/><path class="cls-41" d="M206.1,132.94l7.48,3.83v.31l-2.46.06-1.58,0-4.23-1.48h-2.65s-2.86,1.67-4.43,1.77h-1.87c-1.57-.09-4.43-1.77-4.43-1.77h-2.65L185,137.17l-2.66-.06-.89,0v-.32l7.48-3.83,2.76-1.28h2a17.79,17.79,0,0,0,3.45,1.78h.78a17.66,17.66,0,0,0,3.45-1.77h2Z" transform="translate(-20.62 -14.28)"/><path class="cls-42" d="M214.07,137.08h-.48l-2.46.06-1.58,0-4.23-1.48h-2.65s-2.86,1.67-4.43,1.77h-1.87c-1.57-.09-4.43-1.77-4.43-1.77h-2.65L185,137.17l-2.66-.06-.89,0-1,0" transform="translate(-20.62 -14.28)"/><path class="cls-43" d="M206.83,92.41s6.49,6.4,14.76,6.79,12-7.87,12.4-8.27c1.48-4.82-4.72-8.86-8.36-9.64s-13.78,2.16-17.42,5S206.83,92.41,206.83,92.41Z" transform="translate(-20.62 -14.28)"/><path class="cls-44" d="M205.76,90.67l4.93-3.41L223.75,86A15,15,0,0,1,234,90.93,35,35,0,0,1,216,94c-3.48-.35-7.35-1.09-9.81-1.47A1,1,0,0,1,205.76,90.67Z" transform="translate(-20.62 -14.28)"/><path class="cls-45" d="M207.81,91.82l4.92-4.66c2.56-.79,11.32-.39,11.32-.39l4.43,3.18a18.9,18.9,0,0,1-5.41,2.46c-2.26.39-12.69-.39-12.69-.39Z" transform="translate(-20.62 -14.28)"/><path class="cls-38" d="M226.24,88.47a5.47,5.47,0,0,1-3.94,3.87s4.26-.52,6.36-2.62Z" transform="translate(-20.62 -14.28)"/><path class="cls-38" d="M214.7,88.93c0,1.78,1.75,3.21,3.9,3.21s3.9-1.44,3.9-3.21-1.75-2.56-3.9-2.56S214.7,87.15,214.7,88.93Z" transform="translate(-20.62 -14.28)"/><polygon class="cls-38" points="207.59 76.16 203.07 73.47 193.43 73.21 187 77.47 191.79 72.48 203.66 71.83 208.64 74.91 209.37 75.57 207.59 76.16"/><polygon class="cls-39" points="190.15 75.31 189.62 76.75 192.31 77.93 186.8 77.53 190.15 75.31"/><path class="cls-38" d="M209.92,76.21l14.51,1.85,4.79.7,1.59,1.37,5,5.65-.85,2.9-6.73-5.87s-18-3.84-18.11-3.92A16.61,16.61,0,0,1,209.92,76.21Z" transform="translate(-20.62 -14.28)"/><polygon class="cls-38" points="189.3 61.92 190.61 60.85 190.35 61.6 192.15 61.3 191.4 61.87 194.84 61.85 193.29 62.36 196.66 62.76 193.83 63.99 189.3 61.92"/><polyline class="cls-38" points="210.29 66.35 213.35 68 212.79 68.22 214.91 69.95 214.09 69.81 215.78 71.39 214.99 71.19 215.4 75.13 214.68 73.85 214.72 75.43 212.12 71.95 210.46 66.59"/><polygon class="cls-38" points="209.07 69.87 205.2 68.61 206.58 68.68 202.78 68.13 203.61 67.83 198.63 66.57 204 66.55 207.9 67.75 209.07 69.87"/><path class="cls-46" d="M245.4,63.22c0,3.8-2.1,32.14-2.1,32.14s-.54,4.37-1.28,10c-3.41,6.48-8.57,16-10.72,18.54-2.78,3.27-6.9,17.63-8.56,27.5-3.83,4.9-7.14,8.93-8.16,10-7.22,7.22-27.68,5.51-33.19,0-1.1-1.1-4.83-5.67-9-11-1.76-9.8-5.7-23.27-8.38-26.42-2-2.32-6.49-10.54-9.85-16.88-.85-6.41-1.5-11.65-1.5-11.65S150.55,67,150.55,63.22s1-45.4,37.78-48.54l8.39-.39,10.89.39C244.34,17.82,245.4,59.41,245.4,63.22Z" transform="translate(-20.62 -14.28)"/><polygon class="cls-38" points="163.25 55.24 169.71 65.4 168.25 69.87 168.27 64.85 163.25 55.24"/><polygon class="cls-38" points="190.51 55.24 183.3 65.4 184.76 69.87 184.75 64.85 190.51 55.24"/><path class="cls-47" d="M112.46,319c.42,3.77,10.29,31.34,5,52.54a3,3,0,0,1,0-.41c0-3.69-1.44-11.48-4.21-13.84-2.46-4.3-9.22-21.83-11.38-28S99.39,310.24,76,293,54.18,266,54.18,266c-.32-4.57-.46-9-.34-13.42l54.56,16S112,314.5,112.46,319Z" transform="translate(-20.62 -14.28)"/><path class="cls-48" d="M341.5,266S343,275.79,319.66,293s-23.68,30.14-25.83,36.3-8.92,23.68-11.38,28c-1.69,1.44-2.88,4.89-3.55,8.2-2.44-20.07,5.72-43.07,6.1-46.49.5-4.5,4.06-50.45,4.06-50.45l52.37-22.7A120.27,120.27,0,0,1,341.5,266Z" transform="translate(-20.62 -14.28)"/><path class="cls-49" d="M31.25,599.48,49.83,628.9l21.22-7,13.19-11.15s-2.08-4.38-8.65-2-7.69,5.21-7.69,5.21-9.64-.83-13.14,2.48l-7.42-10.84S38.65,594.39,31.25,599.48Z" transform="translate(-20.62 -14.28)"/><path class="cls-50" d="M46.27,606.77,62,628.34l21.22-7L96.4,610.19s-2.08-4.38-8.65-2-7.69,5.21-7.69,5.21-9.64-.83-13.14,2.48L59.51,605S51.73,602.76,46.27,606.77Z" transform="translate(-20.62 -14.28)"/><path class="cls-51" d="M88.59,333.33c-4.24,31.28-19,67.15-19,67.15s2,27.27-1.76,32.95c2.78,22-.66,79.72-3.92,91.32S67.47,549,67.47,549l10.12,11.73s3.48,8.22,3.93,9.36,7.13,8.63,7.34,12.49,2.75,16.1,2.65,20,1.33,6.71,1.54,10,1.31,9.7,1.31,9.7c-4.33.88-14.78-3.43-14.3-8.88s-4.62-22.13-4.62-22.13l-3,9.84,1.11,8.36,5.81,11.5,6.22,7.26s7.81-2.23,8.52,5.46c-3.45,1.05-14.41,1.9-14.41,1.9l-12.12-8-9.41-19.11-1.49-2.27-20.88.47-6.14-7.84s-1.24-36.8,2.72-45.2h0a22.1,22.1,0,0,1-.39-7.13c.63-4.08-3.36-13.52-2.23-20.06-7.86-44.44-9-78.43-9.15-91.58a124.88,124.88,0,0,1,5.48-37c3.12-9.59.3-12.81,2.76-18.32s.89-20.47-.2-28.71c-.67-26.24,6.21-58.67,12-66.61s4.1-17.3,4.73-24.56c4-36.44,31.83-58.07,44.85-62.19,16.09,13,18.21,77.39,18.21,77.39l-6.89,8.29C101.11,292.16,99.35,321.14,88.59,333.33Z" transform="translate(-20.62 -14.28)"/><path class="cls-52" d="M308.31,583.33c.21-3.86,6.88-11.36,7.33-12.49s3.93-9.36,3.93-9.36l10.12-11.73s6.86-12.66,3.6-24.26-6.71-69.35-3.94-91.32c-3.76-5.68-1.76-32.95-1.76-32.95s-14.82-35.87-19.07-67.15c-10.76-12.19-12.53-41.17-12.93-50.19l-6.89-8.28s2.11-64.36,18.19-77.4c13,4.11,40.89,25.74,44.86,62.18.64,7.26-1,16.62,4.74,24.56s12.63,40.37,12,66.61c-1.08,8.24-2.66,23.19-.19,28.7S367.9,389,371,398.57a125.24,125.24,0,0,1,5.49,37c-.14,13.15-1.28,47.14-9.14,91.59,1.13,6.53-2.85,16-2.22,20.05a22.16,22.16,0,0,1-.39,7.14h0c4,8.4,2.73,45.2,2.73,45.2l-6.13,7.84" transform="translate(-20.62 -14.28)"/><path class="cls-53" d="M321.73,592" transform="translate(-20.62 -14.28)"/><path class="cls-54" d="M197.25,551.16h1.18l-.59,0Z" transform="translate(-20.62 -14.28)"/><polygon class="cls-55" points="100.09 180.72 174.72 183.18 152.31 190.15 100.09 180.72"/><polygon class="cls-56" points="259.4 180.72 184.77 183.18 207.18 190.15 259.4 180.72"/><g class="cls-57"><path class="cls-58" d="M276.1,301.28c0-.73-.06-1.4-.08-2-.12-4.11-1.49-11.36-2.49-16.64-.24-1.27-.46-2.42-.63-3.38v-.09c-.87-4.83-2.48-13.82-3.73-18.34-.39-1.42-1.18-3.53-2-5.57-.59-1.57-1.15-3.05-1.48-4.1s-.74-2.67-1.16-4.34a62.86,62.86,0,0,0-2-6.92,125.15,125.15,0,0,0-7.84-14.75c-2.91-4.67-9.45-13.58-13.12-18.12l-1.29-1.62c-2.81-3.53-7-8.86-10.07-11-2.41-1.68-8.14-4.33-11.29-4.49-2-.1-6.3.32-8,1.73-2.32,1.92-3.47,7.54-4.15,10.9l-.15.74c-.61,2.9-.67,7.14-.75,11.63s-.14,9.12-.81,12c0,.1-.07.22-.1.33l-1.26-1.66V184.86l-.33-.23c-.52-.36-3.2-2.14-4.79-2.14s-4.27,1.79-4.79,2.14l-.33.23v43.26l-.84,1.1a14.46,14.46,0,0,1-.84-2.26c-.67-2.88-.74-7.52-.81-12a70.28,70.28,0,0,0-.74-11.63l-.15-.74c-.69-3.36-1.83-9-4.15-10.9-1.7-1.41-6-1.83-8-1.73-3.15.16-8.88,2.81-11.29,4.49-3,2.11-7.26,7.45-10.07,11L155.33,207c-3.68,4.55-10.21,13.45-13.12,18.12a124.79,124.79,0,0,0-7.84,14.75,62.67,62.67,0,0,0-2,6.92c-.42,1.67-.81,3.25-1.16,4.34s-.89,2.53-1.48,4.1c-.76,2-1.56,4.15-2,5.57-1.26,4.52-2.87,13.51-3.73,18.34v.09c-.17,1-.39,2.11-.63,3.38-1,5.29-2.37,12.53-2.49,16.64,0,.59,0,1.26-.07,2-.23,5.62-.58,14.13,2.09,17.77,1.91,2.63,8.28,4.83,11.47,5h.37c4.31,0,11.87-3.4,15.54-5.05a39.61,39.61,0,0,0,5-3.09,31.8,31.8,0,0,1,6.39-3.72,25.42,25.42,0,0,1,5.94-.54,29.55,29.55,0,0,0,5.2-.38c2.94-.66,8.19-2,10.29-3.9,2.86-2.52,5.88-9.57,6.77-12.82a11.83,11.83,0,0,0,.16-3.09,10.69,10.69,0,0,1,.14-2.83l4.38-20.89,0-.16c0-1.26-.06-2.92-.12-4.68-.14-4-.3-8.92.11-11.69a17.67,17.67,0,0,1,1-3,15.67,15.67,0,0,0,1.21-4.22,20,20,0,0,0-.72-5l3.57-2.31,1.64.54a25.7,25.7,0,0,0-1.19,6.73,15.61,15.61,0,0,0,1.21,4.22,18,18,0,0,1,1,3,81.26,81.26,0,0,1,.11,11.69c-.06,1.76-.12,3.42-.12,4.68l4.37,21,0,.08a10.48,10.48,0,0,1,.14,2.83,11.84,11.84,0,0,0,.16,3.09c.89,3.24,3.91,10.3,6.77,12.82,2.11,1.86,7.35,3.25,10.3,3.91a29.55,29.55,0,0,0,5.2.38,25.52,25.52,0,0,1,5.94.54,31.59,31.59,0,0,1,6.38,3.72,39.15,39.15,0,0,0,5.09,3.11c3.63,1.63,11.19,5,15.5,5h.37c3.19-.15,9.56-2.36,11.47-5,2.67-3.65,2.32-12.15,2.09-17.77" transform="translate(-20.62 -14.28)"/><path class="cls-59" d="M267.82,343.59a49.74,49.74,0,0,0-1-5.17c-.42-1.54-1.59-4.52-2.22-6a49.14,49.14,0,0,0-2.84-6,38.22,38.22,0,0,0-3.41-4.31,58.22,58.22,0,0,0-5.51-5.16,33.87,33.87,0,0,0-4.57-2.82,18.61,18.61,0,0,0-3.61-1.24,23.53,23.53,0,0,0-3.54-.22,24.56,24.56,0,0,0-3.28.18,18.51,18.51,0,0,0-3.17,1,33.07,33.07,0,0,0-3.68,1.82c-.63.38-1.51,1-2.36,1.69-.69.52-1.34,1-1.8,1.32a27.16,27.16,0,0,1-3.48,2,8.12,8.12,0,0,1-2.16.58,11.8,11.8,0,0,1-2.33-.65L217,318.95l-1.24-1.76-1.21-3-.88-3.18-.55-3.14-.55-4.48h-9.7l.24,5.84.24,2.61.64,2.84.7,2.85,2.24,4.33,2.33,3.65,2.16,2.39,1.88,2,3.75,2.34.19.07a9.51,9.51,0,0,1,2.89,1.07,4,4,0,0,1,.31,1c0,.23.09.43.14.59.24.75.69,2.26.9,3,.09.31.21.74.33,1.2.2.73.42,1.55.58,2.06.32,1,1,3,1.43,4.07.09.23.22.53.37.86a13.34,13.34,0,0,1,.59,1.51,14.57,14.57,0,0,1,.23,2.08,13.58,13.58,0,0,1,0,1.84c-.08.69-.58,2.62-1,4.17-.29,1.14-.54,2.12-.65,2.62a20.94,20.94,0,0,0-.29,3,16.24,16.24,0,0,1-.38,3.3,2.8,2.8,0,0,1-.31.28l-.2.18c-.51.49-1.56,1.41-2.09,1.84s-1.13.87-1.81,1.38-1.53,1.14-2,1.55c-.65.54-1.63,1.49-2.51,2.33-.51.49-1,.95-1.35,1.28l-.75.72a15.61,15.61,0,0,1-2.14,1.88,3.55,3.55,0,0,1-1,.37,4.25,4.25,0,0,1-.9-.18,6.61,6.61,0,0,0-1.91-.25l-.64-.06L204,376c-.58-.08-1.18-.16-1.58-.19s-1,0-1.59,0l-.88,0-.91-.06c-.7,0-1.52-.11-2-.08a20.19,20.19,0,0,0-3.84.59c-.39.12-1,.39-1.61.65-.42.18-1,.44-1.1.47a4.78,4.78,0,0,0-.48.09,4.78,4.78,0,0,1-.84.13h0a5.21,5.21,0,0,1-1.16-.76l-.28-.21c-.18-.13-.45-.38-.72-.63a9,9,0,0,0-1.17-1,15.3,15.3,0,0,0-2.13-1l-.67-.27-.8-.35a19.52,19.52,0,0,0-2.56-1,12.43,12.43,0,0,0-3.21-.36,11.6,11.6,0,0,0-2.48.74,22.61,22.61,0,0,0-3.1,1.59,21.48,21.48,0,0,0-2.57,2.13,29.49,29.49,0,0,0-2.62,3.15,35,35,0,0,0-2,3.68c-.38.8-1,2.39-1.31,3.33l-.1.27c-.19.51-.76,2.05-1,2.83-.46,1.56-1.21,4.77-1.55,6.49-.19,1-.52,3-.63,4.05s-.24,3.72-.25,3.83l0,.66h12l.06-.56s.15-1.45.21-1.94c.14-1.12.42-3.23.59-4.3.14-.83.41-2.57.61-3.39a24.8,24.8,0,0,1,.81-2.59,16.85,16.85,0,0,1,2-4,4.54,4.54,0,0,1,1.22-.84,2.54,2.54,0,0,1,.73-.14h0a3.76,3.76,0,0,1,.69.41l.2.13c.23.15.61.43.95.69l.7.52.34.24a7.27,7.27,0,0,0,1.43.9,12.78,12.78,0,0,0,3.27.53,10.72,10.72,0,0,0,1.89-.15,13.21,13.21,0,0,0,1.59-.48c.34-.12.66-.23.9-.29l.26-.08a4.09,4.09,0,0,1,.7-.18,3.24,3.24,0,0,1,.93.3,13.13,13.13,0,0,1,2,1.84c.35.36.68.7.94.94l.46.43c.58.54,1.31,1.21,1.79,1.57a47.6,47.6,0,0,0,4.67,2.73c1.6.83,4.84,2.31,6.53,3a49.69,49.69,0,0,0,5,1.7,42.35,42.35,0,0,0,5,.78c.8.07,1.93.09,2.73.09,1.2,0,2.51,0,3.41-.08a51.33,51.33,0,0,0,5.91-.68,56.12,56.12,0,0,0,6-1.91,62.35,62.35,0,0,0,5.89-2.54,61.16,61.16,0,0,0,7-4.56,74.22,74.22,0,0,0,5.49-5.35c1.19-1.25,3.52-3.83,4.63-5.23a59.49,59.49,0,0,0,3.46-4.91c.86-1.47,2.27-4.53,3-6.13a52.68,52.68,0,0,0,2.29-6,65.72,65.72,0,0,0,1.06-7.51c.16-1.66.33-4.81.31-6.37,0-1.92-.28-5.73-.53-7.69" transform="translate(-20.62 -14.28)"/><path class="cls-60" d="M223.81,279c0-.25-.1-.61-.17-1s-.09-.41-.11-.55,0-.26-.05-.42-.06-.52-.1-.7-.09-.32-.14-.49l-.07-.22,0-.1c-.05-.18-.13-.44-.16-.58l-.05-.29a3.86,3.86,0,0,0-.1-.48,4.54,4.54,0,0,0-.2-.51c-.06-.14-.12-.27-.15-.37s-.09-.31-.12-.45l0-.08c0-.07,0-.16-.06-.25s-.08-.38-.12-.52-.14-.35-.23-.55l-.16-.38c-.21-.58-.55-1.65-.8-2.43l-.14-.43c-.06-.18-.16-.41-.27-.66a6.42,6.42,0,0,1-.26-.6s0-.13,0-.2l0-.19c0-.11-.11-.38-.16-.53-.16-.44-.54-1.29-.75-1.72s-.66-1.25-.93-1.66-.64-.85-1-1.27l-.36-.45-.18-.23c-.15-.19-.34-.43-.44-.56l0,0s0,0,0,0a6.44,6.44,0,0,1,0-3l0,0a.62.62,0,0,0,.19-.24,2.09,2.09,0,0,0,0-.94,1.94,1.94,0,0,1,0-.66,3,3,0,0,1,.83-.76,2.26,2.26,0,0,0,1.21-1.62l0-.1a11.74,11.74,0,0,0,.38-1.47,7.59,7.59,0,0,0,0-1.38,7.8,7.8,0,0,0-.2-.89c-.06-.23-.2-.69-.29-.92s-.23-.55-.33-.73a3,3,0,0,0-1.73-1.67,1.21,1.21,0,0,0-.33-.06l-.15,0a1.74,1.74,0,0,1-.1-.19l0-.09c0-.1-.11-.26-.17-.41a5,5,0,0,0-.28-.63,8.59,8.59,0,0,0-.77-1l-.18-.21-.13-.15c-.23-.28-.55-.67-.76-.87a12.07,12.07,0,0,0-1-.77l-.38-.28-.24-.2a5.47,5.47,0,0,0-.69-.52,5.76,5.76,0,0,0-1-.36c-.15,0-.37-.08-.58-.12l-.36-.07-.15,0a5,5,0,0,1-.74-.19l0,0a2.75,2.75,0,0,1,0-.82,2.21,2.21,0,0,0,0-1.23,2.43,2.43,0,0,0-1.26-1,1.29,1.29,0,0,0-.34,0,1.91,1.91,0,0,0-1,.25.61.61,0,0,0-.16.19,2.51,2.51,0,0,0-.91-.84,1.52,1.52,0,0,0-.51-.08,1.54,1.54,0,0,0-.52.08,2,2,0,0,0-.77.74,2.32,2.32,0,0,0-.19.73c0,.06,0,.11,0,.16-.05.27-.13.81-.15,1.09a2.29,2.29,0,0,0,0,.33s0,.1,0,.15l0,0c-.19-.36-.52-.88-.85-1.38s-.59-.92-.76-1.23l0-.06a.65.65,0,0,0-.24-.37,1.09,1.09,0,0,0-.56-.12,4,4,0,0,0-.92.13,4.37,4.37,0,0,0-1.24.64c-.35.28-1.19,1-1.3,1.59a.57.57,0,0,0,.09.38.92.92,0,0,0,.14.18l.05.06a13.06,13.06,0,0,1,.94,2,3.58,3.58,0,0,1,.15.64,6.79,6.79,0,0,1-.08,1.28,7.69,7.69,0,0,1-.26.82c-.08.22-.15.42-.19.57s-.09.36-.14.59-.12.58-.18.75l0,.1v0a3.65,3.65,0,0,1-1.51-.69,5.43,5.43,0,0,0-1-.53,6,6,0,0,0-1.08-.29,6.06,6.06,0,0,0-1.13.07h-.05a.81.81,0,0,0-.48.16,1.29,1.29,0,0,0-.29.7c0,.06,0,.11,0,.15-.13.48-.33,1.45-.43,1.95,0,.23-.1.58-.16.93s-.1.63-.14.84-.14.67-.23,1.08-.22,1-.28,1.35-.12.86-.19,1.36c0,.31-.08.61-.11.82s-.09.57-.15.92c-.11.64-.23,1.36-.27,1.81,0,.26,0,.63,0,1s0,.95-.06,1.24a7.74,7.74,0,0,1-.19,1c-.15.51-.5,1.32-.82,2-.21.48-.4.93-.53,1.27s-.71,1.89-.92,2.64c-.08.3-.2.9-.26,1.15l0,.19c-.08.42-.2,1-.23,1.33-.07.75-.2,2.59-.2,3.49a27.22,27.22,0,0,0,.2,2.91,26.85,26.85,0,0,0,.64,2.72,6.05,6.05,0,0,0,.32.86c.07.16.14.32.23.54.15.41.44,1.14.61,1.51a28.7,28.7,0,0,0,1.43,2.69c.24.36.74,1,1.07,1.37l.12.15c.38.46,1.32,1.59,1.82,2.11s1.31,1.25,1.77,1.64c.69.57,2.13,1.59,2.86,2.08.5.34,1.52,1,2,1.24l.22.13c.67.4,1.67,1,2.26,1.29,1,.5,3.06,1.31,4.14,1.7.54.2,1.89.66,2.58.82s3,.45,3.55.51c1.25.14,2.7.28,4,.29h.11a14.64,14.64,0,0,0,2.75-.23,5.76,5.76,0,0,0,2-.89,11.22,11.22,0,0,0,1.93-4.18,28.5,28.5,0,0,0,.81-4.47c0-.29.05-.58.08-.86.1-1.06.2-2.06.2-3.19,0-.42-.18-2.37-.28-3.49" transform="translate(-20.62 -14.28)"/><path class="cls-61" d="M198.4,30.18s-1.23-4.66-3.95-6.23c-6.35-3.65-13.81-1.94-20.07.86s-12.13,12.3-13.8,17.89c-3.07,10.28-4.7,24-.61,31.49,3.36,6.14,9.42,13.27,16.81,13.21,0,2.84,3.18,7.41,5.64,8.85,2.29,1.35,10,1.12,13,.32v12.8H202V96.68c3.26.72,10.38.86,12.57-.42,2.46-1.45,5.69-6,5.65-8.85,7.4.06,13.46-7.07,16.81-13.21,4.09-7.48,2.46-21.21-.62-31.49-1.67-5.58-7.54-15.08-13.8-17.89S208.85,20.3,202.51,24c-2.72,1.57-4,6.23-4,6.23" transform="translate(-20.62 -14.28)"/><path class="cls-62" d="M268,438c2-4.85,0-6.9-1.28-8.18s2.56-1.28.26-5.11-2.81-4.86-.77-7.93,0-11.5-2-12.78,3.07-1.53,1.53-10-8.44-12.53-13-12.53-8.95,4.09-11,2.56-6.14,2.3-7.42,4.09-4.86-1.53-8.43,2.56-2,6.9-4.61,5.62-6.64,6.39-8.43,5.88-9.2,0-10.48,1.53-2,1.79-6.13,1.54-8.18,1.79-9.46.51-6.2-.54-8.41,2.23c1-1.93,2-6.27-4.89-8.11-10.48-2.81-5.11,4.34-8.69-2-2.27-4.07-4.86-6.37-7.7-6.52l-.48.39s1.53-4.85-7.41-4.6-12.27,4.86-13.55,7.41l-.53.26c-7.16,0-9.18,5.62-8.92,11.75s.51,8.18-1.79,12.27,5.37,4.09,2.81,8.43-.77,7.41.25,9.2-4.34,3.32-1.53,11-2,7.41-.76,11,3.07,4.6.51,6.13-3.84,12-1,16.87-1.79,8.95,5.37,14.83,15.08,2.3,15.34.51l-.1,1.84a23.69,23.69,0,0,0,5.21,10.94c2.81,3.58,7.67,7.67,8.69,4.86s-1-6.9-3.58-8.69c-2-1.42-4.86-3-6.45-8.06l.06-1.91s2.82,2.81,4.35.51c1.33-2,4.8-6.92,4-10.35,1.94.34,4.24,0,7.62-2s8.86-3.58,13.29-2.21,8.08-3.25,18.35,11.3c-10.62,4.79-17.85,13.42-17.18,22.23s2.9,9.88,2.9,14.48,5.28,4.6,4.6,10.23,5,10.23,7.75,8.45c1-.61,1.52-2.49,1.85-4.26a6,6,0,0,0,4.71,5c4.26.68,5.28-11.42,10.05-20.28A17,17,0,0,0,213.53,518l1.83-.56a10.11,10.11,0,0,0,3.07.68c1.37,0-2,2,1.37,7.16s14,1.36,16.36-.34l-.81.89s4.82,6.26,12.74-2.68c0,0-1.53,2,1.79,3.07s9.71-10.74,12.53-22,1.28-13,4.09-16.61-4.09-4.35,0-10.23-4.09-3.32.25-11.25-5.11-9.45-.51-13.8S266,442.85,268,438M229.5,417c1.53,0,6.82-1.36,7.33-3.24s5.28-2.73,6.48-5.62l.51-2.38s0,7.5-1.36,11.76-1.37,7.33.51,8.69,1.36,3.4.51,5.45-.17,7.84,0,10.91c.13,2.3-.32,5.76-.11,8.79-2.37-5.18-6.27-9.48-8.55-10.62-.35-.18-.77-.36-1.23-.54,3.91-6,7.3-13.76,6.85-15.64C239.41,420.32,228,421,228,421l-3.09-1.21c1.9-1.43,3.79-2.75,4.6-2.75m-14.64,64.29c-8,.14-7.92-.08-13-1.39h0c.28-.09,1.9-1.34,2.16-1.46a2.84,2.84,0,0,0,1.56-2.31c2.63.94,6.27,1.87,6.55,2.05s8.92,1.31,11.75,2.3c2.18.76,7.8,2.08,8.14,4.37.21,1.43-2.63.66-3.66-.19s-3.84-3.54-13.56-3.37m-5-55.94c.35.7,4.3,0,7.41-1a10.74,10.74,0,0,0,.62,2.59c1.14,2.62,9.93-2.37,10.22,5.11.08,2.19-4.47,2.15-8.21,2.53a9.31,9.31,0,0,0-1.16-1.67c-2.89-3.07-8.35-2.3-11.07-3.24a10.79,10.79,0,0,1-3.13-2.21c2.86-1.43,5.1-2.53,5.32-2.1M163,425.9c3.75.17,7,.17,7.67,2,.22.6,1.14,1.15,2.43,1.58-1.13.42-2.17.82-2.93,1.19l-2.06.89c-6.65,2.54-6.32-1.74-6.47-3.79,0-.55-.14-1.41-.27-2.31a5.05,5.05,0,0,0,1.61.39m14.16,43.66c-14.14-1.19-15.45,2.2-19.42,5.28a1.75,1.75,0,0,1-.3.16,7,7,0,0,0-1.17-2.5c-3.83-5.37-3.32-3.32-2.81-8.95s-4.09-3.07-1.53-7-3.92-4.26-2.9-11.07.34-10.22-1.19-11.59-3.41-5.62-.68-10.22a11.55,11.55,0,0,0,.68-9.54l1.8.53c2.33,2.33,4.34,4.56,6.16,6.42a7.22,7.22,0,0,0-1.46.76A12,12,0,0,0,151.65,437a25.88,25.88,0,0,0,4.13,5.73c-1.62,3.52-4.73,8.58-1.74,15.06,3.07,6.64,10.39,10.05,32,5.28.93-.2,1.79-.41,2.63-.62-1.78,2.18-3.87,5.3-3.18,9a25,25,0,0,0-8.31-1.88m68.14,5.75c-1.2,1.19-4.27,6.64-2.9,9s3.41,2.56,1.53,4.26a39.3,39.3,0,0,0-6.3,9.71l-.68.17c-3,.33-6.94,2.61-7.12,3.51,0-.69-.41-3.07-3.95-3.34-3.95-.29-3.64,2-5.51-.63,6.5.82,16.28,1.32,20.35-5.81s-.51-13.46-4.08-16.53a22.19,22.19,0,0,0-3.08-2.2,10,10,0,0,0,9.86-5.59c1.23,1.7,3,6.32,1.89,7.41" transform="translate(-20.62 -14.28)"/><polygon class="cls-63" points="216.36 319.41 215.49 317.83 212.99 316.31 209.36 315.04 205.93 313.93 201.75 312.96 199.52 312.51 195.4 312.3 193.15 312.3 188.83 312.92 182.24 314.07 178.4 314.41 175.31 314.72 171.59 314.72 168.52 314.22 166.53 313.78 162.69 312.34 158.65 310.71 155.56 309.84 152.73 308.62 149.67 307.81 146.31 307.65 142.53 307.77 138.4 308.02 135.65 308.55 131.52 309.6 127.79 310.73 123.63 312.32 120.83 313.95 118.27 315.52 116.23 317.51 115.06 319.15 114.14 320.99 113.44 323.53 113.18 325.55 113.28 330.34 113.66 333.14 114.27 337.15 114.85 341.36 115.19 346.03 115.56 352.41 116.44 357.79 116.48 363.85 116.88 367.56 117.78 371.82 118.56 374.75 120.29 377.48 122.34 378.41 124.65 378.52 128.54 378.04 131.35 376.86 134.46 375.61 137.04 374.08 139.58 371.28 140.45 370.23 142.26 368.83 143.84 367.74 145.33 367.31 148.13 366.68 152.62 365.88 156.04 364.94 158.94 363.6 161.73 362.07 163.81 360.06 165.01 357.88 165.68 355.54 165.89 355.71 166.83 357.2 167.63 359.25 168.17 361.3 169.25 364.07 170.17 365.69 171.33 366.11 172.46 366.02 172.46 364.65 172.18 363.24 172.07 362.13 172.03 360.66 172.45 358.6 172.46 356.21 171.91 354.97 172.1 355.01 175.62 355.15 179.19 354.3 184.97 351.84 189.03 349.51 192.49 347.2 195.39 343.76 197.23 340.85 201.55 334.61 203.21 331.56 205.17 328.43 207.25 325.27 209.66 323.16 211.72 322 214.06 321.33 216.78 321.33 216.36 319.41"/></g><path class="cls-64" d="M200.84,113.33" transform="translate(-20.62 -14.28)"/></g><path class="cls-65" d="M367.66,582c-.14-10.71-.78-23.17-2.88-27.63a22.22,22.22,0,0,0,.38-7.13c-.63-4.07,3.35-13.52,2.22-20.05,7.86-44.45,9-78.44,9.13-91.59a124.85,124.85,0,0,0-5.49-37c-3.12-9.59-.31-12.81-2.77-18.32s-.89-20.47.2-28.7c.67-26.24-6.22-58.67-12-66.61s-4.1-17.3-4.74-24.56a78.92,78.92,0,0,0-20.92-45.3c-.89-1.35-1.84-2.7-2.86-4C314.9,194,289.53,190.59,285.22,188.9s-18.92-4.77-22.61-6-17.69-8.61-21.82-10.61-7.25-3.23-8.17-8.92c-.62-3.84.16-17.55.73-26.06,2.65-3.69,4.61-6.64,5-7.71.6-1.88,1.9-10.85,3-19.13a8,8,0,0,0,4.06-.94c2.26-1.48,3.54-9.45,3.64-11.91s2.56-7.77,3.25-11.41.79-11.81-3.15-10.43a12.33,12.33,0,0,0-4.68,3.43c.49-7.09.95-14.21.95-16,0-.22,0-.58,0-1s0-.72,0-.95c0-.41,0-1.24-.08-2.42,0,.35,0,.73-.06,1.14-.76-10.77-5.73-42.53-37.65-45.26l-10.89-.39-8.39.39c-31.92,2.74-36.89,34.49-37.65,45.26,0-.39,0-.77-.06-1.11-.07,1.17-.08,2-.08,2.4,0,.22,0,.54,0,.93s0,.84,0,1.07c0,2,.6,11.16,1.16,19.16,0,0-3.17-5.23-7.1-6.6s-3.84,6.79-3.15,10.43,3.15,9,3.25,11.41,1.38,10.43,3.64,11.91c1.83,1.19,5.07,1,6.25.84,1.12,8.31,2.43,17.33,3,19.23.33,1,2.17,3.83,4.67,7.33,0,.61.08,1.25.13,1.92v4.35l.29.41c.46,7.84.82,16.79.34,19.78-.92,5.69-4,6.92-8.17,8.92s-18.13,9.38-21.82,10.61-18.3,4.31-22.61,6S80.79,194,67.72,211a68.56,68.56,0,0,0-4.74,7,78.49,78.49,0,0,0-17.63,41.55c-.64,7.27,1,16.63-4.73,24.56S28,324.58,28.67,350.82c1.09,8.23,2.67,23.19.2,28.7s.36,8.73-2.77,18.32a124.85,124.85,0,0,0-5.48,37c.14,13.15,1.29,47.14,9.16,91.59-1.13,6.53,2.86,16,2.22,20.05a22.22,22.22,0,0,0,.38,7.13c-4,8.4-2.72,45.2-2.72,45.2l6.13,7.84h0l14,22.2L60,625.56l2,2.78,5.12-1.69.47.95,12.13,8s11-.85,14.41-1.9c-.72-7.69-8.52-5.46-8.52-5.46l-5.12-6,2.73-.9,1.69-1.43c3.19,1.83,7.17,2.81,9.46,2.35,0,0-1-5.9-1.28-9.26l3.32-2.81a5.38,5.38,0,0,0-4.29-2.67,19.58,19.58,0,0,1-.59-4.93c.09-3.9-2.44-16.14-2.65-20S82,571.23,81.53,570.1s-3.93-9.36-3.93-9.36L67.47,549s-6.86-12.66-3.6-24.26,6.7-69.34,3.92-91.32c3.76-5.68,1.76-32.95,1.76-32.95s14.81-35.87,19.06-67.15c3.84-4.35,6.52-10.84,8.42-17.79,3.16,6,3.78,10.73,4.84,13.77,2.16,6.15,8.92,23.68,11.38,28,1.43,1.22,2.51,3.9,3.22,6.71a32.14,32.14,0,0,1,1,7.13c0,3.69,3.69,19.07,1.85,27.89s-.82,17.22-2.46,26.25c0,0-1.43,18.38.61,23.54-2.41,4.74-4,14.49-6.14,22-2.46,8.41-6.77,55.5-8.41,64.45s-5.95,72.52-5.13,90.56,7.16,66.64,20.6,94.32c.72,4.31,2.16,13.53,3.19,17.84s3.08,19.89,3.08,24.4,3.69,23.38,1.23,33.83-1.85,45.52-.21,65.61c1.62,19.89,13.7,63.9,14.93,86.66a9.27,9.27,0,0,0,.18,1.39c4,19.06,4.57,30.74,4.57,36.41s.21,18.25.82,21.12,1.44,5.74,1.44,5.74l1.08-1.87c-.92,2.42-1.61,4.58-2.52,5.77-2,2.61-3.69,7.69-7.54,9.84s-8.46,4.92-10.46,7.69c-1.54,2-1.54,5.7-1.38,7.61a8.43,8.43,0,0,0,4.22,6.56h0l.1,0c.16.08.31.18.48.25a17.21,17.21,0,0,0,3.61.69,34.91,34.91,0,0,0,9.92,0c3.31-.54,5.31-2,8.61-1.46s11.15,3.77,16.92,2.92,10.23-.31,13.38-6.15,1.69-19.91,2-21.91.46-13.84.46-13.84c2.46-13.23.62-20.07-3.08-26.84s-3.54-29.37-2.15-35.52,3.84-48.6,4.92-53.21,4.77-20,5.38-27.53-2-30.14-2.92-36.75-6.92-38.75-6.61-40.91S184.9,777,185.67,773s1.23-22.14,1.52-27.28c.21-3.69,3.48-14.65,3.25-18.71-.33-5.84-.11-41.47.68-50.11.72-7.89,4.79-36.91,5.42-57.05l1.68-1.57.66.32c.48,20.17,4.72,50.25,5.45,58.3.78,8.63,1,44.27.68,50.11-.23,4.06,3,15,3.25,18.71.29,5.13.75,23.28,1.52,27.28s3.38,13.38,3.69,15.53-5.69,34.29-6.61,40.91-3.54,29.22-2.92,36.75,4.31,22.91,5.38,27.53,3.54,47.06,4.92,53.21,1.54,28.76-2.15,35.52S206.53,996,209,1009.26c0,0,.15,11.84.46,13.84s-1.15,16.07,2,21.91,7.61,5.31,13.38,6.15,13.61-2.38,16.92-2.92,5.31.92,8.61,1.46a34.91,34.91,0,0,0,9.92,0,17.21,17.21,0,0,0,3.61-.69c.17-.07.32-.17.48-.25l.1,0h0a8.43,8.43,0,0,0,4.22-6.56c.15-1.92.15-5.61-1.38-7.61-2-2.77-6.61-5.54-10.46-7.69s-5.54-7.23-7.54-9.84c-.91-1.19-1.6-3.34-2.52-5.77l1.08,1.87s.82-2.87,1.44-5.74.82-15.38.82-21.12.6-17.35,4.57-36.41a9.27,9.27,0,0,0,.18-1.39c1.24-22.76,13.31-66.77,14.93-86.66,1.64-20.09,2.26-55.16-.21-65.61s1.23-29.32,1.23-33.83,2.05-20.09,3.08-24.4,2.46-13.53,3.19-17.84c13.44-27.68,19.78-76.28,20.6-94.32s-3.49-81.61-5.13-90.56-5.95-56-8.41-64.45c-2.12-7.23-3.63-16.57-5.9-21.48h0c2.05-5.13.17-17.09.17-17.09.47-12.58,0-21.06,0-33.46,0-10.44-.17-23.93-.17-27.62a30.53,30.53,0,0,1,.67-5.71c.07-.34.15-.68.23-1l.08-.32c.07-.27.14-.54.21-.81l.11-.38c.08-.27.16-.53.25-.79l.1-.32q.18-.52.37-1l.15-.34c.09-.21.18-.42.28-.62l.19-.37q.14-.27.28-.51l.21-.33c.11-.16.21-.31.32-.46l.2-.26a4.93,4.93,0,0,1,.49-.51l.06-.06.24-.44c2.64-4.94,9.05-21.58,11.14-27.54,1-2.8,1.58-7,4.13-12.34.45-1,1-1.94,1.55-3,1.91,7.79,4.76,15.24,9,20.05,4.25,31.28,19.07,67.15,19.07,67.15s-2,27.27,1.76,32.95c-2.77,22,.69,79.72,3.94,91.32s-3.6,24.26-3.6,24.26l-10.13,11.73m-240,46.58a10.17,10.17,0,0,0-4,.68c-.73.26-1.38.53-2,.8l0-.09-1.1-8.36,3-9.84A167,167,0,0,1,79.62,608.05Z" transform="translate(-20.62 -14.28)"/></g></g><path class="cls-66" d="M372.35,603.74l-21.86,34.62-25-8.22L310,617s2.44-5.16,10.17-2.38,9.05,6.12,9.05,6.12,11.35-1,15.46,2.92l8.73-12.76S363.63,597.75,372.35,603.74Z" transform="translate(-20.62 -14.28)"/><path class="cls-67" d="M354.66,612.33l-18.49,25.38-25-8.22-15.53-13.12s2.44-5.16,10.17-2.38,9.05,6.12,9.05,6.12,11.35-1,15.46,2.92l8.73-12.76S348.24,607.61,354.66,612.33Z" transform="translate(-20.62 -14.28)"/><path class="cls-68" d="M324.74,598.87l-2.19,16.61L315.72,629l-7.32,8.54s-9.19-2.62-10,6.42c4.06,1.24,17,2.24,17,2.24l14.27-9.39,11.07-22.49,6.17-9.4.91-6.92S335.55,589,324.74,598.87Z" transform="translate(-20.62 -14.28)"/><path class="cls-69" d="M324.6,550.27l-6.81,7.89s-4.09,9.67-4.62,11-8.38,10.16-8.63,14.71-3.23,18.94-3.12,23.54-1.56,7.89-1.8,11.74-1.54,11.42-1.54,11.42c5.1,1,17.39-4,16.83-10.46s5.43-26,5.43-26l5.24,17.24,41.42.92,7.22-9.23s1.45-43.31-3.21-53.2c-5-1-23-3.23-33.51-4.51A14.68,14.68,0,0,0,324.6,550.27Z" transform="translate(-20.62 -14.28)"/><path class="cls-70" d="M371,549.8c-5-1-23-3.23-33.51-4.51a14.68,14.68,0,0,0-12.89,5l-6.81,7.89s-4.09,9.67-4.62,11-8.38,10.16-8.63,14.71-3.23,18.94-3.12,23.54a23,23,0,0,1-.69,5.8,6.33,6.33,0,0,0-5.05,3.14l3.91,3.3c-.31,4-1.51,10.9-1.51,10.9,2.69.54,7.38-.62,11.13-2.77l2,1.68,3.22,1.06-6,7s-9.19-2.62-10,6.42c4.06,1.24,17,2.24,17,2.24l14.27-9.39.55-1.12,6,2,2.38-3.27,11.93,3.93L367,612.23h0l7.22-9.23S375.66,559.69,371,549.8Zm-50.66,44.26,3.52,11.58-1.3,9.84-.05.1c-.71-.32-1.48-.63-2.34-.94a12,12,0,0,0-4.74-.8A196.52,196.52,0,0,1,320.33,594.06Z" transform="translate(-20.62 -14.28)"/><path class="cls-71" d="M245.64,63.64c0,3.8-2.1,32.14-2.1,32.14s-.54,4.36-1.28,10c-1.22,9.27-3,22-3.7,24.25s-9,13.32-15.59,21.79c-3.83,4.89-7.14,8.93-8.16,10-3.49,3.49-10.09,4.9-16.59,4.79V14.75l9.64.34C244.59,18.24,245.64,59.83,245.64,63.64Z" transform="translate(-20.62 -14.28)"/></g><g id="DG"><ellipse class="cls-72" cx="359.81" cy="400.38" rx="3.17" ry="5.34" transform="translate(-101.42 76.87) rotate(-12.99)"/><ellipse class="cls-73" cx="359.81" cy="400.38" rx="2.16" ry="3.64" transform="translate(-101.42 76.87) rotate(-12.99)"/><g id="_Group_3" data-name="&lt;Group&gt;"><path class="cls-74" d="M361.07,402.42a3.59,3.59,0,0,1-1.12-2,11.1,11.1,0,0,1-.12-2.57c.35,0,2.28-.15,2.78,1.27a2.53,2.53,0,0,1-.88,3C361.67,402.12,361.36,402.28,361.07,402.42Z" transform="translate(-20.62 -14.28)"/><path class="cls-75" d="M359.95,400.44a3.59,3.59,0,0,0,1.12,2,4.3,4.3,0,0,1-.58.23c-.78.18-1.66-.74-2-2.06s.08-2.53.87-2.72h.44A11.1,11.1,0,0,0,359.95,400.44Z" transform="translate(-20.62 -14.28)"/></g><ellipse class="cls-76" cx="353.57" cy="393.37" rx="2.43" ry="4.1" transform="translate(-100.01 75.28) rotate(-12.99)"/><ellipse class="cls-77" cx="353.57" cy="393.37" rx="1.66" ry="2.79" transform="translate(-100.01 75.28) rotate(-12.99)"/><g id="_Group_4" data-name="&lt;Group&gt;"><path class="cls-78" d="M354.53,394.94a2.75,2.75,0,0,1-.86-1.52,8.52,8.52,0,0,1-.09-2c.27,0,1.75-.11,2.14,1a1.94,1.94,0,0,1-.67,2.27Z" transform="translate(-20.62 -14.28)"/><path class="cls-79" d="M353.67,393.42a2.75,2.75,0,0,0,.86,1.52,3.3,3.3,0,0,1-.44.18c-.6.14-1.28-.57-1.51-1.58s.06-1.94.67-2.09h.34A8.52,8.52,0,0,0,353.67,393.42Z" transform="translate(-20.62 -14.28)"/></g><ellipse class="cls-80" cx="351.29" cy="373.89" rx="2.43" ry="4.1" transform="translate(-95.68 74.27) rotate(-12.99)"/><ellipse class="cls-81" cx="351.29" cy="373.89" rx="1.66" ry="2.79" transform="translate(-95.68 74.27) rotate(-12.99)"/><g id="_Group_5" data-name="&lt;Group&gt;"><path class="cls-82" d="M352.26,375.45a2.75,2.75,0,0,1-.86-1.52,8.52,8.52,0,0,1-.09-2c.27,0,1.75-.11,2.14,1a1.94,1.94,0,0,1-.67,2.27Z" transform="translate(-20.62 -14.28)"/><path class="cls-83" d="M351.4,373.93a2.75,2.75,0,0,0,.86,1.52,3.3,3.3,0,0,1-.44.18c-.6.14-1.28-.57-1.51-1.58s.06-1.94.67-2.09h.34A8.52,8.52,0,0,0,351.4,373.93Z" transform="translate(-20.62 -14.28)"/></g><ellipse class="cls-84" cx="357.88" cy="369.86" rx="1.18" ry="1.98" transform="translate(-94.61 75.65) rotate(-12.99)"/><ellipse class="cls-85" cx="357.88" cy="369.86" rx="0.8" ry="1.35" transform="translate(-94.61 75.65) rotate(-12.99)"/><g id="_Group_6" data-name="&lt;Group&gt;"><path class="cls-86" d="M358.35,370.61a1.33,1.33,0,0,1-.41-.73,4.11,4.11,0,0,1,0-1c.13,0,.85-.05,1,.47a.94.94,0,0,1-.33,1.09Z" transform="translate(-20.62 -14.28)"/><path class="cls-87" d="M357.93,369.88a1.33,1.33,0,0,0,.41.73l-.21.09c-.29.07-.62-.28-.73-.76s0-.94.32-1h.16A4.11,4.11,0,0,0,357.93,369.88Z" transform="translate(-20.62 -14.28)"/></g><ellipse class="cls-88" cx="347.96" cy="391.84" rx="1.18" ry="1.98" transform="translate(-99.8 73.98) rotate(-12.99)"/><ellipse class="cls-89" cx="347.96" cy="391.84" rx="0.8" ry="1.35" transform="translate(-99.8 73.98) rotate(-12.99)"/><g id="_Group_7" data-name="&lt;Group&gt;"><path class="cls-90" d="M348.42,392.59a1.33,1.33,0,0,1-.41-.73,4.11,4.11,0,0,1,0-1c.13,0,.85-.05,1,.47a.94.94,0,0,1-.33,1.09Z" transform="translate(-20.62 -14.28)"/><path class="cls-91" d="M348,391.86a1.33,1.33,0,0,0,.41.73l-.21.09c-.29.07-.62-.28-.73-.76s0-.94.32-1H348A4.11,4.11,0,0,0,348,391.86Z" transform="translate(-20.62 -14.28)"/></g><ellipse class="cls-92" cx="361.09" cy="389.34" rx="1.8" ry="3.02" transform="translate(-98.91 76.87) rotate(-12.99)"/><ellipse class="cls-93" cx="361.09" cy="389.34" rx="1.23" ry="2.06" transform="translate(-98.91 76.87) rotate(-12.99)"/><g id="_Group_8" data-name="&lt;Group&gt;"><path class="cls-94" d="M361.8,390.5a2,2,0,0,1-.63-1.12,6.28,6.28,0,0,1-.07-1.46c.2,0,1.29-.08,1.58.72a1.43,1.43,0,0,1-.5,1.67Z" transform="translate(-20.62 -14.28)"/><path class="cls-95" d="M361.17,389.38a2,2,0,0,0,.63,1.12,2.44,2.44,0,0,1-.33.13c-.44.1-.94-.42-1.11-1.17s0-1.43.49-1.54h.25A6.28,6.28,0,0,0,361.17,389.38Z" transform="translate(-20.62 -14.28)"/></g><ellipse class="cls-96" cx="348.74" cy="383.12" rx="1.8" ry="3.02" transform="translate(-97.82 73.94) rotate(-12.99)"/><ellipse class="cls-97" cx="348.74" cy="383.12" rx="1.23" ry="2.06" transform="translate(-97.82 73.94) rotate(-12.99)"/><g id="_Group_9" data-name="&lt;Group&gt;"><path class="cls-98" d="M349.46,384.27a2,2,0,0,1-.63-1.12,6.28,6.28,0,0,1-.07-1.46c.2,0,1.29-.08,1.58.72a1.43,1.43,0,0,1-.5,1.67Z" transform="translate(-20.62 -14.28)"/><path class="cls-99" d="M348.82,383.15a2,2,0,0,0,.63,1.12,2.44,2.44,0,0,1-.33.13c-.44.1-.94-.42-1.11-1.17s0-1.43.49-1.54h.25A6.28,6.28,0,0,0,348.82,383.15Z" transform="translate(-20.62 -14.28)"/></g><path class="cls-100" d="M317.8,211.84a2.25,2.25,0,0,1-.65.29,6.65,6.65,0,0,1-1.92.23,11.64,11.64,0,0,1-2.84-.4,20.19,20.19,0,0,0-3.33-1c-2.43-.24-4.74.61-6.33-.15a3.65,3.65,0,0,1-1.39-1.34c-.25-.38-.43-.55-.42-.56l.14.12a4.45,4.45,0,0,1,.34.4,3.74,3.74,0,0,0,1.39,1.27c1.51.7,3.8-.16,6.29.08a19.26,19.26,0,0,1,3.35,1,12,12,0,0,0,2.8.44,7.17,7.17,0,0,0,1.9-.17C317.57,212,317.79,211.83,317.8,211.84Z" transform="translate(-20.62 -14.28)"/><path class="cls-100" d="M294.64,214.46a1.5,1.5,0,0,1,.74-1.17,3.55,3.55,0,0,1,1.45-.49c.56-.1,1.24-.06,1.81-.22.25-.12.14-.48.07-.76a2,2,0,0,1-.13-.92c.12-.34.42-.45.63-.57a6.35,6.35,0,0,1,.66-.27c.41-.15.75-.24,1-.3a1.34,1.34,0,0,1,.37-.07s-.51.17-1.31.49c-.2.08-.42.17-.63.29s-.48.26-.54.48a2,2,0,0,0,.14.83,2.12,2.12,0,0,1,.1.48.49.49,0,0,1-.25.49,15.29,15.29,0,0,1-1.87.22,3.58,3.58,0,0,0-1.41.43A2,2,0,0,0,294.64,214.46Z" transform="translate(-20.62 -14.28)"/><path class="cls-100" d="M292.06,212.25a8.53,8.53,0,0,1,1-.74l1.13-.76a3.13,3.13,0,0,1,1.56-.66,5.79,5.79,0,0,1,1.68.15,2.34,2.34,0,0,0,1.28-.23c.72-.28,1.15-.49,1.16-.47a1.1,1.1,0,0,1-.29.18c-.19.1-.47.25-.83.4a2.38,2.38,0,0,1-1.35.28,6,6,0,0,0-1.63-.13,3,3,0,0,0-1.48.61l-1.15.73A8.45,8.45,0,0,1,292.06,212.25Z" transform="translate(-20.62 -14.28)"/><path class="cls-100" d="M305.07,204.91a2.18,2.18,0,0,1-.88.56c-.58.28-1.42.59-2.32,1a2.27,2.27,0,0,0-1,.81.92.92,0,0,0-.16.52.77.77,0,0,1-.11.54,2.69,2.69,0,0,1-.49.6c-.13.12-.22.18-.22.17a8.34,8.34,0,0,0,.6-.83.63.63,0,0,0,.07-.47,1.06,1.06,0,0,1,.16-.62,2.36,2.36,0,0,1,1.1-.89l2.35-.91c.3-.12.53-.23.69-.31A1.6,1.6,0,0,1,305.07,204.91Z" transform="translate(-20.62 -14.28)"/><path class="cls-100" d="M310.68,205a4.75,4.75,0,0,0-1.39.74,11.71,11.71,0,0,0-1.21,1.23,4.69,4.69,0,0,1-1.71,1.3,3.67,3.67,0,0,1-2.13-.05,2.8,2.8,0,0,0-1.62.37c-.45.2-.8.38-1,.51a2.29,2.29,0,0,1-.39.18,1.67,1.67,0,0,1,.35-.25c.24-.15.58-.35,1-.56a2.86,2.86,0,0,1,1.7-.42,3.61,3.61,0,0,0,2,0,4.67,4.67,0,0,0,1.65-1.24,10.5,10.5,0,0,1,1.25-1.22,3.39,3.39,0,0,1,1-.55A1.5,1.5,0,0,1,310.68,205Z" transform="translate(-20.62 -14.28)"/><path class="cls-100" d="M316.07,205.3a1.48,1.48,0,0,1-.39.12,10.15,10.15,0,0,1-1.1.19,6.85,6.85,0,0,1-1.65,0,3.21,3.21,0,0,0-1.87.48,3.87,3.87,0,0,0-.79.64,2.44,2.44,0,0,1-.75.65,6.09,6.09,0,0,1-1.56.56,10.17,10.17,0,0,1-1.1.18,1.48,1.48,0,0,1-.41,0,2.13,2.13,0,0,1,.4-.09c.26-.05.63-.12,1.08-.24a6.42,6.42,0,0,0,1.51-.58,2.3,2.3,0,0,0,.7-.62,4,4,0,0,1,.82-.68,3.31,3.31,0,0,1,2-.49,7.3,7.3,0,0,0,1.63,0c.46,0,.84-.09,1.1-.13A2.1,2.1,0,0,1,316.07,205.3Z" transform="translate(-20.62 -14.28)"/><path class="cls-100" d="M305.37,205.46s-.16.14-.41.36a2,2,0,0,0-.67,1,1.87,1.87,0,0,1-.27.69,2.28,2.28,0,0,1-.42.44c-.27.22-.46.31-.47.29s.15-.15.38-.38a1.88,1.88,0,0,0,.6-1.09,1.94,1.94,0,0,1,.76-1.1A1.21,1.21,0,0,1,305.37,205.46Z" transform="translate(-20.62 -14.28)"/><path class="cls-100" d="M298.65,206.13a1.49,1.49,0,0,0-.21.59,2.29,2.29,0,0,0,.56,1.39,3.86,3.86,0,0,0,.29.33c.08.1.23.19.29.35a.9.9,0,0,1-.18.74c-.24.34-.46.49-.47.47s.16-.2.36-.54a.81.81,0,0,0,.13-.61c-.08-.17-.4-.38-.56-.63a2.2,2.2,0,0,1-.54-1.52A.71.71,0,0,1,298.65,206.13Z" transform="translate(-20.62 -14.28)"/><path class="cls-101" d="M299.92,210.25h.94l.4-.13.32,0,.29-.15.13-.34.15-.37.44-.5-.25-.28v-.34l.06-.43.06-.26-.17-.22-.34-.11s0-.13-.15,0l-.4.27-.33.21a4.94,4.94,0,0,0-.46.35.73.73,0,0,1-.27.29l-.29.11c-.14.05-.69.35-.69.35l-.07.07a.18.18,0,0,0,0,.25,1.07,1.07,0,0,0-.11.28,2.56,2.56,0,0,1-.32.52l-.2.43-.15.29.2.07.32,0Z" transform="translate(-20.62 -14.28)"/><path class="cls-102" d="M300,210.17h.88l.38-.12.3,0,.27-.14.13-.32.14-.35.41-.47-.23-.26v-.32l.06-.41.06-.24-.16-.21-.32-.1s0-.13-.14,0l-.38.26-.31.19a4.65,4.65,0,0,0-.44.33.69.69,0,0,1-.25.27l-.27.11c-.13,0-.65.33-.65.33l-.07.07a.17.17,0,0,0,0,.23,1,1,0,0,0-.1.27,2.39,2.39,0,0,1-.3.49l-.19.4-.14.28.18.07.3,0Z" transform="translate(-20.62 -14.28)"/><path class="cls-100" d="M313.19,209.83s0,.09-.17.24a3.15,3.15,0,0,1-.57.54,4.83,4.83,0,0,1-2.43.87,3.37,3.37,0,0,0-2.18,1.13c-.48.45-.76.74-.78.73a4.1,4.1,0,0,1,.69-.82,6.88,6.88,0,0,1,.88-.77,2.66,2.66,0,0,1,1.36-.46,5.13,5.13,0,0,0,2.38-.79C312.91,210.13,313.17,209.8,313.19,209.83Z" transform="translate(-20.62 -14.28)"/><path class="cls-100" d="M300.92,211.37s0,.11,0,.25a1,1,0,0,0,.55.39,13.31,13.31,0,0,0,2.33.53,9.13,9.13,0,0,1,1.31.28,1.72,1.72,0,0,1,.89.67,1.54,1.54,0,0,1,.25.71c0,.18,0,.27,0,.27a2.19,2.19,0,0,0-.34-.9,1.65,1.65,0,0,0-.84-.58,10.77,10.77,0,0,0-1.29-.25,10.48,10.48,0,0,1-2.35-.59,1,1,0,0,1-.57-.49A.3.3,0,0,1,300.92,211.37Z" transform="translate(-20.62 -14.28)"/><path class="cls-100" d="M313.46,218.58a3.24,3.24,0,0,0-.49-1,4.08,4.08,0,0,0-2.52-1,9.76,9.76,0,0,1-1.54-.32,1.92,1.92,0,0,1-1-.81,1.85,1.85,0,0,1-.26-.84.65.65,0,0,1,0-.32,2.52,2.52,0,0,0,.34,1.09,1.84,1.84,0,0,0,1,.72,11.09,11.09,0,0,0,1.51.3,4,4,0,0,1,2.59,1.13,2,2,0,0,1,.36.8A1.05,1.05,0,0,1,313.46,218.58Z" transform="translate(-20.62 -14.28)"/><path class="cls-100" d="M299.69,221.66a1.87,1.87,0,0,1,0-.43,3,3,0,0,1,.37-1.11,5.92,5.92,0,0,1,3-2.32,17.17,17.17,0,0,1,2-.66,2.47,2.47,0,0,0,1.31-1,5.23,5.23,0,0,0,.64-1.42,1.2,1.2,0,0,1-.07.42,3.59,3.59,0,0,1-.47,1.07,2.55,2.55,0,0,1-1.37,1.06,19.27,19.27,0,0,0-2,.67,6.05,6.05,0,0,0-3,2.21A4.18,4.18,0,0,0,299.69,221.66Z" transform="translate(-20.62 -14.28)"/><path class="cls-100" d="M301.82,216.37a1,1,0,0,1,.49-.51,3.5,3.5,0,0,1,1.66-.38c.34,0,.64,0,.84-.14a2.39,2.39,0,0,0,.49-.53,5.91,5.91,0,0,1,.39-.57,1.72,1.72,0,0,1-.28.64,2.22,2.22,0,0,1-.5.6.79.79,0,0,1-.46.17l-.48,0a3.93,3.93,0,0,0-1.6.31A3.43,3.43,0,0,0,301.82,216.37Z" transform="translate(-20.62 -14.28)"/><path class="cls-103" d="M304.64,214.31l.12.41.48.4,1,.38,1.15.15.77-.35.6-.32s-.13-.53,0-.71a1.66,1.66,0,0,0,.1-.71,6.64,6.64,0,0,1-.12-.77,6.79,6.79,0,0,0-.56-1s-.51,0-.6.11-.37.51-.37.51a4.78,4.78,0,0,0-.94-.26c-.08,0-.62.18-.64.2a3.35,3.35,0,0,0-.52.69C305,213.32,304.64,214.31,304.64,214.31Z" transform="translate(-20.62 -14.28)"/><path class="cls-104" d="M304.82,214.26l.11.38.44.37.9.35,1.07.14.71-.33.56-.3s-.12-.49,0-.66a1.55,1.55,0,0,0,.09-.66,6.19,6.19,0,0,1-.11-.72,6.34,6.34,0,0,0-.52-.89s-.48,0-.56.1-.34.48-.34.48a4.45,4.45,0,0,0-.88-.24c-.07,0-.58.16-.6.18a3.12,3.12,0,0,0-.48.65C305.11,213.34,304.82,214.26,304.82,214.26Z" transform="translate(-20.62 -14.28)"/><g class="cls-105"><circle class="cls-106" cx="143.76" cy="35.55" r="3.47"/><path class="cls-106" d="M164.38,46.61a3.22,3.22,0,1,1-3.22,3.22,3.22,3.22,0,0,1,3.22-3.22m0-.5a3.72,3.72,0,1,0,3.72,3.72,3.72,3.72,0,0,0-3.72-3.72Z" transform="translate(-20.62 -14.28)"/></g><circle class="cls-107" cx="143.76" cy="35.05" r="3.47"/><path class="cls-108" d="M164.38,46.11a3.22,3.22,0,1,1-3.22,3.22,3.22,3.22,0,0,1,3.22-3.22m0-.5a3.72,3.72,0,1,0,3.72,3.72,3.72,3.72,0,0,0-3.72-3.72Z" transform="translate(-20.62 -14.28)"/><g class="cls-105"><circle class="cls-106" cx="143.76" cy="82.62" r="3.47"/><path class="cls-106" d="M164.38,93.69a3.22,3.22,0,1,1-3.22,3.22,3.22,3.22,0,0,1,3.22-3.22m0-.5a3.72,3.72,0,1,0,3.72,3.72,3.72,3.72,0,0,0-3.72-3.72Z" transform="translate(-20.62 -14.28)"/></g><circle class="cls-107" cx="143.76" cy="82.12" r="3.47"/><path class="cls-108" d="M164.38,93.19a3.22,3.22,0,1,1-3.22,3.22,3.22,3.22,0,0,1,3.22-3.22m0-.5a3.72,3.72,0,1,0,3.72,3.72,3.72,3.72,0,0,0-3.72-3.72Z" transform="translate(-20.62 -14.28)"/><g class="cls-105"><circle class="cls-106" cx="216.07" cy="90.02" r="3.47"/><path class="cls-106" d="M236.69,101.08a3.22,3.22,0,1,1-3.22,3.22,3.22,3.22,0,0,1,3.22-3.22m0-.5a3.72,3.72,0,1,0,3.72,3.72,3.72,3.72,0,0,0-3.72-3.72Z" transform="translate(-20.62 -14.28)"/></g><circle class="cls-109" cx="216.07" cy="89.52" r="3.47"/><path class="cls-110" d="M236.69,100.58a3.22,3.22,0,1,1-3.22,3.22,3.22,3.22,0,0,1,3.22-3.22m0-.5a3.72,3.72,0,1,0,3.72,3.72,3.72,3.72,0,0,0-3.72-3.72Z" transform="translate(-20.62 -14.28)"/><g class="cls-105"><circle class="cls-106" cx="287.42" cy="187.78" r="3.47"/><path class="cls-106" d="M308,198.85a3.22,3.22,0,1,1-3.22,3.22,3.22,3.22,0,0,1,3.22-3.22m0-.5a3.72,3.72,0,1,0,3.72,3.72,3.72,3.72,0,0,0-3.72-3.72Z" transform="translate(-20.62 -14.28)"/></g><circle class="cls-109" cx="287.42" cy="187.28" r="3.47"/><path class="cls-110" d="M308,198.35a3.22,3.22,0,1,1-3.22,3.22,3.22,3.22,0,0,1,3.22-3.22m0-.5a3.72,3.72,0,1,0,3.72,3.72,3.72,3.72,0,0,0-3.72-3.72Z" transform="translate(-20.62 -14.28)"/><g class="cls-105"><circle class="cls-106" cx="163.02" cy="131.96" r="3.47"/><path class="cls-106" d="M183.63,143a3.22,3.22,0,1,1-3.22,3.22,3.22,3.22,0,0,1,3.22-3.22m0-.5a3.72,3.72,0,1,0,3.72,3.72,3.72,3.72,0,0,0-3.72-3.72Z" transform="translate(-20.62 -14.28)"/></g><circle class="cls-107" cx="163.02" cy="131.46" r="3.47"/><path class="cls-108" d="M183.63,142.52a3.22,3.22,0,1,1-3.22,3.22,3.22,3.22,0,0,1,3.22-3.22m0-.5a3.72,3.72,0,1,0,3.72,3.72,3.72,3.72,0,0,0-3.72-3.72Z" transform="translate(-20.62 -14.28)"/><g class="cls-105"><circle class="cls-106" cx="133.59" cy="566.74" r="3.47"/><path class="cls-106" d="M154.2,577.8A3.22,3.22,0,1,1,151,581a3.22,3.22,0,0,1,3.22-3.22m0-.5a3.72,3.72,0,1,0,3.72,3.72,3.72,3.72,0,0,0-3.72-3.72Z" transform="translate(-20.62 -14.28)"/></g><circle class="cls-107" cx="133.59" cy="566.24" r="3.47"/><path class="cls-108" d="M154.2,577.3a3.22,3.22,0,1,1-3.22,3.22,3.22,3.22,0,0,1,3.22-3.22m0-.5a3.72,3.72,0,1,0,3.72,3.72,3.72,3.72,0,0,0-3.72-3.72Z" transform="translate(-20.62 -14.28)"/><g class="cls-105"><circle class="cls-106" cx="219.52" cy="311.66" r="3.47"/><path class="cls-106" d="M240.13,322.73a3.22,3.22,0,1,1-3.22,3.22,3.22,3.22,0,0,1,3.22-3.22m0-.5a3.72,3.72,0,1,0,3.72,3.72,3.72,3.72,0,0,0-3.72-3.72Z" transform="translate(-20.62 -14.28)"/></g><circle class="cls-109" cx="219.52" cy="311.16" r="3.47"/><path class="cls-110" d="M240.13,322.23a3.22,3.22,0,1,1-3.22,3.22,3.22,3.22,0,0,1,3.22-3.22m0-.5a3.72,3.72,0,1,0,3.72,3.72,3.72,3.72,0,0,0-3.72-3.72Z" transform="translate(-20.62 -14.28)"/><g class="cls-105"><circle class="cls-106" cx="335.76" cy="368.2" r="3.47"/><path class="cls-106" d="M356.37,379.27a3.22,3.22,0,1,1-3.22,3.22,3.22,3.22,0,0,1,3.22-3.22m0-.5a3.72,3.72,0,1,0,3.72,3.72,3.72,3.72,0,0,0-3.72-3.72Z" transform="translate(-20.62 -14.28)"/></g><circle class="cls-109" cx="335.76" cy="367.7" r="3.47"/><path class="cls-110" d="M356.37,378.77a3.22,3.22,0,1,1-3.22,3.22,3.22,3.22,0,0,1,3.22-3.22m0-.5a3.72,3.72,0,1,0,3.72,3.72,3.72,3.72,0,0,0-3.72-3.72Z" transform="translate(-20.62 -14.28)"/><g class="cls-105"><circle class="cls-106" cx="235.22" cy="523.95" r="3.47"/><path class="cls-106" d="M255.84,535a3.22,3.22,0,1,1-3.22,3.22,3.22,3.22,0,0,1,3.22-3.22m0-.5a3.72,3.72,0,1,0,3.72,3.72,3.72,3.72,0,0,0-3.72-3.72Z" transform="translate(-20.62 -14.28)"/></g><circle class="cls-109" cx="235.22" cy="523.45" r="3.47"/><path class="cls-110" d="M255.84,534.52a3.22,3.22,0,1,1-3.22,3.22,3.22,3.22,0,0,1,3.22-3.22m0-.5a3.72,3.72,0,1,0,3.72,3.72,3.72,3.72,0,0,0-3.72-3.72Z" transform="translate(-20.62 -14.28)"/><g class="cls-105"><circle class="cls-106" cx="338.16" cy="549.79" r="3.47"/><path class="cls-106" d="M358.78,560.85a3.22,3.22,0,1,1-3.22,3.22,3.22,3.22,0,0,1,3.22-3.22m0-.5a3.72,3.72,0,1,0,3.72,3.72,3.72,3.72,0,0,0-3.72-3.72Z" transform="translate(-20.62 -14.28)"/></g><circle class="cls-109" cx="338.16" cy="549.29" r="3.47"/><path class="cls-110" d="M358.78,560.35a3.22,3.22,0,1,1-3.22,3.22,3.22,3.22,0,0,1,3.22-3.22m0-.5a3.72,3.72,0,1,0,3.72,3.72,3.72,3.72,0,0,0-3.72-3.72Z" transform="translate(-20.62 -14.28)"/></g></g></g></svg>