<svg xmlns="http://www.w3.org/2000/svg" xmlns:xlink="http://www.w3.org/1999/xlink" viewBox="0 0 53.73 80.22"><defs><style>.cls-1{fill:url(#linear-gradient);}.cls-10,.cls-2,.cls-4,.cls-5,.cls-8{fill:none;}.cls-10,.cls-2,.cls-3,.cls-5,.cls-7,.cls-8{stroke:#fff;stroke-miterlimit:10;}.cls-2{stroke-width:1.5px;}.cls-3,.cls-9{fill:#fff;}.cls-3,.cls-8{stroke-width:2px;}.cls-5{stroke-width:0.86px;}.cls-6{fill:url(#linear-gradient-2);}.cls-7{fill:#4497cb;stroke-width:1.36px;}.cls-10{stroke-width:0.78px;}.cls-11{fill:url(#linear-gradient-3);}</style><linearGradient id="linear-gradient" x1="55.38" y1="21.08" x2="32.62" y2="96.68" gradientUnits="userSpaceOnUse"><stop offset="0" stop-color="#d9f0ff" stop-opacity="0.2"/><stop offset="1" stop-color="#007fcf"/></linearGradient><linearGradient id="linear-gradient-2" x1="23.23" y1="31.38" x2="4.33" y2="94.15" xlink:href="#linear-gradient"/><linearGradient id="linear-gradient-3" x1="31.47" y1="55.38" x2="21.46" y2="88.64" xlink:href="#linear-gradient"/></defs><title>alcohol-bottles</title><g id="Layer_2" data-name="Layer 2"><g id="DG"><path class="cls-1" d="M44.38,11.61V21a6.93,6.93,0,0,1-1.61,4.93,8.7,8.7,0,0,0-2.1,6.17V74.9a2.5,2.5,0,0,0,1.14,2.3H50.3A2.46,2.46,0,0,0,53,74.52V30.22c-.11-4-1.47-5.52-3.17-6.66-1.52-1-2.36-1.41-2.42-3.44l-.23-7.95a8.35,8.35,0,0,0-2.78-.56"/><path class="cls-2" d="M41.24,12.17,41,20.12c-.06,2-.9,2.42-2.42,3.44-1.71,1.14-3.07,2.66-3.18,6.66V74.52A2.46,2.46,0,0,0,38.1,77.2H50.3A2.46,2.46,0,0,0,53,74.52V30.22c-.11-4-1.47-5.52-3.17-6.66-1.52-1-2.36-1.41-2.42-3.44l-.23-7.95a8.08,8.08,0,0,0-5.92,0"/><path class="cls-3" d="M47.16,12.17H41.24l.17-5.86c-.51-.14-.71-.57-.66-1.17l.07-2.92A1.25,1.25,0,0,1,42.13,1h4.13a1.25,1.25,0,0,1,1.32,1.22l.07,2.92c.06.61-.15,1-.66,1.17Z"/><rect class="cls-4" x="35.42" y="1" width="17.56" height="76.2"/><line class="cls-5" x1="35.68" y1="39.1" x2="53.12" y2="39.1"/><line class="cls-5" x1="35.68" y1="57.25" x2="53.12" y2="57.25"/><path class="cls-6" d="M9.36,77.2a2.92,2.92,0,0,1-1.89-2.72V49.28l16.22-1.59v26.6a2.89,2.89,0,0,1-2.88,2.91H9.36ZM7.7,49.28c.21-10.06,3-16.13,4.29-25,0-.29.08-.6.12-.91a14.25,14.25,0,0,1,4.05.56l0,.35c1.33,8.91,6.93,15,7.27,25Z"/><path class="cls-2" d="M23.21,74.29c0,1.6-.81,2.91-2.41,2.91H3.66A2.92,2.92,0,0,1,.75,74.29V73.6c.08,0,.23-24.32.23-24.32.34-10.06,5.94-16.13,7.27-25,0-.12,0-.23,0-.35a14,14,0,0,1,7.86,0c0,.12,0,.23.05.35,1.26,8.42,6.35,14.31,7.17,23.44Z"/><path class="cls-3" d="M16.16,23.9H8.3c.34-2.54.4-5.76.47-8.51a1.21,1.21,0,0,1-.57-1V10.49c0-.54.23-1,.86-1h6.35c.63,0,.86.43.86,1v3.87a1.21,1.21,0,0,1-.57,1C15.76,18.14,15.82,21.36,16.16,23.9Z"/><line class="cls-5" x1="0.75" y1="47.53" x2="23.03" y2="47.53"/><line class="cls-5" x1="0.75" y1="64.96" x2="23.03" y2="64.96"/><rect class="cls-7" x="18.11" y="43.75" width="20.5" height="35.79"/><polyline class="cls-8" points="18.11 73.32 12.79 73.32 12.79 56.56 18.11 56.56"/><rect class="cls-9" x="21.91" y="50.78" width="1.67" height="28.76"/><rect class="cls-9" x="27.53" y="50.78" width="1.67" height="28.76"/><rect class="cls-9" x="33.14" y="50.78" width="1.67" height="28.76"/><line class="cls-10" x1="38.61" y1="50.78" x2="18.11" y2="50.78"/><rect class="cls-11" x="19.34" y="54.22" width="17.74" height="23.99"/><path class="cls-9" d="M37,41.54a4.34,4.34,0,0,1-4.33,4.34,4.23,4.23,0,0,1-2.21-.61,4.32,4.32,0,0,1-4.37,0,4.28,4.28,0,0,1-2.17.58,4.34,4.34,0,1,1,0-8.67,4.27,4.27,0,0,1,2.17.58,4.32,4.32,0,0,1,4.37,0,4.23,4.23,0,0,1,2.21-.61A4.34,4.34,0,0,1,37,41.54Z"/><path class="cls-9" d="M39.47,43.68a5.58,5.58,0,0,1-5.57,5.58,5.44,5.44,0,0,1-2.84-.78,5.55,5.55,0,0,1-5.62,0,5.5,5.5,0,0,1-2.79.75,5.58,5.58,0,1,1,0-11.15,5.5,5.5,0,0,1,2.79.75,5.55,5.55,0,0,1,5.62,0,5.44,5.44,0,0,1,2.84-.78A5.58,5.58,0,0,1,39.47,43.68Z"/><rect class="cls-9" x="18.11" y="75.72" width="20.5" height="3.82"/></g></g></svg>