<svg xmlns="http://www.w3.org/2000/svg" xmlns:xlink="http://www.w3.org/1999/xlink" viewBox="0 0 1256.02 300.85"><defs><style>.cls-1{fill:url(#linear-gradient);}.cls-2{fill:url(#linear-gradient-2);}.cls-3{fill:none;}.cls-4{fill:#fff;}.cls-5{isolation:isolate;}.cls-6{mask:url(#mask);}.cls-7{opacity:0.16;}.cls-23,.cls-7{mix-blend-mode:screen;}.cls-8{opacity:0.68;fill:url(#_10_dpi_30_);}.cls-14,.cls-15,.cls-9{mix-blend-mode:multiply;}.cls-9{fill:url(#linear-gradient-3);}.cls-10{mask:url(#mask-2);}.cls-11,.cls-16,.cls-17,.cls-18,.cls-19,.cls-20{fill:#e6ff5b;}.cls-12{fill:#18578b;}.cls-13{fill:#e6e6e6;}.cls-14{fill:#13456e;opacity:0.48;}.cls-15{opacity:0.25;}.cls-16{opacity:0.07;}.cls-17{opacity:0.18;}.cls-18{opacity:0.29;}.cls-19{opacity:0.4;}.cls-20{opacity:0.51;}.cls-21{clip-path:url(#clip-path);}.cls-22{fill:#0e3759;}.cls-23{fill:url(#radial-gradient);}</style><linearGradient id="linear-gradient" x1="665.69" y1="116.87" x2="1251.02" y2="116.87" gradientTransform="matrix(1, 0, 0, -1, 5, 233.73)" gradientUnits="userSpaceOnUse"><stop offset="0"/><stop offset="0.01" stop-color="#080808"/><stop offset="0.13" stop-color="#414141"/><stop offset="0.25" stop-color="#747474"/><stop offset="0.37" stop-color="#9f9f9f"/><stop offset="0.49" stop-color="#c1c1c1"/><stop offset="0.62" stop-color="#dcdcdc"/><stop offset="0.74" stop-color="#f0f0f0"/><stop offset="0.87" stop-color="#fbfbfb"/><stop offset="1" stop-color="#fff"/></linearGradient><linearGradient id="linear-gradient-2" x1="665.69" y1="118.01" x2="1251.02" y2="118.01" gradientTransform="matrix(1, 0, 0, -1, 5, 236.02)" xlink:href="#linear-gradient"/><mask id="mask" x="-2.16" y="2.16" width="1258.18" height="220.17" maskUnits="userSpaceOnUse"><rect class="cls-1" x="670.69" y="11.4" width="585.33" height="210.94" transform="translate(1926.71 233.73) rotate(-180)"/></mask><pattern id="_10_dpi_30_" data-name="10 dpi 30%" width="28.8" height="28.8" patternTransform="translate(-39.45 19.18) scale(1.06 1)" patternUnits="userSpaceOnUse" viewBox="0 0 28.8 28.8"><rect class="cls-3" width="28.8" height="28.8"/><circle class="cls-4" cx="28.8" cy="28.8" r="2.16"/><circle class="cls-4" cx="14.4" cy="28.8" r="2.16"/><circle class="cls-4" cx="28.8" cy="14.4" r="2.16"/><circle class="cls-4" cx="14.4" cy="14.4" r="2.16"/><circle class="cls-4" cx="7.2" cy="21.6" r="2.16"/><circle class="cls-4" cx="21.6" cy="21.6" r="2.16"/><circle class="cls-4" cx="7.2" cy="7.2" r="2.16"/><circle class="cls-4" cx="21.6" cy="7.2" r="2.16"/><circle class="cls-4" cy="28.8" r="2.16"/><circle class="cls-4" cy="14.4" r="2.16"/><circle class="cls-4" cx="28.8" r="2.16"/><circle class="cls-4" cx="14.4" r="2.16"/><circle class="cls-4" r="2.16"/></pattern><linearGradient id="linear-gradient-3" x1="954.77" y1="116.87" x2="1178.7" y2="116.87" gradientUnits="userSpaceOnUse"><stop offset="0" stop-color="#fff" stop-opacity="0"/><stop offset="1" stop-color="#1874b0"/></linearGradient><mask id="mask-2" x="665.69" y="39.34" width="590.33" height="157.33" maskUnits="userSpaceOnUse"><rect class="cls-2" x="670.69" y="39.34" width="585.33" height="157.33" transform="translate(1926.71 236.02) rotate(-180)"/></mask><clipPath id="clip-path"><path class="cls-3" d="M25,112.5A87.5,87.5,0,1,1,112.5,200,87.6,87.6,0,0,1,25,112.5Z"/></clipPath><radialGradient id="radial-gradient" cx="114.21" cy="204.35" r="79.23" gradientUnits="userSpaceOnUse"><stop offset="0" stop-color="#0044cf"/><stop offset="1" stop-color="#0044cf" stop-opacity="0"/></radialGradient></defs><title>d</title><g class="cls-5"><g id="Layer_2" data-name="Layer 2"><g id="DG"><g class="cls-6"><g class="cls-7"><rect class="cls-8" x="665.69" y="11.4" width="590.33" height="210.94"/><rect class="cls-9" x="665.69" y="11.4" width="590.33" height="210.94"/></g></g><g class="cls-10"><rect class="cls-11" x="665.69" y="39.34" width="590.33" height="157.33" transform="translate(1921.71 236.02) rotate(-180)"/></g><rect class="cls-12" x="107.21" y="12.5" width="584.35" height="211.02"/><rect class="cls-13" x="107.21" y="212.06" width="584.35" height="11.46"/><path class="cls-14" d="M231.67,114.5a112.5,112.5,0,1,0-120,112.24V261H95.84v39.82H142.5V261H126.67V226.74A112.64,112.64,0,0,0,231.67,114.5Zm-200,0a87.5,87.5,0,1,1,87.5,87.5A87.6,87.6,0,0,1,31.67,114.5Z"/><path class="cls-4" d="M225,112.5A112.5,112.5,0,1,0,105,224.74V259H89.17v39.82h46.67V259H120V224.74A112.64,112.64,0,0,0,225,112.5Zm-200,0A87.5,87.5,0,1,1,112.5,200,87.6,87.6,0,0,1,25,112.5Z"/><path class="cls-15" d="M225,112.5A112.63,112.63,0,0,0,112.5,0V25a87.5,87.5,0,0,1,0,175v98.85h23.33V259H120V224.74A112.64,112.64,0,0,0,225,112.5Z"/><path class="cls-3" d="M113.44,181.85"/><path class="cls-3" d="M112.5,181.85"/><path class="cls-12" d="M18,112.5A94.5,94.5,0,1,1,112.5,207,94.61,94.61,0,0,1,18,112.5Z"/><path class="cls-4" d="M21.5,112.5a91,91,0,1,1,91,91A91.1,91.1,0,0,1,21.5,112.5Z"/><path class="cls-12" d="M25,112.5A87.5,87.5,0,1,1,112.5,200,87.6,87.6,0,0,1,25,112.5Z"/><polyline class="cls-3" points="112.21 281.85 112.21 200 112.21 25 112.21 22.35"/><path class="cls-15" d="M200,112.5A87.6,87.6,0,0,1,112.5,200h-.29V25h.29A87.6,87.6,0,0,1,200,112.5Z"/><circle class="cls-16" cx="112.21" cy="110.35" r="72.49"/><circle class="cls-17" cx="112.21" cy="110.35" r="65.24"/><circle class="cls-18" cx="112.21" cy="110.35" r="57.99"/><circle class="cls-19" cx="112.21" cy="110.35" r="50.74"/><circle class="cls-20" cx="112.21" cy="110.35" r="43.49"/><g class="cls-21"><path class="cls-22" d="M214,224.42a51.56,51.56,0,0,0-13.67-29.6c-.58-.88-1.2-1.76-1.87-2.64C190,181,173.38,178.82,170.57,177.72s-12.36-3.11-14.77-3.92-11.56-5.63-14.25-6.93-4.74-2.11-5.34-5.83c-.52-3.22.47-17,.74-20.69a19.26,19.26,0,0,0,1.45-3.65c.28-1,.77-3.05,1.34-5.52a1.94,1.94,0,0,0,1.83.43c1.92-.41,2.14-2.51,2.69-3.74a36.12,36.12,0,0,0,2.19-4.84c.36-1.46,2.33-9.26,1.09-11.81-1.06-2.2-2.54-2.29-4.27-.7.19-5,.81-15.37-.65-20.74-7.23-18.09-21.9-20.2-27.53-20.9h-2.8c-5.63.7-20.3,2.81-27.53,20.9a44.82,44.82,0,0,0-.94,10.55q0-.33,0-.67c0,4.61.23,9.24.31,11.75h0c-2.1-2.46-3.9-2.75-5.13-.2s.73,10.36,1.09,11.81a36.12,36.12,0,0,0,2.19,4.84c.55,1.23.78,3.33,2.69,3.74a2,2,0,0,0,2.43-1.38v-.07c.66,2.94,1.25,5.39,1.57,6.57a18.14,18.14,0,0,0,1,2.73c0,.22,1.41,17.89.81,21.58s-2.64,4.52-5.34,5.83S73.57,173,71.16,173.8s-12,2.81-14.77,3.92S37,181,28.45,192.19a44.8,44.8,0,0,0-3.1,4.61,51.28,51.28,0,0,0-11.52,27.15c-.3,3.38.15,7.45-.91,11.39h201.9C213.92,231.54,214.32,227.66,214,224.42Z"/></g><path class="cls-23" d="M193.71,115.85a81.5,81.5,0,1,1-163,0"/></g></g></g></svg>