<svg xmlns="http://www.w3.org/2000/svg" xmlns:xlink="http://www.w3.org/1999/xlink" viewBox="0 0 72.39 49.03"><defs><style>.cls-1{fill:url(#linear-gradient);}.cls-2{fill:url(#linear-gradient-2);}.cls-3{fill:url(#linear-gradient-3);}.cls-4{fill:url(#linear-gradient-4);}.cls-5{fill:url(#linear-gradient-5);}.cls-6{fill:url(#linear-gradient-6);}.cls-7{fill:url(#linear-gradient-7);}.cls-8,.cls-9{fill:none;stroke:#fff;stroke-miterlimit:10;}.cls-8{stroke-width:2px;}.cls-9{stroke-width:0.86px;}.cls-10{fill:url(#linear-gradient-8);}.cls-11{fill:url(#linear-gradient-9);}.cls-12{fill:url(#linear-gradient-10);}.cls-13{fill:url(#linear-gradient-11);}.cls-14{fill:url(#linear-gradient-12);}.cls-15{fill:url(#linear-gradient-13);}.cls-16{fill:url(#linear-gradient-14);}.cls-17{fill:url(#linear-gradient-15);}.cls-18{fill:url(#linear-gradient-16);}.cls-19{fill:url(#linear-gradient-17);}.cls-20{fill:url(#linear-gradient-18);}.cls-21{fill:url(#linear-gradient-19);}.cls-22{fill:url(#linear-gradient-20);}.cls-23{fill:url(#linear-gradient-21);}.cls-24{fill:url(#linear-gradient-22);}.cls-25{fill:url(#linear-gradient-23);}.cls-26{fill:url(#linear-gradient-24);}.cls-27{fill:url(#linear-gradient-25);}.cls-28{fill:url(#linear-gradient-26);}.cls-29{fill:url(#linear-gradient-27);}.cls-30{fill:url(#linear-gradient-28);}.cls-31{fill:url(#linear-gradient-29);}.cls-32{fill:url(#linear-gradient-30);}.cls-33{fill:url(#linear-gradient-31);}.cls-34{fill:url(#linear-gradient-32);}.cls-35{fill:url(#linear-gradient-33);}.cls-36{fill:url(#linear-gradient-34);}.cls-37{fill:url(#linear-gradient-35);}.cls-38{fill:url(#linear-gradient-36);}.cls-39{fill:url(#linear-gradient-37);}.cls-40{fill:url(#linear-gradient-38);}.cls-41{fill:url(#linear-gradient-39);}.cls-42{fill:url(#linear-gradient-40);}.cls-43{fill:url(#linear-gradient-41);}.cls-44{fill:url(#linear-gradient-42);}.cls-45{fill:url(#linear-gradient-43);}.cls-46{fill:url(#linear-gradient-44);}.cls-47{fill:url(#linear-gradient-45);}.cls-48{fill:url(#linear-gradient-46);}.cls-49{fill:url(#linear-gradient-47);}.cls-50{fill:url(#linear-gradient-48);}.cls-51{fill:url(#linear-gradient-49);}.cls-52{fill:url(#linear-gradient-50);}.cls-53{fill:url(#linear-gradient-51);}.cls-54{fill:url(#linear-gradient-52);}.cls-55{fill:url(#linear-gradient-53);}.cls-56{fill:url(#linear-gradient-54);}.cls-57{fill:url(#linear-gradient-55);}.cls-58{fill:url(#linear-gradient-56);}.cls-59{fill:url(#linear-gradient-57);}.cls-60{fill:url(#linear-gradient-58);}.cls-61{fill:url(#linear-gradient-59);}.cls-62{fill:url(#linear-gradient-60);}.cls-63{fill:url(#linear-gradient-61);}.cls-64{fill:url(#linear-gradient-62);}.cls-65{fill:url(#linear-gradient-63);}.cls-66{fill:url(#linear-gradient-64);}.cls-67{fill:url(#linear-gradient-65);}.cls-68{fill:url(#linear-gradient-66);}.cls-69{fill:url(#linear-gradient-67);}.cls-70{fill:url(#linear-gradient-68);}.cls-71{fill:url(#linear-gradient-69);}.cls-72{fill:url(#linear-gradient-70);}.cls-73{fill:url(#linear-gradient-71);}.cls-74{fill:url(#linear-gradient-72);}.cls-75{fill:url(#linear-gradient-73);}.cls-76{fill:url(#linear-gradient-74);}.cls-77{fill:url(#linear-gradient-75);}.cls-78{fill:url(#linear-gradient-76);}.cls-79{fill:url(#linear-gradient-77);}.cls-80{fill:url(#linear-gradient-78);}.cls-81{fill:url(#linear-gradient-79);}.cls-82{fill:url(#linear-gradient-80);}.cls-83{fill:url(#linear-gradient-81);}.cls-84{fill:url(#linear-gradient-82);}.cls-85{fill:url(#linear-gradient-83);}.cls-86{fill:url(#linear-gradient-84);}.cls-87{fill:url(#linear-gradient-85);}.cls-88{fill:url(#linear-gradient-86);}.cls-89{fill:url(#linear-gradient-87);}.cls-90{fill:url(#linear-gradient-88);}.cls-91{fill:url(#linear-gradient-89);}.cls-92{fill:url(#linear-gradient-90);}.cls-93{fill:url(#linear-gradient-91);}.cls-94{fill:url(#linear-gradient-92);}.cls-95{fill:url(#linear-gradient-93);}.cls-96{fill:url(#linear-gradient-94);}.cls-97{fill:url(#linear-gradient-95);}.cls-98{fill:url(#linear-gradient-96);}.cls-99{fill:url(#linear-gradient-97);}.cls-100{fill:url(#linear-gradient-98);}.cls-101{fill:url(#linear-gradient-99);}.cls-102{fill:url(#linear-gradient-100);}.cls-103{fill:url(#linear-gradient-101);}.cls-104{fill:url(#linear-gradient-102);}.cls-105{fill:url(#linear-gradient-103);}.cls-106{fill:url(#linear-gradient-104);}.cls-107{fill:url(#linear-gradient-105);}.cls-108{fill:url(#linear-gradient-106);}.cls-109{fill:url(#linear-gradient-107);}.cls-110{fill:url(#linear-gradient-108);}.cls-111{fill:url(#linear-gradient-109);}.cls-112{fill:url(#linear-gradient-110);}.cls-113{fill:url(#linear-gradient-111);}.cls-114{fill:url(#linear-gradient-112);}.cls-115{fill:url(#linear-gradient-113);}.cls-116{fill:url(#linear-gradient-114);}.cls-117{fill:url(#linear-gradient-115);}.cls-118{fill:url(#linear-gradient-116);}.cls-119{fill:url(#linear-gradient-117);}.cls-120{fill:url(#linear-gradient-118);}.cls-121{fill:url(#linear-gradient-119);}.cls-122{fill:url(#linear-gradient-120);}.cls-123{fill:url(#linear-gradient-121);}</style><linearGradient id="linear-gradient" x1="25.76" y1="12.43" x2="12.53" y2="56.39" gradientUnits="userSpaceOnUse"><stop offset="0" stop-color="#d9f0ff" stop-opacity="0.2"/><stop offset="1" stop-color="#007fcf"/></linearGradient><linearGradient id="linear-gradient-2" x1="11.49" y1="20.4" x2="11.49" y2="40.3" gradientTransform="matrix(0.94, 0.34, -0.34, 0.94, 11.71, -6.24)" gradientUnits="userSpaceOnUse"><stop offset="0" stop-color="#d9f0ff" stop-opacity="0.9"/><stop offset="1" stop-color="#007fcf"/></linearGradient><linearGradient id="linear-gradient-3" x1="11.56" y1="21.36" x2="11.14" y2="26.2" xlink:href="#linear-gradient-2"/><linearGradient id="linear-gradient-4" x1="27.04" y1="24.9" x2="27.04" y2="44.81" gradientTransform="matrix(0.21, 0.98, -0.98, 0.21, 52.32, 1.71)" xlink:href="#linear-gradient-2"/><linearGradient id="linear-gradient-5" x1="27.11" y1="25.86" x2="26.69" y2="30.7" gradientTransform="matrix(0.21, 0.98, -0.98, 0.21, 52.32, 1.71)" xlink:href="#linear-gradient-2"/><linearGradient id="linear-gradient-6" x1="16.87" y1="21.54" x2="16.87" y2="44.38" gradientTransform="matrix(0.94, 0.34, -0.34, 0.94, 11.5, -5.92)" xlink:href="#linear-gradient-2"/><linearGradient id="linear-gradient-7" x1="16.94" y1="21.96" x2="15.96" y2="33.09" gradientTransform="matrix(0.94, 0.34, -0.34, 0.94, 11.5, -5.92)" xlink:href="#linear-gradient-2"/><linearGradient id="linear-gradient-8" x1="23.55" y1="-0.33" x2="17.07" y2="21.18" xlink:href="#linear-gradient"/><linearGradient id="linear-gradient-9" x1="12.7" y1="31.65" x2="12.7" y2="36.34" gradientTransform="matrix(0.99, -0.11, 0.11, 0.99, -3.04, 1.56)" xlink:href="#linear-gradient-2"/><linearGradient id="linear-gradient-10" x1="16.11" y1="27.84" x2="13.87" y2="33.08" gradientTransform="matrix(0.99, -0.11, 0.11, 0.99, -3.04, 1.56)" xlink:href="#linear-gradient-2"/><linearGradient id="linear-gradient-11" x1="16.06" y1="30.01" x2="16.06" y2="32.76" gradientTransform="matrix(0.88, -0.48, 0.48, 0.88, -11.91, 11.27)" xlink:href="#linear-gradient-2"/><linearGradient id="linear-gradient-12" x1="18.06" y1="27.78" x2="16.75" y2="30.85" gradientTransform="matrix(0.88, -0.48, 0.48, 0.88, -11.91, 11.27)" xlink:href="#linear-gradient-2"/><linearGradient id="linear-gradient-13" x1="33.57" y1="19.42" x2="33.57" y2="33.59" gradientTransform="matrix(0.75, 0.66, -0.66, 0.75, 26.7, -10.39)" xlink:href="#linear-gradient-2"/><linearGradient id="linear-gradient-14" x1="33.62" y1="19.67" x2="33.01" y2="26.58" gradientTransform="matrix(0.75, 0.66, -0.66, 0.75, 26.7, -10.39)" xlink:href="#linear-gradient-2"/><linearGradient id="linear-gradient-15" x1="15.65" y1="24.7" x2="15.65" y2="31.48" gradientTransform="matrix(0.75, 0.66, -0.66, 0.75, 26.7, -10.39)" xlink:href="#linear-gradient-2"/><linearGradient id="linear-gradient-16" x1="15.67" y1="24.82" x2="15.38" y2="28.13" gradientTransform="matrix(0.75, 0.66, -0.66, 0.75, 26.7, -10.39)" xlink:href="#linear-gradient-2"/><linearGradient id="linear-gradient-17" x1="17.62" y1="27.17" x2="17.62" y2="33.95" gradientTransform="matrix(0.17, 0.99, -0.99, 0.17, 45.5, 0.14)" xlink:href="#linear-gradient-2"/><linearGradient id="linear-gradient-18" x1="17.64" y1="27.29" x2="17.35" y2="30.6" gradientTransform="matrix(0.17, 0.99, -0.99, 0.17, 45.5, 0.14)" xlink:href="#linear-gradient-2"/><linearGradient id="linear-gradient-19" x1="31.33" y1="19.52" x2="31.33" y2="39.42" gradientTransform="matrix(0.97, 0.22, -0.22, 0.97, 7.63, -5.7)" xlink:href="#linear-gradient-2"/><linearGradient id="linear-gradient-20" x1="31.4" y1="20.48" x2="30.97" y2="25.32" gradientTransform="matrix(0.97, 0.22, -0.22, 0.97, 7.63, -5.7)" xlink:href="#linear-gradient-2"/><linearGradient id="linear-gradient-21" x1="23.39" y1="23.65" x2="23.39" y2="42.12" gradientTransform="matrix(0.47, 0.88, -0.88, 0.47, 45.07, -3.73)" xlink:href="#linear-gradient-2"/><linearGradient id="linear-gradient-22" x1="23.45" y1="24.54" x2="23.05" y2="29.03" gradientTransform="matrix(0.47, 0.88, -0.88, 0.47, 45.07, -3.73)" xlink:href="#linear-gradient-2"/><linearGradient id="linear-gradient-23" x1="31.42" y1="16.86" x2="31.42" y2="30.01" gradientTransform="matrix(0.9, 0.43, -0.43, 0.9, 17.09, -8.2)" xlink:href="#linear-gradient-2"/><linearGradient id="linear-gradient-24" x1="31.47" y1="17.1" x2="30.9" y2="23.51" gradientTransform="matrix(0.9, 0.43, -0.43, 0.9, 17.09, -8.2)" xlink:href="#linear-gradient-2"/><linearGradient id="linear-gradient-25" x1="31.12" y1="16.59" x2="31.12" y2="35.06" gradientTransform="matrix(1, -0.06, 0.06, 1, 0.08, 1.61)" xlink:href="#linear-gradient-2"/><linearGradient id="linear-gradient-26" x1="31.19" y1="17.47" x2="30.79" y2="21.97" gradientTransform="matrix(1, -0.06, 0.06, 1, 0.08, 1.61)" xlink:href="#linear-gradient-2"/><linearGradient id="linear-gradient-27" x1="21.79" y1="14.12" x2="21.79" y2="32.59" gradientTransform="matrix(0.68, 0.15, -0.16, 0.69, 14.04, 4.03)" xlink:href="#linear-gradient-2"/><linearGradient id="linear-gradient-28" x1="21.86" y1="15.01" x2="21.46" y2="19.5" gradientTransform="matrix(0.68, 0.15, -0.16, 0.69, 14.04, 4.03)" xlink:href="#linear-gradient-2"/><linearGradient id="linear-gradient-29" x1="22.86" y1="12.24" x2="22.86" y2="30.71" gradientTransform="matrix(0.59, -0.38, 0.38, 0.6, 2.65, 19.05)" xlink:href="#linear-gradient-2"/><linearGradient id="linear-gradient-30" x1="22.92" y1="13.13" x2="22.53" y2="17.62" gradientTransform="matrix(0.59, -0.38, 0.38, 0.6, 2.65, 19.05)" xlink:href="#linear-gradient-2"/><linearGradient id="linear-gradient-31" x1="27.31" y1="12.93" x2="27.31" y2="34.48" gradientTransform="matrix(1, 0.01, -0.01, 1, 1.2, -0.14)" xlink:href="#linear-gradient-2"/><linearGradient id="linear-gradient-32" x1="27.16" y1="16.52" x2="27.16" y2="23.63" gradientTransform="matrix(1, 0.01, -0.01, 1, 1.2, -0.14)" xlink:href="#linear-gradient-2"/><linearGradient id="linear-gradient-33" x1="28.91" y1="26.42" x2="28.91" y2="33.63" gradientTransform="matrix(1, 0.01, -0.01, 1, 1.2, -0.14)" xlink:href="#linear-gradient-2"/><linearGradient id="linear-gradient-34" x1="28.3" y1="15.23" x2="28.3" y2="19.39" gradientTransform="matrix(1, 0.01, -0.01, 1, 1.2, -0.14)" xlink:href="#linear-gradient-2"/><linearGradient id="linear-gradient-35" x1="18.87" y1="33.87" x2="18.87" y2="52.33" gradientTransform="matrix(-0.51, 0.86, 0.86, 0.51, -12.17, -4.36)" xlink:href="#linear-gradient-2"/><linearGradient id="linear-gradient-36" x1="18.94" y1="34.75" x2="18.54" y2="39.25" gradientTransform="matrix(-0.51, 0.86, 0.86, 0.51, -12.17, -4.36)" xlink:href="#linear-gradient-2"/><linearGradient id="linear-gradient-37" x1="21.72" y1="22.4" x2="21.72" y2="35.55" gradientTransform="matrix(-0.92, 0.39, 0.39, 0.92, 15.97, -7.64)" xlink:href="#linear-gradient-2"/><linearGradient id="linear-gradient-38" x1="21.76" y1="22.64" x2="21.2" y2="29.05" gradientTransform="matrix(-0.92, 0.39, 0.39, 0.92, 15.97, -7.64)" xlink:href="#linear-gradient-2"/><linearGradient id="linear-gradient-39" x1="19.95" y1="16.82" x2="19.95" y2="35.29" gradientTransform="matrix(-1, -0.1, -0.1, 1, 32.54, 2.89)" xlink:href="#linear-gradient-2"/><linearGradient id="linear-gradient-40" x1="20.02" y1="17.71" x2="19.62" y2="22.2" gradientTransform="matrix(-1, -0.1, -0.1, 1, 32.54, 2.89)" xlink:href="#linear-gradient-2"/><linearGradient id="linear-gradient-41" x1="6.56" y1="18.76" x2="6.56" y2="37.23" gradientTransform="matrix(-0.69, 0.13, 0.13, 0.7, 18.5, 4.72)" xlink:href="#linear-gradient-2"/><linearGradient id="linear-gradient-42" x1="6.62" y1="19.65" x2="6.23" y2="24.14" gradientTransform="matrix(-0.69, 0.13, 0.13, 0.7, 18.5, 4.72)" xlink:href="#linear-gradient-2"/><linearGradient id="linear-gradient-43" x1="8.79" y1="4.77" x2="8.79" y2="23.24" gradientTransform="matrix(-0.57, -0.4, -0.41, 0.58, 29.24, 20.2)" xlink:href="#linear-gradient-2"/><linearGradient id="linear-gradient-44" x1="8.85" y1="5.66" x2="8.46" y2="10.15" gradientTransform="matrix(-0.57, -0.4, -0.41, 0.58, 29.24, 20.2)" xlink:href="#linear-gradient-2"/><linearGradient id="linear-gradient-45" x1="16.18" y1="13.9" x2="16.18" y2="35.45" gradientTransform="matrix(-1, -0.03, -0.03, 1, 31.5, 1.09)" xlink:href="#linear-gradient-2"/><linearGradient id="linear-gradient-46" x1="16.03" y1="17.49" x2="16.03" y2="24.6" gradientTransform="matrix(-1, -0.03, -0.03, 1, 31.5, 1.09)" xlink:href="#linear-gradient-2"/><linearGradient id="linear-gradient-47" x1="17.78" y1="27.38" x2="17.78" y2="34.6" gradientTransform="matrix(-1, -0.03, -0.03, 1, 31.5, 1.09)" xlink:href="#linear-gradient-2"/><linearGradient id="linear-gradient-48" x1="17.17" y1="16.2" x2="17.17" y2="20.36" gradientTransform="matrix(-1, -0.03, -0.03, 1, 31.5, 1.09)" xlink:href="#linear-gradient-2"/><linearGradient id="linear-gradient-49" x1="22.68" y1="18.21" x2="22.68" y2="38.11" gradientTransform="matrix(0.61, 0.34, -0.35, 0.62, 20.36, 0.51)" xlink:href="#linear-gradient-2"/><linearGradient id="linear-gradient-50" x1="22.75" y1="19.17" x2="22.33" y2="24.01" gradientTransform="matrix(0.61, 0.34, -0.35, 0.62, 20.36, 0.51)" xlink:href="#linear-gradient-2"/><linearGradient id="linear-gradient-51" x1="19.93" y1="15.42" x2="19.93" y2="35.33" gradientTransform="matrix(0.67, -0.2, 0.2, 0.68, 5.24, 11.76)" xlink:href="#linear-gradient-2"/><linearGradient id="linear-gradient-52" x1="20" y1="16.38" x2="19.57" y2="21.22" gradientTransform="matrix(0.67, -0.2, 0.2, 0.68, 5.24, 11.76)" xlink:href="#linear-gradient-2"/><linearGradient id="linear-gradient-53" x1="9.36" y1="27.3" x2="9.36" y2="37.87" gradientTransform="matrix(0.98, 0.22, 0.22, -0.98, -6.52, 55.26)" xlink:href="#linear-gradient-2"/><linearGradient id="linear-gradient-54" x1="9.39" y1="27.81" x2="9.17" y2="30.38" gradientTransform="matrix(0.98, 0.22, 0.22, -0.98, -6.52, 55.26)" xlink:href="#linear-gradient-2"/><linearGradient id="linear-gradient-55" x1="9.43" y1="34.87" x2="9.43" y2="45.43" gradientTransform="matrix(0.9, 0.44, -0.44, 0.9, 19.85, -19.92)" xlink:href="#linear-gradient-2"/><linearGradient id="linear-gradient-56" x1="9.47" y1="35.38" x2="9.24" y2="37.94" gradientTransform="matrix(0.9, 0.44, -0.44, 0.9, 19.85, -19.92)" xlink:href="#linear-gradient-2"/><linearGradient id="linear-gradient-57" x1="27.43" y1="15.58" x2="27.43" y2="38.81" gradientTransform="matrix(0.96, 0.29, -0.29, 0.96, 9.19, -7.07)" xlink:href="#linear-gradient-2"/><linearGradient id="linear-gradient-58" x1="27.26" y1="19.45" x2="27.26" y2="27.11" gradientTransform="matrix(0.96, 0.29, -0.29, 0.96, 9.19, -7.07)" xlink:href="#linear-gradient-2"/><linearGradient id="linear-gradient-59" x1="29.15" y1="30.12" x2="29.15" y2="37.89" gradientTransform="matrix(0.96, 0.29, -0.29, 0.96, 9.19, -7.07)" xlink:href="#linear-gradient-2"/><linearGradient id="linear-gradient-60" x1="28.49" y1="18.06" x2="28.49" y2="22.54" gradientTransform="matrix(0.96, 0.29, -0.29, 0.96, 9.19, -7.07)" xlink:href="#linear-gradient-2"/><linearGradient id="linear-gradient-61" x1="56.86" y1="7.91" x2="38.7" y2="68.24" gradientUnits="userSpaceOnUse"><stop offset="0" stop-color="#d9f0ff" stop-opacity="0.7"/><stop offset="1" stop-color="#007fcf"/></linearGradient><linearGradient id="linear-gradient-62" x1="55.26" y1="18.56" x2="42.03" y2="62.52" xlink:href="#linear-gradient"/><linearGradient id="linear-gradient-63" x1="41.31" y1="16.07" x2="41.31" y2="35.97" xlink:href="#linear-gradient-2"/><linearGradient id="linear-gradient-64" x1="41.38" y1="17.02" x2="40.95" y2="21.86" xlink:href="#linear-gradient-2"/><linearGradient id="linear-gradient-65" x1="39.2" y1="-2.66" x2="39.2" y2="17.24" gradientTransform="matrix(0.21, 0.98, -0.98, 0.21, 52.32, 1.71)" xlink:href="#linear-gradient-2"/><linearGradient id="linear-gradient-66" x1="39.27" y1="-1.7" x2="38.84" y2="3.14" gradientTransform="matrix(0.21, 0.98, -0.98, 0.21, 52.32, 1.71)" xlink:href="#linear-gradient-2"/><linearGradient id="linear-gradient-67" x1="46.69" y1="17.28" x2="46.69" y2="40.11" gradientTransform="matrix(0.94, 0.34, -0.34, 0.94, 11.5, -5.92)" xlink:href="#linear-gradient-2"/><linearGradient id="linear-gradient-68" x1="46.77" y1="17.69" x2="45.78" y2="28.83" gradientTransform="matrix(0.94, 0.34, -0.34, 0.94, 11.5, -5.92)" xlink:href="#linear-gradient-2"/><linearGradient id="linear-gradient-69" x1="53.05" y1="5.8" x2="46.57" y2="27.32" xlink:href="#linear-gradient"/><linearGradient id="linear-gradient-70" x1="41.38" y1="40.87" x2="41.38" y2="45.56" gradientTransform="matrix(0.99, -0.11, 0.11, 0.99, -3.04, 1.56)" xlink:href="#linear-gradient-2"/><linearGradient id="linear-gradient-71" x1="44.79" y1="37.06" x2="42.55" y2="42.3" gradientTransform="matrix(0.99, -0.11, 0.11, 0.99, -3.04, 1.56)" xlink:href="#linear-gradient-2"/><linearGradient id="linear-gradient-72" x1="38.9" y1="49.64" x2="38.9" y2="52.39" gradientTransform="matrix(0.88, -0.48, 0.48, 0.88, -11.91, 11.27)" xlink:href="#linear-gradient-2"/><linearGradient id="linear-gradient-73" x1="40.9" y1="47.41" x2="39.59" y2="50.48" gradientTransform="matrix(0.88, -0.48, 0.48, 0.88, -11.91, 11.27)" xlink:href="#linear-gradient-2"/><linearGradient id="linear-gradient-74" x1="59.73" y1="4.47" x2="59.73" y2="18.64" gradientTransform="matrix(0.75, 0.66, -0.66, 0.75, 26.7, -10.39)" xlink:href="#linear-gradient-2"/><linearGradient id="linear-gradient-75" x1="59.78" y1="4.73" x2="59.17" y2="11.64" gradientTransform="matrix(0.75, 0.66, -0.66, 0.75, 26.7, -10.39)" xlink:href="#linear-gradient-2"/><linearGradient id="linear-gradient-76" x1="41.81" y1="9.75" x2="41.81" y2="16.53" gradientTransform="matrix(0.75, 0.66, -0.66, 0.75, 26.7, -10.39)" xlink:href="#linear-gradient-2"/><linearGradient id="linear-gradient-77" x1="41.83" y1="9.88" x2="41.54" y2="13.18" gradientTransform="matrix(0.75, 0.66, -0.66, 0.75, 26.7, -10.39)" xlink:href="#linear-gradient-2"/><linearGradient id="linear-gradient-78" x1="28.7" y1="-0.84" x2="28.7" y2="5.94" gradientTransform="matrix(0.17, 0.99, -0.99, 0.17, 45.5, 0.14)" xlink:href="#linear-gradient-2"/><linearGradient id="linear-gradient-79" x1="28.73" y1="-0.72" x2="28.44" y2="2.59" gradientTransform="matrix(0.17, 0.99, -0.99, 0.17, 45.5, 0.14)" xlink:href="#linear-gradient-2"/><linearGradient id="linear-gradient-80" x1="61.45" y1="18.86" x2="61.45" y2="38.77" gradientTransform="matrix(0.97, 0.22, -0.22, 0.97, 7.63, -5.7)" xlink:href="#linear-gradient-2"/><linearGradient id="linear-gradient-81" x1="61.52" y1="19.82" x2="61.1" y2="24.66" gradientTransform="matrix(0.97, 0.22, -0.22, 0.97, 7.63, -5.7)" xlink:href="#linear-gradient-2"/><linearGradient id="linear-gradient-82" x1="42.74" y1="0.56" x2="42.74" y2="19.03" gradientTransform="matrix(0.47, 0.88, -0.88, 0.47, 45.07, -3.73)" xlink:href="#linear-gradient-2"/><linearGradient id="linear-gradient-83" x1="42.81" y1="1.45" x2="42.41" y2="5.94" gradientTransform="matrix(0.47, 0.88, -0.88, 0.47, 45.07, -3.73)" xlink:href="#linear-gradient-2"/><linearGradient id="linear-gradient-84" x1="60.71" y1="9.8" x2="60.71" y2="22.95" gradientTransform="matrix(0.9, 0.43, -0.43, 0.9, 17.09, -8.2)" xlink:href="#linear-gradient-2"/><linearGradient id="linear-gradient-85" x1="60.75" y1="10.04" x2="60.19" y2="16.45" gradientTransform="matrix(0.9, 0.43, -0.43, 0.9, 17.09, -8.2)" xlink:href="#linear-gradient-2"/><linearGradient id="linear-gradient-86" x1="60.23" y1="24.35" x2="60.23" y2="42.82" gradientTransform="matrix(1, -0.06, 0.06, 1, 0.08, 1.61)" xlink:href="#linear-gradient-2"/><linearGradient id="linear-gradient-87" x1="60.3" y1="25.24" x2="59.9" y2="29.73" gradientTransform="matrix(1, -0.06, 0.06, 1, 0.08, 1.61)" xlink:href="#linear-gradient-2"/><linearGradient id="linear-gradient-88" x1="64.84" y1="13.35" x2="64.84" y2="31.82" gradientTransform="matrix(0.68, 0.15, -0.16, 0.69, 14.04, 4.03)" xlink:href="#linear-gradient-2"/><linearGradient id="linear-gradient-89" x1="64.91" y1="14.24" x2="64.51" y2="18.73" gradientTransform="matrix(0.68, 0.15, -0.16, 0.69, 14.04, 4.03)" xlink:href="#linear-gradient-2"/><linearGradient id="linear-gradient-90" x1="53.65" y1="41.96" x2="53.65" y2="60.43" gradientTransform="matrix(0.59, -0.38, 0.38, 0.6, 2.65, 19.05)" xlink:href="#linear-gradient-2"/><linearGradient id="linear-gradient-91" x1="53.71" y1="42.85" x2="53.32" y2="47.34" gradientTransform="matrix(0.59, -0.38, 0.38, 0.6, 2.65, 19.05)" xlink:href="#linear-gradient-2"/><linearGradient id="linear-gradient-92" x1="56.87" y1="18.77" x2="56.87" y2="40.32" gradientTransform="matrix(1, 0.01, -0.01, 1, 1.2, -0.14)" xlink:href="#linear-gradient-2"/><linearGradient id="linear-gradient-93" x1="56.72" y1="22.36" x2="56.72" y2="29.47" gradientTransform="matrix(1, 0.01, -0.01, 1, 1.2, -0.14)" xlink:href="#linear-gradient-2"/><linearGradient id="linear-gradient-94" x1="58.47" y1="32.26" x2="58.47" y2="39.47" gradientTransform="matrix(1, 0.01, -0.01, 1, 1.2, -0.14)" xlink:href="#linear-gradient-2"/><linearGradient id="linear-gradient-95" x1="57.86" y1="21.07" x2="57.86" y2="25.23" gradientTransform="matrix(1, 0.01, -0.01, 1, 1.2, -0.14)" xlink:href="#linear-gradient-2"/><linearGradient id="linear-gradient-96" x1="9.09" y1="62.36" x2="9.09" y2="80.83" gradientTransform="matrix(-0.51, 0.86, 0.86, 0.51, -12.17, -4.36)" xlink:href="#linear-gradient-2"/><linearGradient id="linear-gradient-97" x1="9.16" y1="63.25" x2="8.76" y2="67.74" gradientTransform="matrix(-0.51, 0.86, 0.86, 0.51, -12.17, -4.36)" xlink:href="#linear-gradient-2"/><linearGradient id="linear-gradient-98" x1="-3.08" y1="39.5" x2="-3.08" y2="52.65" gradientTransform="matrix(-0.92, 0.39, 0.39, 0.92, 15.97, -7.64)" xlink:href="#linear-gradient-2"/><linearGradient id="linear-gradient-99" x1="-3.03" y1="39.74" x2="-3.6" y2="46.15" gradientTransform="matrix(-0.92, 0.39, 0.39, 0.92, 15.97, -7.64)" xlink:href="#linear-gradient-2"/><linearGradient id="linear-gradient-100" x1="-10" y1="20.03" x2="-10" y2="38.5" gradientTransform="matrix(-1, -0.1, -0.1, 1, 32.54, 2.89)" xlink:href="#linear-gradient-2"/><linearGradient id="linear-gradient-101" x1="-9.94" y1="20.92" x2="-10.33" y2="25.41" gradientTransform="matrix(-1, -0.1, -0.1, 1, 32.54, 2.89)" xlink:href="#linear-gradient-2"/><linearGradient id="linear-gradient-102" x1="-33.28" y1="34.68" x2="-33.28" y2="53.15" gradientTransform="matrix(-0.69, 0.13, 0.13, 0.7, 18.5, 4.72)" xlink:href="#linear-gradient-2"/><linearGradient id="linear-gradient-103" x1="-33.22" y1="35.56" x2="-33.61" y2="40.06" gradientTransform="matrix(-0.69, 0.13, 0.13, 0.7, 18.5, 4.72)" xlink:href="#linear-gradient-2"/><linearGradient id="linear-gradient-104" x1="-30.75" y1="-12.13" x2="-30.75" y2="6.34" gradientTransform="matrix(-0.57, -0.4, -0.41, 0.58, 29.24, 20.2)" xlink:href="#linear-gradient-2"/><linearGradient id="linear-gradient-105" x1="-30.69" y1="-11.24" x2="-31.09" y2="-6.75" gradientTransform="matrix(-0.57, -0.4, -0.41, 0.58, 29.24, 20.2)" xlink:href="#linear-gradient-2"/><linearGradient id="linear-gradient-106" x1="-13.5" y1="19.06" x2="-13.5" y2="40.61" gradientTransform="matrix(-1, -0.03, -0.03, 1, 31.5, 1.09)" xlink:href="#linear-gradient-2"/><linearGradient id="linear-gradient-107" x1="-13.65" y1="22.65" x2="-13.65" y2="29.76" gradientTransform="matrix(-1, -0.03, -0.03, 1, 31.5, 1.09)" xlink:href="#linear-gradient-2"/><linearGradient id="linear-gradient-108" x1="-11.9" y1="32.55" x2="-11.9" y2="39.76" gradientTransform="matrix(-1, -0.03, -0.03, 1, 31.5, 1.09)" xlink:href="#linear-gradient-2"/><linearGradient id="linear-gradient-109" x1="-12.51" y1="21.36" x2="-12.51" y2="25.52" gradientTransform="matrix(-1, -0.03, -0.03, 1, 31.5, 1.09)" xlink:href="#linear-gradient-2"/><linearGradient id="linear-gradient-110" x1="63.77" y1="5.67" x2="63.77" y2="25.58" gradientTransform="matrix(0.61, 0.34, -0.35, 0.62, 20.36, 0.51)" xlink:href="#linear-gradient-2"/><linearGradient id="linear-gradient-111" x1="63.83" y1="6.63" x2="63.41" y2="11.47" gradientTransform="matrix(0.61, 0.34, -0.35, 0.62, 20.36, 0.51)" xlink:href="#linear-gradient-2"/><linearGradient id="linear-gradient-112" x1="57.89" y1="35.55" x2="57.89" y2="55.46" gradientTransform="matrix(0.67, -0.2, 0.2, 0.68, 5.24, 11.76)" xlink:href="#linear-gradient-2"/><linearGradient id="linear-gradient-113" x1="57.96" y1="36.51" x2="57.53" y2="41.35" gradientTransform="matrix(0.67, -0.2, 0.2, 0.68, 5.24, 11.76)" xlink:href="#linear-gradient-2"/><linearGradient id="linear-gradient-114" x1="39.48" y1="27.82" x2="39.48" y2="38.39" gradientTransform="matrix(0.98, 0.22, 0.22, -0.98, -6.52, 55.26)" xlink:href="#linear-gradient-2"/><linearGradient id="linear-gradient-115" x1="39.52" y1="28.33" x2="39.29" y2="30.9" gradientTransform="matrix(0.98, 0.22, 0.22, -0.98, -6.52, 55.26)" xlink:href="#linear-gradient-2"/><linearGradient id="linear-gradient-116" x1="38.64" y1="27.49" x2="38.64" y2="38.05" gradientTransform="matrix(0.9, 0.44, -0.44, 0.9, 19.85, -19.92)" xlink:href="#linear-gradient-2"/><linearGradient id="linear-gradient-117" x1="38.68" y1="28" x2="38.45" y2="30.56" gradientTransform="matrix(0.9, 0.44, -0.44, 0.9, 19.85, -19.92)" xlink:href="#linear-gradient-2"/><linearGradient id="linear-gradient-118" x1="57.44" y1="12.95" x2="57.44" y2="36.18" gradientTransform="matrix(0.96, 0.29, -0.29, 0.96, 9.19, -7.07)" xlink:href="#linear-gradient-2"/><linearGradient id="linear-gradient-119" x1="57.27" y1="16.82" x2="57.27" y2="24.48" gradientTransform="matrix(0.96, 0.29, -0.29, 0.96, 9.19, -7.07)" xlink:href="#linear-gradient-2"/><linearGradient id="linear-gradient-120" x1="59.16" y1="27.49" x2="59.16" y2="35.26" gradientTransform="matrix(0.96, 0.29, -0.29, 0.96, 9.19, -7.07)" xlink:href="#linear-gradient-2"/><linearGradient id="linear-gradient-121" x1="58.5" y1="15.43" x2="58.5" y2="19.91" gradientTransform="matrix(0.96, 0.29, -0.29, 0.96, 9.19, -7.07)" xlink:href="#linear-gradient-2"/></defs><title>meth-bags</title><g id="Layer_2" data-name="Layer 2"><g id="DG"><rect class="cls-1" x="2.83" y="12.99" width="37.23" height="27.55"/><polygon class="cls-2" points="12.56 19.19 14.78 19.39 11.41 34.01 9.13 34.45 12.51 23.05 12.56 19.19"/><polygon class="cls-3" points="12.56 19.19 13.04 26.95 14.78 19.39 12.56 19.19"/><polygon class="cls-4" points="30.06 32.08 31.07 34.06 16.89 38.97 15.3 37.27 26.76 34.08 30.06 32.08"/><polygon class="cls-5" points="30.06 32.08 23.74 36.6 31.07 34.06 30.06 32.08"/><polygon class="cls-6" points="15.01 39.15 9.84 39.24 16.93 25.91 19.52 24.5 21.89 23.96 15.01 39.15"/><polygon class="cls-7" points="19.52 24.5 9.84 39.24 16.93 25.91 19.52 24.5"/><rect class="cls-8" x="1" y="1" width="40.89" height="40.89"/><line class="cls-9" x1="1" y1="11.51" x2="41.89" y2="11.51"/><rect class="cls-10" x="2.7" y="2.84" width="37.48" height="7.68"/><polygon class="cls-11" points="22.32 34.49 4.1 37.06 3.24 36.22 4.19 33.24 23.17 32.12 22.32 34.49"/><polygon class="cls-12" points="23.17 32.12 4.37 37.03 22.32 34.49 23.17 32.12"/><polygon class="cls-13" points="22.37 29.16 13.11 34.69 12.46 34.43 12.29 32.61 22.29 27.68 22.37 29.16"/><polygon class="cls-14" points="22.29 27.68 13.25 34.61 22.37 29.16 22.29 27.68"/><polygon class="cls-15" points="31.73 36.26 28.73 35.13 35.86 29.06 37.69 28.84 39.17 29.07 31.73 36.26"/><polygon class="cls-16" points="37.69 28.84 28.73 35.13 35.86 29.06 37.69 28.84"/><polygon class="cls-17" points="18.59 23.2 17.15 22.66 20.57 19.75 21.44 19.65 22.15 19.76 18.59 23.2"/><polygon class="cls-18" points="21.44 19.65 17.15 22.66 20.57 19.75 21.44 19.65"/><polygon class="cls-19" points="16.07 23.66 15.29 22.34 19.77 22.2 20.52 22.67 21 23.2 16.07 23.66"/><polygon class="cls-20" points="20.52 22.67 15.29 22.34 19.77 22.2 20.52 22.67"/><polygon class="cls-21" points="31.11 23.04 33.34 22.96 31.78 37.88 29.57 38.61 31.53 26.87 31.11 23.04"/><polygon class="cls-22" points="31.11 23.04 32.53 30.68 33.34 22.96 31.11 23.04"/><polygon class="cls-23" points="31.8 27.84 33.22 29.35 21.85 37.39 19.99 36.28 29.38 30.47 31.8 27.84"/><polygon class="cls-24" points="31.8 27.84 27.34 33.5 33.22 29.35 31.8 27.84"/><polygon class="cls-25" points="34.37 31.13 31.41 30.9 36.19 23.65 37.76 22.98 39.15 22.8 34.37 31.13"/><polygon class="cls-26" points="37.76 22.98 31.41 30.9 36.19 23.65 37.76 22.98"/><polygon class="cls-27" points="30.4 19.51 32.36 18.87 34.84 32.57 33.05 33.79 31.76 22.82 30.4 19.51"/><polygon class="cls-28" points="30.4 19.51 33.64 25.95 32.36 18.87 30.4 19.51"/><polygon class="cls-29" points="24.91 18.96 26.36 18.91 25.32 28.75 23.88 29.23 25.18 21.49 24.91 18.96"/><polygon class="cls-30" points="24.91 18.96 25.82 23.99 26.36 18.91 24.91 18.96"/><polygon class="cls-31" points="20.83 20.2 21.8 19.12 28.1 26.75 27.44 28.13 22.82 21.78 20.83 20.2"/><polygon class="cls-32" points="20.83 20.2 25.06 23.07 21.8 19.12 20.83 20.2"/><polygon class="cls-33" points="28.4 16.86 30.15 15.92 30.56 32.19 29.02 33.34 29.64 32.18 28.15 20.81 25.98 17.56 27.4 17.97 28.4 16.86"/><polygon class="cls-34" points="25.98 17.56 27.4 17.97 30.34 23.36 28.15 20.81 25.98 17.56"/><polygon class="cls-35" points="30.3 27.52 29.64 32.18 29.02 33.34 30.56 32.19 30.3 27.52"/><polygon class="cls-36" points="28.4 16.86 30.24 19.29 30.15 15.92 28.4 16.86"/><polygon class="cls-37" points="10.82 29.07 9.35 30.52 20.36 39.04 22.26 38.02 13.13 31.81 10.82 29.07"/><polygon class="cls-38" points="10.82 29.07 15.04 34.93 9.35 30.52 10.82 29.07"/><polygon class="cls-39" points="8.11 32.25 11.09 32.15 6.62 24.7 5.08 23.97 3.7 23.73 8.11 32.25"/><polygon class="cls-40" points="5.08 23.97 11.09 32.15 6.62 24.7 5.08 23.97"/><polygon class="cls-41" points="12.58 20.81 10.64 20.09 7.59 33.67 9.32 34.97 11.08 24.07 12.58 20.81"/><polygon class="cls-42" points="12.58 20.81 9.06 27.11 10.64 20.09 12.58 20.81"/><polygon class="cls-43" points="18.08 20.5 16.64 20.38 17.26 30.26 18.68 30.81 17.71 23.02 18.08 20.5"/><polygon class="cls-44" points="18.08 20.5 16.96 25.49 16.64 20.38 18.08 20.5"/><polygon class="cls-45" points="22.11 21.91 21.18 20.8 14.57 28.15 15.17 29.55 20.05 23.41 22.11 21.91"/><polygon class="cls-46" points="22.11 21.91 17.76 24.6 21.18 20.8 22.11 21.91"/><polygon class="cls-47" points="14.69 18.25 12.98 17.24 11.88 33.48 13.37 34.69 12.8 33.51 14.77 22.21 17.08 19.06 15.64 19.41 14.69 18.25"/><polygon class="cls-48" points="17.08 19.06 15.64 19.41 12.48 24.66 14.77 22.21 17.08 19.06"/><polygon class="cls-49" points="12.34 28.82 12.8 33.51 13.37 34.69 11.88 33.48 12.34 28.82"/><polygon class="cls-50" points="14.69 18.25 12.75 20.6 12.98 17.24 14.69 18.25"/><polygon class="cls-51" points="25.6 20.82 27.12 21.2 23.08 31.07 21.44 31.14 25.11 23.52 25.6 20.82"/><polygon class="cls-52" points="25.6 20.82 25.03 26.3 27.12 21.2 25.6 20.82"/><polygon class="cls-53" points="21 20.88 22.33 20.05 26.56 29.84 25.46 31.07 22.59 23.11 21 20.88"/><polygon class="cls-54" points="21 20.88 24.52 25.11 22.33 20.05 21 20.88"/><polygon class="cls-55" points="7.97 28.8 9.02 29.35 11.71 21.86 10.82 21 9.05 27.06 7.97 28.8"/><polygon class="cls-56" points="7.97 28.8 10.41 25.48 9.02 29.35 7.97 28.8"/><polygon class="cls-57" points="11.4 16.63 12.56 16.86 9.98 24.39 8.75 24.5 11.16 18.66 11.4 16.63"/><polygon class="cls-58" points="11.4 16.63 11.23 20.75 12.56 16.86 11.4 16.63"/><polygon class="cls-59" points="29.84 19.69 31.93 19.25 27.47 36.21 25.53 36.93 26.51 35.92 28.39 23.71 27.12 19.69 28.47 20.54 29.84 19.69"/><polygon class="cls-60" points="27.12 19.69 28.47 20.54 29.89 27 28.39 23.71 27.12 19.69"/><polygon class="cls-61" points="28.6 31.29 26.51 35.92 25.53 36.93 27.47 36.21 28.6 31.29"/><polygon class="cls-62" points="29.84 19.69 31.01 22.76 31.93 19.25 29.84 19.69"/><rect class="cls-63" x="30.5" y="7.13" width="40.89" height="40.89"/><rect class="cls-64" x="32.33" y="19.12" width="37.23" height="27.55"/><polygon class="cls-65" points="42.06 25.32 44.28 25.52 40.91 40.14 38.62 40.59 42 29.18 42.06 25.32"/><polygon class="cls-66" points="42.06 25.32 42.54 33.08 44.28 25.52 42.06 25.32"/><polygon class="cls-67" points="59.56 38.21 60.57 40.2 46.39 45.1 44.8 43.4 56.26 40.21 59.56 38.21"/><polygon class="cls-68" points="59.56 38.21 53.24 42.73 60.57 40.2 59.56 38.21"/><polygon class="cls-69" points="44.51 45.28 39.34 45.37 46.42 32.04 49.02 30.63 51.39 30.1 44.51 45.28"/><polygon class="cls-70" points="49.02 30.63 39.34 45.37 46.42 32.04 49.02 30.63"/><rect class="cls-8" x="30.5" y="7.13" width="40.89" height="40.89"/><line class="cls-9" x1="30.5" y1="17.64" x2="71.39" y2="17.64"/><rect class="cls-71" x="32.19" y="8.97" width="37.48" height="7.68"/><polygon class="cls-72" points="51.82 40.62 33.6 43.19 32.74 42.35 33.69 39.37 52.66 38.25 51.82 40.62"/><polygon class="cls-73" points="52.66 38.25 33.87 43.16 51.82 40.62 52.66 38.25"/><polygon class="cls-74" points="51.87 35.29 42.61 40.82 41.95 40.56 41.79 38.74 51.78 33.81 51.87 35.29"/><polygon class="cls-75" points="51.78 33.81 42.75 40.74 51.87 35.29 51.78 33.81"/><polygon class="cls-76" points="61.23 42.39 58.23 41.26 65.36 35.19 67.18 34.97 68.67 35.2 61.23 42.39"/><polygon class="cls-77" points="67.18 34.97 58.23 41.26 65.36 35.19 67.18 34.97"/><polygon class="cls-78" points="48.09 29.33 46.65 28.79 50.06 25.89 50.94 25.78 51.65 25.89 48.09 29.33"/><polygon class="cls-79" points="50.94 25.78 46.65 28.79 50.06 25.89 50.94 25.78"/><polygon class="cls-80" points="45.57 29.79 44.79 28.47 49.27 28.34 50.01 28.8 50.5 29.33 45.57 29.79"/><polygon class="cls-81" points="50.01 28.8 44.79 28.47 49.27 28.34 50.01 28.8"/><polygon class="cls-82" points="60.61 29.17 62.84 29.1 61.28 44.02 59.06 44.74 61.02 33.01 60.61 29.17"/><polygon class="cls-83" points="60.61 29.17 62.03 36.81 62.84 29.1 60.61 29.17"/><polygon class="cls-84" points="61.3 33.97 62.71 35.48 51.35 43.52 49.48 42.41 58.87 36.61 61.3 33.97"/><polygon class="cls-85" points="61.3 33.97 56.84 39.64 62.71 35.48 61.3 33.97"/><polygon class="cls-86" points="63.87 37.26 60.9 37.03 65.69 29.78 67.25 29.11 68.64 28.93 63.87 37.26"/><polygon class="cls-87" points="67.25 29.11 60.9 37.03 65.69 29.78 67.25 29.11"/><polygon class="cls-88" points="59.89 25.64 61.86 25 64.33 38.7 62.55 39.92 61.26 28.95 59.89 25.64"/><polygon class="cls-89" points="59.89 25.64 63.14 32.08 61.86 25 59.89 25.64"/><polygon class="cls-90" points="54.41 25.09 55.86 25.04 54.81 34.88 53.37 35.37 54.67 27.62 54.41 25.09"/><polygon class="cls-91" points="54.41 25.09 55.32 30.12 55.86 25.04 54.41 25.09"/><polygon class="cls-92" points="50.33 26.33 51.3 25.25 57.6 32.89 56.94 34.26 52.32 27.91 50.33 26.33"/><polygon class="cls-93" points="50.33 26.33 54.56 29.2 51.3 25.25 50.33 26.33"/><polygon class="cls-94" points="57.9 22.99 59.65 22.06 60.05 38.32 58.51 39.47 59.13 38.31 57.64 26.94 55.47 23.7 56.89 24.1 57.9 22.99"/><polygon class="cls-95" points="55.47 23.7 56.89 24.1 59.84 29.49 57.64 26.94 55.47 23.7"/><polygon class="cls-96" points="59.79 33.65 59.13 38.31 58.51 39.47 60.05 38.32 59.79 33.65"/><polygon class="cls-97" points="57.9 22.99 59.73 25.42 59.65 22.06 57.9 22.99"/><polygon class="cls-98" points="40.32 35.21 38.84 36.66 49.85 45.17 51.76 44.15 42.63 37.95 40.32 35.21"/><polygon class="cls-99" points="40.32 35.21 44.54 41.06 38.84 36.66 40.32 35.21"/><polygon class="cls-100" points="37.61 38.39 40.58 38.28 36.11 30.83 34.58 30.1 33.2 29.86 37.61 38.39"/><polygon class="cls-101" points="34.58 30.1 40.58 38.28 36.11 30.83 34.58 30.1"/><polygon class="cls-102" points="42.08 26.95 40.14 26.22 37.09 39.8 38.82 41.1 40.58 30.2 42.08 26.95"/><polygon class="cls-103" points="42.08 26.95 38.56 33.24 40.14 26.22 42.08 26.95"/><polygon class="cls-104" points="47.58 26.64 46.13 26.52 46.76 36.39 48.18 36.94 47.21 29.15 47.58 26.64"/><polygon class="cls-105" points="47.58 26.64 46.46 31.62 46.13 26.52 47.58 26.64"/><polygon class="cls-106" points="51.61 28.04 50.68 26.93 44.06 34.28 44.66 35.68 49.55 29.54 51.61 28.04"/><polygon class="cls-107" points="51.61 28.04 47.26 30.73 50.68 26.93 51.61 28.04"/><polygon class="cls-108" points="44.18 24.38 42.47 23.38 41.38 39.61 42.87 40.82 42.3 39.64 44.27 28.34 46.58 25.19 45.14 25.54 44.18 24.38"/><polygon class="cls-109" points="46.58 25.19 45.14 25.54 41.97 30.79 44.27 28.34 46.58 25.19"/><polygon class="cls-110" points="41.84 34.95 42.3 39.64 42.87 40.82 41.38 39.61 41.84 34.95"/><polygon class="cls-111" points="44.18 24.38 42.25 26.73 42.47 23.38 44.18 24.38"/><polygon class="cls-112" points="55.1 26.95 56.61 27.33 52.58 37.2 50.94 37.27 54.61 29.65 55.1 26.95"/><polygon class="cls-113" points="55.1 26.95 54.53 32.43 56.61 27.33 55.1 26.95"/><polygon class="cls-114" points="50.5 27.01 51.83 26.19 56.05 35.98 54.96 37.2 52.08 29.24 50.5 27.01"/><polygon class="cls-115" points="50.5 27.01 54.01 31.25 51.83 26.19 50.5 27.01"/><polygon class="cls-116" points="37.47 34.94 38.52 35.48 41.21 27.99 40.32 27.13 38.55 33.2 37.47 34.94"/><polygon class="cls-117" points="37.47 34.94 39.91 31.61 38.52 35.48 37.47 34.94"/><polygon class="cls-118" points="40.9 22.76 42.06 22.99 39.48 30.52 38.25 30.63 40.66 24.8 40.9 22.76"/><polygon class="cls-119" points="40.9 22.76 40.73 26.88 42.06 22.99 40.9 22.76"/><polygon class="cls-120" points="59.34 25.82 61.43 25.38 56.96 42.34 55.02 43.06 56.01 42.05 57.89 29.84 56.61 25.82 57.96 26.68 59.34 25.82"/><polygon class="cls-121" points="56.61 25.82 57.96 26.68 59.39 33.13 57.89 29.84 56.61 25.82"/><polygon class="cls-122" points="58.1 37.42 56.01 42.05 55.02 43.06 56.96 42.34 58.1 37.42"/><polygon class="cls-123" points="59.34 25.82 60.51 28.89 61.43 25.38 59.34 25.82"/></g></g></svg>